SplineFontDB: 3.2
FontName: SeriousShannsLight
FullName: Serious Shanns Light
FamilyName: Serious Shanns Light
Weight: Light
Copyright: https://github.com/kaBeech/serious-shanns/blob/main/LICENSE
Version: 6.0.0
ItalicAngle: 0
UnderlinePosition: 0
UnderlineWidth: 0
Ascent: 800
Descent: 200
InvalidEm: 0
sfntRevision: 0x00003333
LayerCount: 2
Layer: 0 0 "Back" 1
Layer: 1 0 "Fore" 0
XUID: [1021 329 -1817886000 12366394]
StyleMap: 0x0040
FSType: 4
OS2Version: 3
OS2_WeightWidthSlopeOnly: 0
OS2_UseTypoMetrics: 0
CreationTime: 1532631502
ModificationTime: 315532800
PfmFamily: 81
TTFWeight: 300
TTFWidth: 5
LineGap: 0
VLineGap: 0
Panose: 0 0 0 0 0 0 0 0 0 0
OS2TypoAscent: 613
OS2TypoAOffset: 0
OS2TypoDescent: -188
OS2TypoDOffset: 0
OS2TypoLinegap: 98
OS2WinAscent: 778
OS2WinAOffset: 0
OS2WinDescent: 308
OS2WinDOffset: 0
HheadAscent: 796
HheadAOffset: 0
HheadDescent: -317
HheadDOffset: 0
OS2SubXSize: 317
OS2SubYSize: 293
OS2SubXOff: 0
OS2SubYOff: 37
OS2SupXSize: 317
OS2SupYSize: 293
OS2SupXOff: 0
OS2SupYOff: 171
OS2StrikeYSize: 0
OS2StrikeYPos: 132
OS2CapHeight: 576
OS2XHeight: 485
OS2Vendor: 'NONE'
OS2CodePages: 00000001.00000000
OS2UnicodeRanges: 00000001.00000000.00000000.00000000
MarkAttachClasses: 1
DEI: 91125
LangName: 1033 "" "" "Normal" "FontForge 2.0 : Serious Shanns Light : 1-1-1980" "" "Version 0.2.0"
Encoding: UnicodeBmp
Compacted: 1
UnicodeInterp: none
NameList: AGL For New Fonts
DisplaySize: -48
AntiAlias: 1
FitToEm: 0
WinInfo: 48 16 4
BeginPrivate: 8
BlueValues 32 [-39 -8 492 523 690 718 765 769]
OtherBlues 11 [-297 -287]
BlueScale 9 0.0333333
BlueShift 2 17
StdHW 4 [67]
StdVW 4 [73]
StemSnapH 4 [67]
StemSnapV 7 [68 73]
EndPrivate
BeginChars: 65537 105

StartChar: .notdef
Encoding: 65536 -1 0
Width: 590
GlyphClass: 1
Flags: HMW
HStem: -258 34<125 466 125 500> 705 34<125 466 125 125>
VStem: 91 34<-224 -224 -224 705> 466 34<-224 705 705 705>
LayerCount: 2
Fore
SplineSet
91 739 m 1
 500 739 l 1
 500 -258 l 1
 91 -258 l 1
 91 739 l 1
125 -224 m 1
 466 -224 l 1
 466 705 l 1
 125 705 l 1
 125 -224 l 1
EndSplineSet
Validated: 1
EndChar

StartChar: exclam
Encoding: 33 33 2
Width: 590
GlyphClass: 2
Flags: HMW
HStem: -15.3799 135.375
VStem: 224 143.001 258 78.001 266 72
LayerCount: 2
Fore
SplineSet
344 738 m 0x90
 344 732 342.666992188 694.669921875 340 626.002929688 c 0
 338 557.3359375 337 507.668945312 337 477.001953125 c 0
 336.666015625 461.66796875 336.499023438 447.583984375 336.499023438 434.75 c 0
 336.499023438 421.916015625 336.666015625 410.33203125 337 399.998046875 c 0
 337.666992188 379.331054688 338 361.6640625 338 346.997070312 c 0x90
 338 332.330078125 337.666992188 322.663085938 337 317.99609375 c 0
 336.111328125 311.331054688 335.666992188 302.1484375 335.666992188 290.44921875 c 0
 335.666992188 284.594726562 335.778320312 278.110351562 336.000976562 270.99609375 c 0xa0
 334.66796875 259.663085938 330.000976562 250.663085938 322.000976562 243.99609375 c 0
 314.66796875 237.329101562 305.66796875 233.99609375 295.000976562 233.99609375 c 2
 292.000976562 233.99609375 l 2
 281.333984375 234.663085938 272.666992188 238.330078125 266 244.997070312 c 0x90
 260.666992188 250.997070312 258 259.330078125 258 269.997070312 c 0xa0
 258 276.6640625 259.333007812 287.997070312 262 303.997070312 c 0
 264 313.330078125 265.333007812 323.330078125 266 333.997070312 c 0
 266.666992188 344.6640625 267 367.331054688 267 401.998046875 c 0
 267 415.998046875 266.333007812 437.331054688 265 465.998046875 c 0
 263.666992188 497.331054688 263 531.6640625 263 568.997070312 c 0
 263.666992188 596.330078125 264.666992188 634.997070312 266 684.997070312 c 0
 266.666992188 710.330078125 267 726.997070312 267 734.997070312 c 0
 267.666992188 750.330078125 271.666992188 761.663085938 279 768.99609375 c 0
 286.333007812 776.329101562 295.666015625 779.99609375 306.999023438 779.99609375 c 2
 309.999023438 779.99609375 l 2
 319.999023438 779.99609375 327.999023438 776.99609375 333.999023438 770.99609375 c 0
 340.666015625 764.329101562 344 753.333007812 344 738 c 0x90
347.999023438 7.9990234375 m 0
 335.33203125 -4.66796875 318.33203125 -12.3349609375 296.999023438 -15.001953125 c 0
 294.33203125 -15.251953125 291.727539062 -15.376953125 289.185546875 -15.376953125 c 0
 271.39453125 -15.376953125 256.666015625 -9.251953125 245 2.998046875 c 0
 231 16.998046875 224 33.998046875 224 53.998046875 c 0
 224 71.3310546875 231.333007812 86.3310546875 246 98.998046875 c 0
 262.666992188 112.998046875 281.333984375 119.998046875 302.000976562 119.998046875 c 0
 320.66796875 119.998046875 336.000976562 113.998046875 348.000976562 101.998046875 c 0
 360.66796875 89.3310546875 367.000976562 73.6640625 367.000976562 54.9970703125 c 0xc0
 367.000976562 36.330078125 360.666015625 20.666015625 347.999023438 7.9990234375 c 0
EndSplineSet
Validated: 524289
EndChar

StartChar: quotedbl
Encoding: 34 34 3
Width: 590
GlyphClass: 2
Flags: HMW
HStem: 444.999 328.002
VStem: 173.001 84 332.003 86.998
LayerCount: 2
Fore
SplineSet
378.000976562 773.000976562 m 0
 388.000976562 773.000976562 397.000976562 770.66796875 405.000976562 766.000976562 c 0
 409.000976562 764.000976562 412.333984375 760.66796875 415.000976562 756.000976562 c 0
 417.66796875 750.66796875 419.000976562 744.66796875 419.000976562 738.000976562 c 2
 419.000976562 696.000976562 l 2
 419.000976562 676.66796875 418.333984375 641.000976562 417.000976562 589.000976562 c 0
 415.66796875 537.000976562 413.66796875 499.333984375 411.000976562 476.000976562 c 0
 409.66796875 466.000976562 405.334960938 458.33203125 398.001953125 452.999023438 c 0
 391.334960938 447.666015625 384.001953125 444.999023438 376.001953125 444.999023438 c 2
 373.001953125 444.999023438 l 2
 362.334960938 445.666015625 352.334960938 449.333007812 343.001953125 456 c 0
 336.334960938 460.666992188 333.001953125 467.333984375 333.001953125 476.000976562 c 0
 333.668945312 477.333984375 334.001953125 479.000976562 334.001953125 481.000976562 c 0
 335.334960938 506.333984375 336.001953125 537.3359375 336.001953125 574.002929688 c 2
 336.001953125 612.000976562 l 2
 334.668945312 665.333984375 333.3359375 709.333984375 332.002929688 744.000976562 c 2
 332.002929688 746.002929688 l 2
 332.002929688 751.3359375 333.334960938 756.000976562 336.001953125 760.000976562 c 0
 338.668945312 764.000976562 342.002929688 766.66796875 346.002929688 768.000976562 c 0
 355.3359375 772.000976562 364.002929688 774.002929688 372.002929688 774.002929688 c 0
 374.669921875 773.3359375 376.66796875 773.000976562 378.000976562 773.000976562 c 0
251 476.000976562 m 0
 249.666992188 465.333984375 245.334960938 457.666015625 238.001953125 452.999023438 c 0
 230.001953125 447.666015625 222.334960938 444.999023438 215.001953125 444.999023438 c 2
 213.001953125 444.999023438 l 2
 202.334960938 445.666015625 192.334960938 449.333007812 183.001953125 456 c 0
 176.334960938 460.666992188 173.001953125 467.333984375 173.001953125 476.000976562 c 2
 173.001953125 481.000976562 l 2
 175.001953125 507.66796875 176.001953125 540.000976562 176.001953125 578.000976562 c 0
 175.334960938 588.66796875 175.001953125 600.000976562 175.001953125 612.000976562 c 0
 173.668945312 665.333984375 172.668945312 709.333984375 172.001953125 744.000976562 c 2
 172.001953125 747.000976562 l 2
 172.001953125 751.66796875 173.001953125 756.000976562 175.001953125 760.000976562 c 0
 177.668945312 764.000976562 181.001953125 766.66796875 185.001953125 768.000976562 c 0
 194.14453125 771.4296875 203.532226562 773.14453125 213.1640625 773.14453125 c 0
 214.76953125 773.14453125 216.381835938 773.096679688 218.000976562 773.000976562 c 0
 228.000976562 773.000976562 237.000976562 770.66796875 245.000976562 766.000976562 c 0
 248.333984375 764.000976562 251.333984375 760.66796875 254.000976562 756.000976562 c 0
 256.66796875 750.66796875 258.000976562 744.334960938 258.000976562 737.001953125 c 0
 258.66796875 729.001953125 259.000976562 715.668945312 259.000976562 697.001953125 c 0
 259.000976562 678.334960938 258.333984375 642.66796875 257.000976562 590.000976562 c 0
 255.66796875 537.333984375 253.666992188 499.333984375 251 476.000976562 c 0
EndSplineSet
Validated: 524289
EndChar

StartChar: numbersign
Encoding: 35 35 4
Width: 590
GlyphClass: 2
Flags: HMW
HStem: 200 63.999 454.998 65.002 695.002 20G
LayerCount: 2
Fore
SplineSet
255.005859375 454.998046875 m 1
 216.000976562 263.999023438 l 1
 251.333984375 264.666015625 294.671875 264.998046875 346.004882812 264.998046875 c 2
 354.004882812 264.998046875 l 1
 366.004882812 324.998046875 377.671875 388.331054688 389.004882812 454.998046875 c 1
 255.005859375 454.998046875 l 1
212 200 m 1
 204 200 l 1
 188.666992188 122.666992188 178 70.6669921875 172 44 c 0
 168 32 159.666992188 22.3330078125 147 15 c 0
 139 10.3330078125 131.333007812 7.9990234375 124 7.9990234375 c 0
 120.666992188 7.33203125 117.333984375 7.6650390625 114.000976562 8.998046875 c 0
 104.66796875 10.998046875 97.66796875 17.666015625 93.0009765625 28.9990234375 c 0
 90.333984375 35.666015625 89 42.3330078125 89 49 c 0
 89 55.6669921875 90.0009765625 62.6669921875 92.0009765625 70 c 0
 97.333984375 86.6669921875 107.666992188 129.666992188 123 199 c 1
 81 199 l 2
 65.6669921875 199 54.6669921875 201.666992188 48 207 c 0
 42 211.666992188 39 218 39 226 c 2
 39 228 l 2
 39.6669921875 236.666992188 42.6669921875 243.666992188 48 249 c 0
 54 255.666992188 64.3330078125 259.333984375 79 260.000976562 c 0
 83.6669921875 260.66796875 91.6669921875 261.000976562 103 261.000976562 c 0
 114.333007812 261.000976562 125.333007812 261.333984375 136 262.000976562 c 1
 174 454.000976562 l 1
 162 454.000976562 l 1
 120 453.000976562 l 1
 117 453.000976562 l 2
 105 452.333984375 95.6669921875 455.000976562 89 461.000976562 c 0
 82.3330078125 466.333984375 79 473.333984375 79 482.000976562 c 2
 79 485.000976562 l 2
 79 493.000976562 82 500.000976562 88 506.000976562 c 0
 94.6669921875 512.66796875 105.333007812 516.334960938 120 517.001953125 c 0
 132.666992188 517.668945312 152.000976562 518.001953125 178.000976562 518.001953125 c 2
 186.000976562 518.001953125 l 1
 216.000976562 680.001953125 l 2
 220.66796875 694.001953125 227.334960938 703.668945312 236.001953125 709.001953125 c 0
 242.668945312 713.001953125 249.3359375 715.001953125 256.002929688 715.001953125 c 0
 258.669921875 715.001953125 261.669921875 714.668945312 265.002929688 714.001953125 c 0
 277.002929688 711.334960938 286.002929688 705.66796875 292.002929688 697.000976562 c 0
 295.3359375 691.66796875 297.002929688 685.000976562 297.002929688 677.000976562 c 0
 297.669921875 672.333984375 297.336914062 667.666992188 296.00390625 663 c 2
 267.00390625 520 l 1
 400.00390625 520 l 1
 428.00390625 673 l 2
 432.670898438 687 439.337890625 696.666992188 448.004882812 702 c 0
 454.004882812 706 460.337890625 708 467.004882812 708 c 0
 470.337890625 707.333007812 474.004882812 706.666015625 478.004882812 705.999023438 c 0
 490.004882812 703.33203125 499.004882812 697.999023438 505.004882812 689.999023438 c 0
 508.337890625 685.33203125 510.004882812 679.33203125 510.004882812 671.999023438 c 0
 510.004882812 667.33203125 509.337890625 661.999023438 508.004882812 655.999023438 c 0
 500.671875 627.999023438 491.671875 582.999023438 481.004882812 520.999023438 c 1
 493.004882812 520.999023438 l 1
 504.004882812 520.999023438 l 2
 518.004882812 520.999023438 529.337890625 517.33203125 538.004882812 509.999023438 c 0
 546.671875 502.666015625 551.338867188 495.333007812 552.005859375 488 c 0
 551.338867188 479.333007812 548.005859375 471.666015625 542.005859375 464.999023438 c 0
 536.005859375 458.999023438 526.338867188 455.665039062 513.005859375 454.998046875 c 2
 468.005859375 454.998046875 l 1
 436.005859375 263.999023438 l 1
 489.004882812 263.999023438 l 2
 501.671875 263.999023438 510.005859375 261.666015625 514.005859375 256.999023438 c 0
 518.005859375 252.33203125 520.338867188 245.33203125 521.005859375 235.999023438 c 0
 521.005859375 225.33203125 519.005859375 217.33203125 515.005859375 211.999023438 c 0
 510.338867188 205.33203125 501.671875 201.999023438 489.004882812 201.999023438 c 2
 425.004882812 201.999023438 l 1
 411.004882812 121.33203125 401.004882812 67.33203125 395.004882812 39.9990234375 c 0
 390.337890625 28.666015625 382.337890625 19.9990234375 371.004882812 13.9990234375 c 0
 363.671875 9.9990234375 356.338867188 7.9990234375 349.005859375 7.9990234375 c 0
 345.672851562 7.33203125 342.005859375 7.6650390625 338.005859375 8.998046875 c 0
 328.005859375 11.6650390625 320.672851562 17.998046875 316.005859375 27.998046875 c 0
 313.338867188 33.998046875 312.005859375 39.998046875 312.005859375 45.998046875 c 0
 312.005859375 51.998046875 313.005859375 58.6650390625 315.005859375 65.998046875 c 0
 321.672851562 92.6650390625 331.005859375 137.665039062 343.005859375 200.998046875 c 1
 331.005859375 200.998046875 l 1
 212 200 l 1
EndSplineSet
Validated: 524289
EndChar

StartChar: dollar
Encoding: 36 36 5
Width: 590
GlyphClass: 2
Flags: HMW
HStem: -18.9971 64.9971 368 63.0029 653 59<329.996 338.998 329.996 338.998>
VStem: 87.999 72.999 267.998 58 267.998 63.002 446.997 73.999
LayerCount: 2
Fore
SplineSet
442.498046875 245.50390625 m 0xfa
 439.498046875 257.170898438 433.998046875 269.337890625 425.998046875 282.004882812 c 0
 417.998046875 294.671875 406.331054688 306.338867188 390.998046875 317.005859375 c 0
 375.665039062 327.005859375 357.665039062 336.005859375 336.998046875 344.005859375 c 2
 325.998046875 349.005859375 l 1
 325.998046875 335.005859375 l 1
 324.997070312 187.005859375 l 2
 324.330078125 132.338867188 323.663085938 89.671875 322.99609375 59.0048828125 c 1
 335.997070312 65 l 2
 366.6640625 79 392.6640625 98.337890625 413.997070312 123.004882812 c 0
 435.997070312 147.671875 446.997070312 176.004882812 446.997070312 208.004882812 c 0
 446.997070312 221.337890625 445.498046875 233.836914062 442.498046875 245.50390625 c 0xfa
188.99609375 469.002929688 m 0
 205.663085938 451.669921875 228.330078125 439.002929688 256.997070312 431.002929688 c 2
 267.998046875 429.002929688 l 1xf6
 268.665039062 483.002929688 268.997070312 551.002929688 268.997070312 633.002929688 c 2
 268.997070312 646.002929688 l 1
 256.997070312 643.002929688 l 2
 229.6640625 633.669921875 207.331054688 619.336914062 189.998046875 600.00390625 c 0
 170.665039062 581.336914062 160.998046875 558.336914062 160.998046875 531.00390625 c 0
 160.998046875 507.00390625 170.329101562 486.3359375 188.99609375 469.002929688 c 0
191.998046875 -11 m 0
 171.998046875 -5.6669921875 155 2 141 12 c 0
 112.333007812 30.6669921875 91.3330078125 52.333984375 78 77.0009765625 c 0
 72.6669921875 89.0009765625 70 99.333984375 70 108.000976562 c 0
 70 119.333984375 75.3330078125 127.666992188 86 133 c 0
 93.3330078125 136.333007812 98.666015625 138.333007812 101.999023438 139 c 0
 105.33203125 139.666992188 107.999023438 140 109.999023438 140 c 2
 115.999023438 140 l 2
 119.999023438 140 124.166015625 138.166992188 128.499023438 134.5 c 0
 132.83203125 130.833007812 137.665039062 125 142.998046875 117 c 0
 156.998046875 95 173.331054688 77.6669921875 191.998046875 65 c 0
 208.665039062 52.3330078125 229.6640625 46 254.997070312 46 c 2
 256.997070312 46 l 1
 265.998046875 46 l 1
 267.331054688 164 267.998046875 266.666992188 267.998046875 354 c 2
 267.998046875 363 l 1
 259.331054688 363.666992188 251.498046875 364.5 244.498046875 365.5 c 2
 226.998046875 368 l 2
 206.331054688 370.666992188 186.998046875 376.666992188 168.998046875 386 c 0
 150.331054688 395.333007812 135.331054688 406.666015625 123.998046875 419.999023438 c 0
 112.665039062 433.33203125 103.83203125 447.499023438 97.4990234375 462.499023438 c 0
 91.166015625 477.499023438 87.9990234375 491.999023438 87.9990234375 505.999023438 c 0
 87.9990234375 528.666015625 91.666015625 550.499023438 98.9990234375 571.499023438 c 0
 106.33203125 592.499023438 116.999023438 611.999023438 130.999023438 629.999023438 c 0
 144.999023438 647.999023438 163.666015625 663.666015625 186.999023438 676.999023438 c 0
 208.999023438 690.33203125 233.997070312 699.665039062 261.997070312 704.998046875 c 2
 267.998046875 705.998046875 l 1xfa
 269.331054688 727.331054688 269.999023438 749.331054688 269.999023438 771.998046875 c 0
 270.666015625 786.665039062 273.166015625 797.83203125 277.499023438 805.499023438 c 0
 281.83203125 813.166015625 288.999023438 816.999023438 298.999023438 816.999023438 c 2
 300.999023438 816.999023438 l 2
 311.666015625 817.666015625 319.333007812 813.999023438 324 805.999023438 c 0
 328.666992188 798.666015625 331 788.333007812 331 775 c 2
 331 713 l 1xf6
 338.998046875 712 l 2
 352.331054688 711.333007812 370.666015625 708 393.999023438 702 c 0
 419.33203125 696 438.33203125 690.666992188 450.999023438 686 c 0
 460.999023438 682.666992188 468.331054688 677 472.998046875 669 c 0
 476.998046875 662.333007812 478.999023438 655.666015625 478.999023438 648.999023438 c 0
 478.999023438 646.999023438 478.666015625 644.666015625 477.999023438 641.999023438 c 0
 477.33203125 635.999023438 475.665039062 631.666015625 472.998046875 628.999023438 c 0
 469.665039062 626.33203125 466.1640625 624.83203125 462.497070312 624.499023438 c 0
 458.830078125 624.166015625 455.331054688 623.999023438 451.998046875 623.999023438 c 0
 438.665039062 623.999023438 423.998046875 627.666015625 407.998046875 634.999023438 c 0
 399.331054688 638.999023438 389.498046875 642.83203125 378.498046875 646.499023438 c 0
 367.498046875 650.166015625 354.331054688 652.333007812 338.998046875 653 c 2
 329.99609375 653 l 1
 325.998046875 423 l 1xfa
 333.998046875 421 l 2
 361.331054688 417.666992188 385.6640625 411 406.997070312 401 c 0
 430.330078125 391 448.830078125 379.666992188 462.497070312 367 c 0
 476.1640625 354.333007812 487.6640625 339.833007812 496.997070312 323.5 c 0
 506.330078125 307.166992188 512.663085938 291 515.99609375 275 c 0
 519.329101562 259 520.99609375 242.333007812 520.99609375 225 c 0
 520.99609375 195.666992188 515.829101562 167.833984375 505.49609375 141.500976562 c 0
 495.163085938 115.16796875 481.163085938 92.3349609375 463.49609375 73.001953125 c 0
 445.829101562 53.6689453125 424.99609375 37.001953125 400.99609375 23.001953125 c 0
 379.663085938 9.001953125 355.99609375 -1.6650390625 329.99609375 -8.998046875 c 2
 322.99609375 -11 l 1
 322.99609375 -17.998046875 l 2
 323.663085938 -57.3310546875 324.330078125 -83.998046875 324.997070312 -97.998046875 c 0
 323.6640625 -109.998046875 319.497070312 -119.165039062 312.497070312 -125.498046875 c 0
 305.497070312 -131.831054688 296.997070312 -134.998046875 286.997070312 -134.998046875 c 2
 285.997070312 -134.998046875 l 1
 284.997070312 -134.998046875 l 2
 276.997070312 -134.998046875 270.997070312 -131.998046875 266.997070312 -125.998046875 c 0
 263.6640625 -120.665039062 261.997070312 -112.998046875 261.997070312 -102.998046875 c 2
 261.997070312 -93.998046875 l 2
 263.330078125 -79.3310546875 263.997070312 -57.6640625 263.997070312 -28.9970703125 c 2
 263.997070312 -18.9970703125 l 1
 254.997070312 -18.9970703125 l 1
 250.997070312 -18.9970703125 l 2
 230.330078125 -18.9970703125 210.665039062 -16.3330078125 191.998046875 -11 c 0
EndSplineSet
Validated: 524289
EndChar

StartChar: percent
Encoding: 37 37 6
Width: 590
GlyphClass: 2
Flags: HMW
HStem: -18.001 57 180.998 54.0323 442 54.999 642.043 52.9575
VStem: 56.001 53.001 72.504 68.499 232.002 45.998 313.003 49.002 423.001 70.001 483.075 51.9275
LayerCount: 2
Fore
SplineSet
373.00390625 58.9990234375 m 0xf340
 381.670898438 46.9990234375 397.337890625 40.33203125 420.004882812 38.9990234375 c 2
 423.000976562 38.9990234375 l 2xf380
 441.000976562 38.9990234375 455.171875 45.166015625 465.504882812 57.4990234375 c 0
 475.837890625 69.83203125 481.670898438 85.6650390625 483.00390625 104.998046875 c 2
 483.00390625 105.998046875 l 1
 483.00390625 108.998046875 l 2
 483.051757812 110.474609375 483.075195312 111.9296875 483.075195312 113.362304688 c 0
 483.075195312 131.977539062 479.051757812 146.85546875 471.00390625 157.998046875 c 0
 459.670898438 173.331054688 442.337890625 180.998046875 419.004882812 180.998046875 c 0
 401.004882812 180.998046875 387.004882812 173.998046875 377.004882812 159.998046875 c 0
 367.671875 145.998046875 362.671875 128.331054688 362.004882812 106.998046875 c 2
 362.004882812 102.998046875 l 2
 361.953125 101.561523438 361.927734375 100.1484375 361.927734375 98.7587890625 c 0
 361.927734375 82.0966796875 365.619140625 68.8447265625 373.00390625 58.9990234375 c 0xf340
358.001953125 -0.5009765625 m 0
 342.668945312 11.166015625 331.334960938 25.9990234375 324.001953125 43.9990234375 c 0
 316.668945312 61.9990234375 313.00390625 81.33203125 313.00390625 101.999023438 c 2
 313.00390625 103.999023438 l 2
 313.00390625 142.666015625 322.670898438 174.166015625 342.00390625 198.499023438 c 0
 361.336914062 222.83203125 389.336914062 234.999023438 426.00390625 234.999023438 c 0
 427.00390625 235.01953125 427.999023438 235.030273438 428.98828125 235.030273438 c 0
 459.64453125 235.030273438 484.982421875 225.01953125 505.002929688 204.999023438 c 0
 515.002929688 194.33203125 522.669921875 179.999023438 528.002929688 161.999023438 c 0
 532.669921875 147.999023438 535.002929688 132.33203125 535.002929688 114.999023438 c 0xf340
 535.002929688 110.999023438 534.669921875 104.999023438 534.002929688 96.9990234375 c 0
 532.002929688 58.33203125 521.3359375 29.33203125 502.002929688 9.9990234375 c 0
 482.669921875 -8.66796875 453.336914062 -18.0009765625 414.00390625 -18.0009765625 c 2
 411.00390625 -18.0009765625 l 2
 391.00390625 -18.0009765625 373.334960938 -12.16796875 358.001953125 -0.5009765625 c 0
121.004882812 517.999023438 m 0
 130.337890625 505.999023438 147.670898438 498.999023438 173.00390625 496.999023438 c 2
 174.00390625 496.999023438 l 2
 192.00390625 496.999023438 205.670898438 503.33203125 215.00390625 515.999023438 c 0
 224.336914062 528.666015625 229.669921875 544.999023438 231.002929688 564.999023438 c 0
 231.669921875 566.33203125 232.002929688 567.999023438 232.002929688 569.999023438 c 0
 231.3359375 593.33203125 226.002929688 610.999023438 216.002929688 622.999023438 c 0
 205.3359375 635.666015625 190.3359375 641.999023438 171.002929688 641.999023438 c 0
 170.162109375 642.028320312 169.329101562 642.04296875 168.504882812 642.04296875 c 0
 150.373046875 642.04296875 136.206054688 635.028320312 126.002929688 620.999023438 c 0
 116.669921875 607.666015625 111.002929688 589.999023438 109.002929688 567.999023438 c 2
 109.002929688 562.999023438 l 2xfb
 108.955078125 561.618164062 108.931640625 560.259765625 108.931640625 558.922851562 c 0
 108.931640625 541.545898438 112.95703125 527.904296875 121.004882812 517.999023438 c 0
179.001953125 195 m 2
 324.001953125 472 l 2
 372.668945312 565.333007812 405.668945312 632.333007812 423.001953125 673 c 0
 431.001953125 685 442.334960938 691 457.001953125 691 c 0
 463.668945312 691 470.3359375 689.333007812 477.002929688 686 c 0
 487.669921875 680.666992188 493.002929688 673.666992188 493.002929688 665 c 0
 493.002929688 657.666992188 489.671875 648.666992188 483.004882812 638 c 0
 457.671875 597.333007812 401.336914062 493.666015625 314.00390625 326.999023438 c 0
 228.00390625 160.33203125 170.336914062 47.33203125 141.00390625 -12.0009765625 c 0
 129.670898438 -32.0009765625 118.00390625 -42.0009765625 106.00390625 -42.0009765625 c 0
 102.00390625 -42.0009765625 97.1708984375 -40.66796875 91.50390625 -38.0009765625 c 0
 85.8369140625 -35.333984375 81.3369140625 -31.833984375 78.00390625 -27.5009765625 c 0
 74.6708984375 -23.16796875 72.837890625 -17.5009765625 72.5048828125 -10.5009765625 c 0xf780
 72.4853515625 -10.08984375 72.4755859375 -9.6728515625 72.4755859375 -9.2509765625 c 0
 72.4755859375 -2.49609375 74.9853515625 5.5869140625 80.0048828125 14.9990234375 c 0
 94.0048828125 43.666015625 127.001953125 103.666992188 179.001953125 195 c 2
105.500976562 459.5 m 0
 89.16796875 471.166992188 76.8349609375 486 68.501953125 504 c 0
 60.1689453125 522 56.001953125 541.333007812 56.001953125 562 c 2
 56.001953125 564 l 2xfb
 56.001953125 602.666992188 66.6689453125 634.166992188 88.001953125 658.5 c 0
 109.334960938 682.833007812 139.334960938 695 178.001953125 695 c 0
 178.918945312 695.020507812 179.831054688 695.03125 180.73828125 695.03125 c 0
 208.8515625 695.03125 232.272460938 685.020507812 251.000976562 665 c 0
 260.333984375 654.333007812 267.333984375 640 272.000976562 622 c 0
 276.000976562 608 278.000976562 591.666992188 278.000976562 573 c 0
 278.000976562 526.333007812 268.000976562 492.333007812 248.000976562 471 c 0
 230.000976562 451.666992188 202.000976562 442 164.000976562 442 c 2
 162.000976562 442 l 2
 140.66796875 442 121.833984375 447.833007812 105.500976562 459.5 c 0
EndSplineSet
Validated: 524289
EndChar

StartChar: ampersand
Encoding: 38 38 7
Width: 590
GlyphClass: 2
Flags: HMW
HStem: -32 74.001 655.001 59.1001
VStem: 47.003 80.0029 133.003 76.002 368.005 63.1093
LayerCount: 2
Fore
SplineSet
530 11 m 2
 530 3 l 2
 528 -13 523.333007812 -23 516 -27 c 0
 512 -29.6669921875 507.333007812 -31 502 -31 c 0
 497.333007812 -31 491.666015625 -29.3330078125 484.999023438 -26 c 0
 471.666015625 -19.3330078125 459.999023438 -7.3330078125 449.999023438 10 c 0
 447.999023438 13.3330078125 443.999023438 23 437.999023438 39 c 0
 431.999023438 55 426.999023438 67 422.999023438 75 c 2
 415.999023438 90 l 1
 395.33203125 61.3330078125 383.33203125 45 379.999023438 41 c 0
 376.666015625 37.6669921875 371.333007812 32 364 24 c 0
 356.666992188 16 350.333984375 10 345.000976562 6 c 0
 339.66796875 2.6669921875 332.66796875 -2 324.000976562 -8 c 0
 316.000976562 -14 308.000976562 -18.3330078125 300.000976562 -21 c 0
 292.000976562 -23.6669921875 282.66796875 -26 272.000976562 -28 c 0
 260.66796875 -30.6669921875 249.334960938 -32 238.001953125 -32 c 0
 202.668945312 -32 170.3359375 -23 141.002929688 -5 c 0
 111.669921875 13 88.669921875 37 72.0029296875 67 c 0
 55.3359375 97.6669921875 47.0029296875 130.333984375 47.0029296875 165.000976562 c 0
 47.0029296875 219.000976562 57.0029296875 265.333984375 77.0029296875 304.000976562 c 0
 101.002929688 352.000976562 141.002929688 388.333984375 197.002929688 413.000976562 c 2
 207.002929688 418.000976562 l 1
 197.002929688 434.000976562 187.669921875 449.000976562 179.002929688 463.000976562 c 0
 170.3359375 476.333984375 164.3359375 486.000976562 161.002929688 492.000976562 c 0
 157.669921875 498.000976562 153.669921875 505.333984375 149.002929688 514.000976562 c 0
 144.3359375 522.66796875 141.3359375 530.000976562 140.002929688 536.000976562 c 0
 135.3359375 554.000976562 133.002929688 571.66796875 133.002929688 589.000976562 c 0
 133.002929688 600.333984375 134.669921875 611.333984375 138.002929688 622.000976562 c 0
 140.669921875 632.66796875 145.669921875 643.66796875 153.002929688 655.000976562 c 0
 160.3359375 666.333984375 169.3359375 676.333984375 180.002929688 685.000976562 c 0
 190.669921875 693.66796875 205.002929688 700.66796875 223.002929688 706.000976562 c 0
 240.3359375 711.333984375 260.3359375 714.000976562 283.002929688 714.000976562 c 0
 284.870117188 714.067382812 286.73046875 714.100585938 288.583984375 714.100585938 c 0
 305.263671875 714.100585938 321.403320312 711.400390625 337.002929688 706.000976562 c 0
 355.002929688 700.000976562 371.002929688 691.66796875 385.002929688 681.000976562 c 0
 399.002929688 669.66796875 410.3359375 655.334960938 419.002929688 638.001953125 c 0
 427.002929688 620.668945312 431.002929688 601.3359375 431.002929688 580.002929688 c 0
 431.077148438 577.631835938 431.114257812 575.28515625 431.114257812 572.962890625 c 0
 431.114257812 554.396484375 428.744140625 537.41015625 424.00390625 522.00390625 c 0
 418.670898438 504.00390625 412.00390625 489.336914062 404.00390625 478.00390625 c 0
 396.00390625 466.670898438 386.00390625 455.670898438 374.00390625 445.00390625 c 0
 362.00390625 434.336914062 351.00390625 425.669921875 341.00390625 419.002929688 c 0
 330.336914062 412.3359375 318.00390625 405.668945312 304.00390625 399.001953125 c 2
 295.00390625 395.001953125 l 1
 300.00390625 386.001953125 l 2
 312.670898438 364.668945312 333.337890625 333.668945312 362.004882812 293.001953125 c 0
 390.671875 252.334960938 409.004882812 225.66796875 417.004882812 213.000976562 c 2
 426.004882812 198.000976562 l 1
 436.004882812 217.333984375 443.671875 233.333984375 449.004882812 246.000976562 c 0
 455.004882812 258.66796875 459.671875 268.66796875 463.004882812 276.000976562 c 0
 466.337890625 283.333984375 469.004882812 288.666992188 471.004882812 292 c 0
 481.671875 308 491.338867188 317.666992188 500.005859375 321 c 0
 502.672851562 321.666992188 505.672851562 322 509.005859375 322 c 0
 515.005859375 322 521.338867188 320.333007812 528.005859375 317 c 0
 536.005859375 313.666992188 541.005859375 306.333984375 543.005859375 295.000976562 c 0
 543.672851562 291.66796875 544.005859375 288.66796875 544.005859375 286.000976562 c 0
 544.005859375 276.000976562 541.005859375 264.66796875 535.005859375 252.000976562 c 0
 532.338867188 246.66796875 522.671875 233.66796875 506.004882812 213.000976562 c 0
 489.337890625 192.333984375 475.337890625 173.333984375 464.004882812 156.000976562 c 2
 461.004882812 151.000976562 l 1
 471.671875 133.000976562 491.004882812 99.333984375 519.004882812 50.0009765625 c 0
 526.337890625 38.0009765625 530 25 530 11 c 2
209.004882812 572.000976562 m 0
 209.004882812 554.000976562 213.671875 534.333984375 223.004882812 513.000976562 c 0
 233.004882812 492.333984375 244.671875 474.000976562 258.004882812 458.000976562 c 2
 262.004882812 453.000976562 l 1
 268.004882812 455.000976562 l 2
 283.337890625 459.66796875 296.337890625 464.66796875 307.004882812 470.000976562 c 0
 317.671875 475.333984375 328.004882812 482.333984375 338.004882812 491.000976562 c 0
 348.004882812 499.66796875 355.337890625 510.66796875 360.004882812 524.000976562 c 0
 365.337890625 536.66796875 368.004882812 551.66796875 368.004882812 569.000976562 c 0
 368.004882812 597.000976562 359.337890625 618.333984375 342.004882812 633.000976562 c 0
 324.671875 647.66796875 304.338867188 655.000976562 281.005859375 655.000976562 c 0
 254.338867188 655.000976562 235.005859375 646.000976562 223.005859375 628.000976562 c 0
 213.672851562 614.000976562 209.004882812 595.333984375 209.004882812 572.000976562 c 0
127.005859375 174.000976562 m 0
 127.005859375 136.66796875 137.338867188 105.66796875 158.005859375 81.0009765625 c 0
 178.672851562 55.0009765625 205.672851562 42.0009765625 239.005859375 42.0009765625 c 0
 256.338867188 42.66796875 274.338867188 46.0009765625 293.005859375 52.0009765625 c 0
 299.672851562 54.0009765625 306.672851562 57.66796875 314.005859375 63.0009765625 c 0
 322.005859375 67.66796875 328.005859375 71.66796875 332.005859375 75.0009765625 c 0
 336.005859375 78.333984375 341.005859375 83.333984375 347.005859375 90.0009765625 c 0
 353.005859375 96.66796875 357.005859375 101.334960938 359.005859375 104.001953125 c 0
 361.672851562 106.001953125 365.33984375 110.668945312 370.006835938 118.001953125 c 0
 374.673828125 125.334960938 378.673828125 131.001953125 382.006835938 135.001953125 c 1
 368.006835938 165.001953125 357.006835938 187.334960938 349.006835938 202.001953125 c 0
 340.33984375 218.001953125 324.006835938 243.334960938 300.006835938 278.001953125 c 0
 276.006835938 312.668945312 257.33984375 340.668945312 244.006835938 362.001953125 c 1
 236.006835938 359.001953125 l 2
 215.33984375 349.001953125 197.672851562 337.334960938 183.005859375 324.001953125 c 0
 167.672851562 310.668945312 156.005859375 295.668945312 148.005859375 279.001953125 c 0
 140.672851562 262.334960938 135.33984375 245.66796875 132.006835938 229.000976562 c 0
 128.673828125 212.333984375 127.005859375 194.000976562 127.005859375 174.000976562 c 0
EndSplineSet
Validated: 524289
EndChar

StartChar: quotesingle
Encoding: 39 39 8
Width: 590
GlyphClass: 2
Flags: HMW
HStem: 456 307.126
VStem: 253.001 84
LayerCount: 2
Fore
SplineSet
331 487 m 0
 329.666992188 476.333007812 325.334960938 468.333007812 318.001953125 463 c 0
 310.668945312 458.333007812 303.001953125 456 295.001953125 456 c 2
 293.001953125 456 l 2
 281.668945312 456.666992188 271.668945312 460.333984375 263.001953125 467.000976562 c 0
 256.334960938 472.333984375 253.001953125 479.333984375 253.001953125 488.000976562 c 2
 253.001953125 491.000976562 l 1
 253.001953125 492.000976562 l 2
 254.848632812 519.694335938 255.771484375 551.71875 255.771484375 588.075195312 c 0
 255.771484375 630.48828125 254.514648438 678.796875 252.001953125 733.000976562 c 2
 252.001953125 735.000976562 l 2
 252.001953125 740.333984375 253.001953125 745.000976562 255.001953125 749.000976562 c 0
 257.668945312 753.000976562 261.001953125 755.66796875 265.001953125 757.000976562 c 0
 274.334960938 761.083984375 283.922851562 763.125976562 293.765625 763.125976562 c 0
 295.171875 763.125976562 296.583984375 763.083984375 298.000976562 763.000976562 c 0
 308.000976562 762.333984375 317.000976562 759.666992188 325.000976562 755 c 0
 329.000976562 753 332.333984375 749.666992188 335.000976562 745 c 0
 337.000976562 740.333007812 338.000976562 734 338.000976562 726 c 0
 338.66796875 718 339.000976562 705 339.000976562 687 c 0
 339.000976562 669 338.333984375 637 337.000976562 591 c 0
 335.66796875 545 333.666992188 510.333007812 331 487 c 0
EndSplineSet
Validated: 524289
EndChar

StartChar: parenleft
Encoding: 40 40 9
Width: 590
GlyphClass: 2
Flags: HMW
HStem: -122 64.999 743 61<394.667 408>
VStem: 155.856 78.1449
LayerCount: 2
Fore
SplineSet
434 -93 m 0
 434 -101 430.666992188 -107.666992188 424 -113 c 0
 418 -119 411.333007812 -122 404 -122 c 0
 361.333007812 -121.333007812 322.666015625 -105.666015625 287.999023438 -74.9990234375 c 0
 253.33203125 -44.33203125 224.999023438 -1.33203125 202.999023438 54.0009765625 c 0
 180.999023438 110.000976562 166.33203125 174.333984375 158.999023438 247.000976562 c 0
 156.999023438 267.000976562 155.999023438 292.000976562 155.999023438 322.000976562 c 0
 155.903320312 326.288085938 155.85546875 330.731445312 155.85546875 335.331054688 c 0
 155.85546875 362.921875 157.5703125 396.145507812 160.999023438 435.000976562 c 0
 168.33203125 512.333984375 181.33203125 575.666992188 199.999023438 625 c 0
 207.999023438 647 218.999023438 668.333007812 232.999023438 689 c 0
 246.999023438 709.666992188 262.999023438 728.666992188 280.999023438 746 c 0
 298.33203125 763.333007812 317.999023438 777.333007812 339.999023438 788 c 0
 362.666015625 798.666992188 384.333007812 804 405 804 c 0
 415 804 422.333007812 802 427 798 c 0
 432.333007812 793.333007812 435 785.333007812 435 774 c 0
 435 762.666992188 432.333007812 754.666992188 427 750 c 0
 421 745.333007812 413 743 403 743 c 0
 383.666992188 743 365.666992188 737.333007812 349 726 c 0
 333 715.333007812 319 700.666015625 307 681.999023438 c 0
 283.666992188 647.33203125 266.333984375 604.999023438 255.000976562 554.999023438 c 0
 246.333984375 520.33203125 240.333984375 472.33203125 237.000976562 410.999023438 c 0
 235.000976562 379.666015625 234.000976562 351.666015625 234.000976562 326.999023438 c 0
 234.66796875 301.666015625 235.66796875 279.666015625 237.000976562 260.999023438 c 0
 240.333984375 220.33203125 247.666992188 180.33203125 259 140.999023438 c 0
 269.666992188 101.666015625 282.666992188 67.9990234375 298 39.9990234375 c 0
 312.666992188 11.33203125 329.333984375 -12.0009765625 348.000976562 -30.0009765625 c 0
 367.333984375 -48.0009765625 386.000976562 -57.0009765625 404.000976562 -57.0009765625 c 0
 414.000976562 -57.0009765625 421.66796875 -59.333984375 427.000976562 -64.0009765625 c 0
 431.66796875 -68.66796875 434 -78.3330078125 434 -93 c 0
EndSplineSet
Validated: 524289
EndChar

StartChar: parenright
Encoding: 41 41 10
Width: 590
GlyphClass: 2
Flags: HMW
HStem: -122 65.001 743.001 61
VStem: 356.999 78
LayerCount: 2
Fore
SplineSet
432 247 m 0
 424.666992188 174.333007812 410 110 388 54 c 0
 366 -1.3330078125 337.666992188 -44.3330078125 303 -75 c 0
 267.666992188 -106.333007812 229 -122 187 -122 c 0
 180.333007812 -121.333007812 173.666015625 -118.333007812 166.999023438 -113 c 0
 159.666015625 -107.666992188 155.999023438 -101 155.999023438 -93 c 0
 155.999023438 -78.3330078125 158.666015625 -68.666015625 163.999023438 -63.9990234375 c 0
 168.666015625 -59.33203125 176.333007812 -56.9990234375 187 -56.9990234375 c 0
 205 -56.9990234375 223.333007812 -47.9990234375 242 -29.9990234375 c 0
 260.666992188 -11.33203125 277.666992188 12.0009765625 293 40.0009765625 c 0
 307.666992188 68.0009765625 320.666992188 101.66796875 332 141.000976562 c 0
 343.333007812 180.333984375 350.666015625 220.333984375 353.999023438 261.000976562 c 0
 355.999023438 281.000976562 356.999023438 303.333984375 356.999023438 328.000976562 c 0
 356.999023438 352.66796875 355.999023438 380.334960938 353.999023438 411.001953125 c 0
 350.666015625 471.668945312 344.666015625 519.668945312 335.999023438 555.001953125 c 0
 323.999023438 605.001953125 306.666015625 647.668945312 283.999023438 683.001953125 c 0
 272.666015625 700.334960938 258.666015625 714.66796875 241.999023438 726.000976562 c 0
 225.33203125 737.333984375 207.665039062 743.000976562 188.998046875 743.000976562 c 0
 178.998046875 743.000976562 170.665039062 745.333984375 163.998046875 750.000976562 c 0
 158.665039062 754.000976562 155.998046875 761.66796875 155.998046875 773.000976562 c 0
 155.331054688 780.333984375 155.998046875 786.000976562 157.998046875 790.000976562 c 0
 159.998046875 794.66796875 162.331054688 797.66796875 164.998046875 799.000976562 c 0
 170.998046875 802.333984375 177.998046875 804.000976562 185.998046875 804.000976562 c 0
 207.998046875 804.000976562 229.665039062 798.66796875 250.998046875 788.000976562 c 0
 272.331054688 777.333984375 291.998046875 763.333984375 309.998046875 746.000976562 c 0
 327.998046875 728.66796875 343.998046875 709.66796875 357.998046875 689.000976562 c 0
 371.998046875 667.66796875 382.998046875 646.334960938 390.998046875 625.001953125 c 0
 409.665039062 575.668945312 422.33203125 512.3359375 428.999023438 435.002929688 c 0
 432.999023438 389.669921875 434.999023438 352.002929688 434.999023438 322.002929688 c 0
 434.999023438 292.002929688 434 267 432 247 c 0
EndSplineSet
Validated: 524289
EndChar

StartChar: asterisk
Encoding: 42 42 11
Width: 590
GlyphClass: 2
Flags: HMW
HStem: 303 84<89.332 92 89 108.999> 315.998 56.999 315.998 69.999
VStem: 362 71.9951
LayerCount: 2
Fore
SplineSet
424 132 m 0x50
 418 128 410.33203125 126.333007812 400.999023438 127 c 0
 392.33203125 127 384.33203125 128.666992188 376.999023438 132 c 0
 369.666015625 135.333007812 364.666015625 140.666015625 361.999023438 147.999023438 c 0
 353.33203125 175.999023438 335.665039062 215.33203125 308.998046875 265.999023438 c 2
 299.998046875 282.999023438 l 1
 291.998046875 265.999023438 l 2
 259.998046875 203.33203125 240.331054688 161.999023438 232.998046875 141.999023438 c 0
 230.998046875 136.666015625 227.665039062 132.333007812 222.998046875 129 c 0
 218.331054688 126.333007812 212.998046875 124.666015625 206.998046875 123.999023438 c 2
 201.998046875 123.999023438 l 2
 189.998046875 123.999023438 179.998046875 126.33203125 171.998046875 130.999023438 c 0
 167.998046875 132.999023438 164.331054688 136.666015625 160.998046875 141.999023438 c 0
 157.665039062 147.999023438 155.33203125 154.666015625 153.999023438 161.999023438 c 2
 153.999023438 164.999023438 l 2
 153.999023438 171.666015625 155.666015625 178.333007812 158.999023438 185 c 2
 234.999023438 309 l 1
 168.33203125 305 121.999023438 303 95.9990234375 303 c 0
 82.666015625 303 72.3330078125 307.333007812 65 316 c 0
 57.6669921875 324 54 333 54 343 c 2
 54 346 l 2
 54 356 56.6669921875 365.333007812 62 374 c 0
 64.6669921875 378.666992188 68.333984375 382 73.0009765625 384 c 0
 78.333984375 386 83.6669921875 387 89 387 c 2
 92 387 l 2x90
 122.666992188 384.333007812 174 380.666015625 246 375.999023438 c 1
 237 391.999023438 l 2
 208.333007812 440.666015625 184.666015625 477.999023438 165.999023438 503.999023438 c 0
 159.33203125 515.33203125 155.999023438 526.33203125 155.999023438 536.999023438 c 2
 155.999023438 542.999023438 l 2
 157.33203125 553.666015625 161.665039062 560.666015625 168.998046875 563.999023438 c 1
 168.998046875 564.999023438 l 1
 174.331054688 568.33203125 180.6640625 569.999023438 187.997070312 569.999023438 c 0
 195.330078125 570.666015625 202.997070312 568.666015625 210.997070312 563.999023438 c 0
 218.997070312 559.33203125 224.997070312 552.665039062 228.997070312 543.998046875 c 0
 236.330078125 527.331054688 258.663085938 483.6640625 295.99609375 412.997070312 c 1
 303.99609375 427.997070312 l 2
 330.663085938 473.997070312 350.99609375 512.330078125 364.99609375 542.997070312 c 0
 368.99609375 550.997070312 374.663085938 557.330078125 381.99609375 561.997070312 c 0
 388.928710938 566.50390625 395.681640625 568.756835938 402.254882812 568.756835938 c 0
 408.322265625 568.756835938 414.236328125 566.836914062 419.99609375 562.997070312 c 0
 424.663085938 560.330078125 428.663085938 556.330078125 431.99609375 550.997070312 c 0
 435.329101562 545.6640625 436.99609375 538.6640625 436.99609375 529.997070312 c 0
 436.99609375 521.330078125 434.329101562 512.997070312 428.99609375 504.997070312 c 0
 407.663085938 473.6640625 383.99609375 434.6640625 357.99609375 387.997070312 c 2
 349.99609375 372.997070312 l 1
 366.99609375 372.997070312 l 2x50
 426.329101562 372.997070312 468.662109375 376.6640625 493.995117188 383.997070312 c 0
 497.328125 385.330078125 500.661132812 385.997070312 503.994140625 385.997070312 c 0
 511.327148438 385.997070312 517.66015625 383.6640625 522.993164062 378.997070312 c 0
 531.66015625 370.997070312 536.327148438 362.6640625 536.994140625 353.997070312 c 0
 536.994140625 348.6640625 536.327148438 343.331054688 534.994140625 337.998046875 c 0
 531.661132812 325.331054688 526.328125 316.998046875 518.995117188 312.998046875 c 0
 516.328125 311.665039062 513.661132812 310.998046875 510.994140625 310.998046875 c 0
 507.661132812 310.331054688 504.994140625 310.331054688 502.994140625 310.998046875 c 0
 485.661132812 314.331054688 454.994140625 315.998046875 410.994140625 315.998046875 c 0x30
 404.328125 316.33203125 395.995117188 316.499023438 385.995117188 316.499023438 c 0
 375.995117188 316.499023438 364.328125 316.33203125 350.995117188 315.998046875 c 1
 426.995117188 185.998046875 l 2
 432.328125 174.665039062 434.995117188 164.665039062 434.995117188 155.998046875 c 0
 434.328125 154.665039062 433.995117188 152.998046875 433.995117188 150.998046875 c 0
 433.328125 141.665039062 430 135.333007812 424 132 c 0x50
EndSplineSet
Validated: 524289
EndChar

StartChar: plus
Encoding: 43 43 12
Width: 590
GlyphClass: 2
Flags: HMW
HStem: 367.001 63.999
VStem: 262.997 62.0029
LayerCount: 2
Fore
SplineSet
153 366 m 2
 139 366 129 369.333007812 123 376 c 0
 116.333007812 382 113 389.666992188 113 399 c 2
 113 402 l 2
 113.666992188 410.666992188 116.666992188 418 122 424 c 0
 128 430 137 433 149 433 c 2
 152 433 l 2
 199.333007812 431.666992188 233.330078125 431 253.997070312 431 c 2
 262.997070312 431 l 1
 262.997070312 441 l 2
 262.997070312 474.333007812 262.333007812 510.333007812 261 549 c 2
 261 553 l 2
 261 563.666992188 264 571.333984375 270 576.000976562 c 0
 275.333007812 580.000976562 283.333007812 582.000976562 294 582.000976562 c 2
 298 582.000976562 l 2
 307.333007812 582.000976562 315 580.000976562 321 576.000976562 c 0
 325.666992188 572.66796875 328 565.66796875 328 555.000976562 c 2
 328 550.000976562 l 2
 326 511.333984375 325 474.333984375 325 439.000976562 c 2
 325 430.000976562 l 1
 445 430.000976562 l 2
 457.666992188 430.000976562 466 427.66796875 470 423.000976562 c 0
 474.666992188 417.66796875 477.333984375 410.666992188 478.000976562 402 c 0
 477.333984375 396.666992188 476.666992188 392.000976562 476 388.000976562 c 0
 475.333007812 384.000976562 473.666015625 380 470.999023438 376 c 0
 467.666015625 370.666992188 460.666015625 368.000976562 449.999023438 368.000976562 c 2
 445.999023438 368.000976562 l 2
 434.666015625 369.333984375 418.666015625 370.000976562 397.999023438 370.000976562 c 0
 377.999023438 370.000976562 353.33203125 369.66796875 323.999023438 369.000976562 c 1
 323.999023438 359.000976562 l 1
 323.999023438 295.000976562 l 2
 324.666015625 270.333984375 325 255.333984375 325 250.000976562 c 0
 324.333007812 238.000976562 321.665039062 229.66796875 316.998046875 225.000976562 c 0
 312.331054688 220.333984375 305.6640625 217.666992188 296.997070312 217 c 0
 286.330078125 217.666992188 278.330078125 220 272.997070312 224 c 0
 266.330078125 228.666992188 262.997070312 237.333984375 262.997070312 250.000976562 c 2
 262.997070312 367.000976562 l 1
 253.997070312 367.000976562 l 1
 153 366 l 2
EndSplineSet
Validated: 524289
EndChar

StartChar: comma
Encoding: 44 44 13
Width: 590
GlyphClass: 2
Flags: HMW
VStem: 203 185.998
LayerCount: 2
Fore
SplineSet
239 -207 m 0
 227 -207 217.333007812 -203.333007812 210 -196 c 0
 206 -191.333007812 203.666992188 -185.666015625 203 -178.999023438 c 0
 202.333007812 -177.666015625 202 -176.666015625 202 -175.999023438 c 0
 202.666992188 -171.999023438 205 -165.999023438 209 -157.999023438 c 0
 223 -137.999023438 242.333007812 -93.666015625 267 -24.9990234375 c 0
 292.333007812 43.66796875 307.666015625 91.66796875 312.999023438 119.000976562 c 0
 314.33203125 125.66796875 317.665039062 131.000976562 322.998046875 135.000976562 c 0
 328.998046875 139.000976562 334.998046875 141.000976562 340.998046875 141.000976562 c 2
 342.998046875 141.000976562 l 2
 349.665039062 141.000976562 355.998046875 140.333984375 361.998046875 139.000976562 c 0
 370.665039062 136.333984375 377.665039062 131.333984375 382.998046875 124.000976562 c 0
 386.998046875 119.333984375 388.998046875 113.333984375 388.998046875 106.000976562 c 0
 388.998046875 104.66796875 388.665039062 102.000976562 387.998046875 98.0009765625 c 0
 381.331054688 65.333984375 366.998046875 15.333984375 344.998046875 -51.9990234375 c 0
 332.998046875 -89.33203125 322.998046875 -117.665039062 314.998046875 -136.998046875 c 0
 306.331054688 -155.665039062 299.6640625 -168.33203125 294.997070312 -174.999023438 c 0
 285.6640625 -187.666015625 273.6640625 -196.666015625 258.997070312 -201.999023438 c 0
 250.997070312 -205.33203125 244.333007812 -207 239 -207 c 0
EndSplineSet
Validated: 524289
EndChar

StartChar: hyphen
Encoding: 45 45 14
Width: 590
GlyphClass: 2
Flags: HMW
HStem: 252 68<183.998 195.665> 259 61
VStem: 150.998 289.002
LayerCount: 2
Fore
SplineSet
151 290 m 2x60
 151 301.333007812 154 309.333007812 160 314 c 0
 164.666992188 318 172 320 182 320 c 0
 220 320 265.333007812 320.333007812 318 321 c 0
 370.666992188 322.333007812 400.666992188 323 408 323 c 0
 420.666992188 323 429 320.666992188 433 316 c 0
 437 310.666992188 439.333007812 303.666992188 440 295 c 0
 440 284.333007812 438 276.333007812 434 271 c 0
 429.333007812 264.333007812 420.666015625 261 407.999023438 261 c 0
 399.33203125 261 365.665039062 259.666992188 306.998046875 257 c 0
 248.331054688 253.666992188 207.331054688 252 183.998046875 252 c 0xa0
 173.331054688 252.666992188 165.331054688 255 159.998046875 259 c 0
 153.998046875 264.333007812 150.998046875 273.333007812 150.998046875 286 c 2
 151 290 l 2x60
EndSplineSet
Validated: 524289
EndChar

StartChar: period
Encoding: 46 46 15
Width: 590
GlyphClass: 2
Flags: HMW
HStem: -4 134.053
VStem: 224.001 143.001
LayerCount: 2
Fore
SplineSet
297 -4 m 2
 288 -4 l 2
 287.086914062 -4.03515625 286.182617188 -4.052734375 285.287109375 -4.052734375 c 0
 269.166015625 -4.052734375 255.737304688 1.6318359375 245.000976562 13 c 0
 231.000976562 27.6669921875 224.000976562 44.6669921875 224.000976562 64 c 0
 224.000976562 81.3330078125 231.333984375 96.3330078125 246.000976562 109 c 0
 262.66796875 123 281.334960938 130 302.001953125 130 c 0
 302.984375 130.03515625 303.958007812 130.052734375 304.922851562 130.052734375 c 0
 322.274414062 130.052734375 336.633789062 124.368164062 348.001953125 113 c 0
 360.668945312 100.333007812 367.001953125 84.666015625 367.001953125 65.9990234375 c 0
 367.001953125 47.33203125 360.668945312 31.6650390625 348.001953125 18.998046875 c 0
 336.001953125 6.3310546875 319 -1.3330078125 297 -4 c 2
EndSplineSet
Validated: 524289
EndChar

StartChar: slash
Encoding: 47 47 16
Width: 590
GlyphClass: 2
Flags: W
LayerCount: 2
Fore
SplineSet
55 -9 m 0
 55 5 58.6669921875 17.6669921875 66 29 c 0
 163.333007812 189 246.666015625 331.333007812 315.999023438 456 c 0
 359.999023438 532.666992188 406.33203125 619.666992188 454.999023438 717 c 0
 459.666015625 725.666992188 465.666015625 732.333984375 472.999023438 737.000976562 c 0
 480.33203125 741.66796875 487.33203125 744.000976562 493.999023438 744.000976562 c 0
 501.33203125 744.000976562 508.999023438 742.333984375 516.999023438 739.000976562 c 0
 525.666015625 733.66796875 531.333007812 726.334960938 534 717.001953125 c 0
 534.666992188 715.001953125 535 712.334960938 535 709.001953125 c 0
 535 704.334960938 532.666992188 695.001953125 528 681.001953125 c 0
 510.666992188 646.334960938 462 562.66796875 382 430.000976562 c 0
 302 297.333984375 253.333007812 214.666992188 236 182 c 0
 228 166.666992188 210.666992188 131.666992188 184 77 c 0
 160 28.3330078125 145 -1.333984375 139 -12.0009765625 c 0
 129.666992188 -28.66796875 117.666992188 -40.3349609375 103 -47.001953125 c 0
 96.3330078125 -50.3349609375 90.3330078125 -52.001953125 85 -52.001953125 c 0
 79 -52.001953125 73.6669921875 -50.3349609375 69 -47.001953125 c 0
 61.6669921875 -43.001953125 57.333984375 -33.3349609375 56.0009765625 -18.001953125 c 0
 55.333984375 -14.6689453125 55 -11.6669921875 55 -9 c 0
EndSplineSet
Validated: 524289
EndChar

StartChar: zero
Encoding: 48 48 17
Width: 590
GlyphClass: 2
Flags: HMW
HStem: -14.998 65.001 646.003 61.999
VStem: 80.003 79 436.004 74.998
LayerCount: 2
Fore
SplineSet
81 391 m 0
 81.6669921875 418.333007812 83.333984375 441.83203125 86.0009765625 461.499023438 c 0
 88.66796875 481.166015625 92.3349609375 502.333007812 97.001953125 525 c 0
 101.668945312 547.666992188 107.001953125 567.666992188 113.001953125 585 c 0
 128.334960938 625.666992188 154.334960938 656.333984375 191.001953125 677.000976562 c 0
 224.334960938 697.66796875 265.001953125 708.000976562 313.001953125 708.000976562 c 0
 336.334960938 708.000976562 358.334960938 703.66796875 379.001953125 695.000976562 c 0
 401.001953125 686.333984375 421.001953125 673.500976562 439.001953125 656.500976562 c 0
 457.001953125 639.500976562 472.001953125 617.000976562 484.001953125 589.000976562 c 0
 496.001953125 561.000976562 503.668945312 529.000976562 507.001953125 493.000976562 c 0
 509.668945312 453.000976562 511.001953125 409.333984375 511.001953125 362.000976562 c 0
 511.001953125 326.000976562 509.834960938 288.16796875 507.501953125 248.500976562 c 0
 505.168945312 208.833984375 501.001953125 178.000976562 495.001953125 156.000976562 c 0
 483.668945312 114.000976562 469.668945312 80.333984375 453.001953125 55.0009765625 c 0
 445.001953125 43.0009765625 436.001953125 33.0009765625 426.001953125 25.0009765625 c 0
 416.001953125 17.0009765625 405.668945312 10.333984375 395.001953125 5.0009765625 c 0
 385.668945312 -0.33203125 374.3359375 -4.4990234375 361.002929688 -7.4990234375 c 0
 347.669921875 -10.4990234375 334.669921875 -12.4990234375 322.002929688 -13.4990234375 c 0
 309.3359375 -14.4990234375 294.002929688 -14.9990234375 276.002929688 -14.9990234375 c 0
 248.669921875 -14.33203125 223.669921875 -8.6650390625 201.002929688 2.001953125 c 0
 175.669921875 12.6689453125 154.002929688 27.501953125 136.002929688 46.501953125 c 0
 118.002929688 65.501953125 104.169921875 89.001953125 94.5029296875 117.001953125 c 0
 84.8359375 145.001953125 80.0029296875 175.334960938 80.0029296875 208.001953125 c 2
 80.0029296875 214.001953125 l 1
 80.0029296875 309.001953125 l 2
 79.7802734375 316.125976562 79.6689453125 323.918945312 79.6689453125 332.380859375 c 0
 79.6689453125 349.258789062 80.1123046875 368.797851562 81 391 c 0
215.001953125 613.000976562 m 0
 193.668945312 591.000976562 177.334960938 555.998046875 166.001953125 507.998046875 c 0
 162.001953125 490.665039062 159.001953125 470.665039062 157.001953125 447.998046875 c 0
 155.3359375 428.33203125 154.502929688 402.166015625 154.502929688 369.5 c 0
 154.502929688 336.833984375 155.3359375 297.66796875 157.002929688 252.001953125 c 0
 157.669921875 234.001953125 158.169921875 222.501953125 158.502929688 217.501953125 c 0
 158.8359375 212.501953125 159.002929688 209.001953125 159.002929688 207.001953125 c 2
 159.002929688 177.001953125 l 1
 177.002929688 201.001953125 l 1
 259.669921875 323.001953125 334.002929688 448.668945312 400.002929688 578.001953125 c 2
 403.002929688 584.001953125 l 1
 399.002929688 589.001953125 l 2
 387.002929688 607.001953125 372.502929688 621.001953125 355.502929688 631.001953125 c 0
 338.502929688 641.001953125 319.669921875 646.001953125 299.002929688 646.001953125 c 0
 263.002929688 646.001953125 235.001953125 635.000976562 215.001953125 613.000976562 c 0
321.501953125 54.9990234375 m 0
 335.168945312 58.33203125 348.3359375 63.9990234375 361.002929688 71.9990234375 c 0
 386.3359375 88.666015625 406.002929688 119.666015625 420.002929688 164.999023438 c 0
 422.669921875 173.666015625 425.502929688 196.166015625 428.502929688 232.499023438 c 0
 431.502929688 268.83203125 433.669921875 310.33203125 435.002929688 356.999023438 c 0
 435.669921875 369.666015625 436.002929688 381.999023438 436.002929688 393.999023438 c 0
 436.002929688 427.999023438 434.669921875 460.666015625 432.002929688 491.999023438 c 2
 429.002929688 526.999023438 l 1
 413.002929688 494.999023438 l 1
 347.002929688 349.666015625 269.669921875 227.666015625 181.002929688 128.999023438 c 1
 177.002929688 123.999023438 l 1
 179.002929688 117.999023438 l 2
 190.3359375 93.33203125 205.3359375 75.33203125 224.002929688 63.9990234375 c 0
 238.669921875 54.666015625 256.002929688 49.9990234375 276.002929688 49.9990234375 c 0
 292.669921875 49.9990234375 307.834960938 51.666015625 321.501953125 54.9990234375 c 0
EndSplineSet
Validated: 524289
EndChar

StartChar: one
Encoding: 49 49 18
Width: 590
GlyphClass: 2
Flags: HMW
HStem: 1 64.9961<476.999 478.999 476.666 485.333> 520.999 21G
VStem: 262.998 70 273.998 61
LayerCount: 2
Fore
SplineSet
510 59 m 0xe0
 516 53 519 45 519 35 c 0
 519 25 516.166992188 16.8330078125 510.5 10.5 c 0
 504.833007812 4.1669921875 493.666015625 1 476.999023438 1 c 0
 253.666015625 3 129.666015625 4 104.999023438 4 c 0
 92.9990234375 4 84.4990234375 7.1669921875 79.4990234375 13.5 c 0
 74.4990234375 19.8330078125 71.9990234375 28 71.9990234375 38 c 2
 71.9990234375 41 l 2
 71.9990234375 50.3330078125 74.4990234375 58.3330078125 79.4990234375 65 c 0
 84.4990234375 71.6669921875 93.33203125 75 105.999023438 75 c 0
 135.33203125 75 187.665039062 74.3330078125 262.998046875 73 c 1
 262.998046875 83 l 2xe0
 262.998046875 109 262.665039062 127.666992188 261.998046875 139 c 0
 261.331054688 150.333007812 260.998046875 160.666015625 260.998046875 169.999023438 c 0
 260.998046875 180.666015625 261.331054688 212.333007812 261.998046875 265 c 0
 261.998046875 278.333007812 263.498046875 328.666015625 266.498046875 415.999023438 c 0
 269.498046875 503.33203125 271.998046875 567.999023438 273.998046875 609.999023438 c 1
 257.998046875 595.999023438 l 2
 213.998046875 555.999023438 180.998046875 531.666015625 158.998046875 522.999023438 c 0
 155.665039062 521.666015625 152.665039062 520.999023438 149.998046875 520.999023438 c 0
 143.998046875 520.999023438 136.998046875 524.33203125 128.998046875 530.999023438 c 0
 118.331054688 540.33203125 112.998046875 549.33203125 112.998046875 557.999023438 c 2
 112.998046875 558.999023438 l 1
 112.998046875 559.999023438 l 2
 112.998046875 568.666015625 114.998046875 576.666015625 118.998046875 583.999023438 c 0
 122.998046875 591.33203125 130.331054688 598.999023438 140.998046875 606.999023438 c 0
 160.998046875 622.33203125 181.331054688 638.665039062 201.998046875 655.998046875 c 2
 243.998046875 693.998046875 l 2
 251.998046875 701.331054688 260.165039062 707.6640625 268.498046875 712.997070312 c 0
 276.831054688 718.330078125 283.6640625 720.997070312 288.997070312 720.997070312 c 0
 300.330078125 720.997070312 311.997070312 715.6640625 323.997070312 704.997070312 c 0
 330.6640625 698.997070312 335.331054688 693.6640625 337.998046875 688.997070312 c 0
 339.998046875 686.330078125 340.998046875 683.997070312 340.998046875 681.997070312 c 0
 340.331054688 665.997070312 338.331054688 611.330078125 334.998046875 517.997070312 c 0xd0
 331.665039062 424.6640625 329.998046875 369.997070312 329.998046875 353.997070312 c 0
 329.998046875 237.330078125 330.998046875 142.663085938 332.998046875 69.99609375 c 1
 376.331054688 68.6630859375 410.331054688 67.6630859375 434.998046875 66.99609375 c 0
 459.665039062 66.3291015625 474.33203125 65.99609375 478.999023438 65.99609375 c 0
 480.705078125 66.0703125 482.349609375 66.107421875 483.931640625 66.107421875 c 0
 496.5703125 66.107421875 505.260742188 63.7392578125 510 59 c 0xe0
EndSplineSet
Validated: 524289
EndChar

StartChar: two
Encoding: 50 50 19
Width: 590
GlyphClass: 2
Flags: HMW
HStem: -8 64.0029 -1.99512 68.998 647.002 64.998
VStem: 81 81.0029 415.001 80.002
LayerCount: 2
Fore
SplineSet
281 -8 m 0xb8
 251.666992188 -9.3330078125 222 -10 192 -10 c 0
 158.666992188 -9.3330078125 132.666992188 -8 114 -6 c 0
 108 -5.3330078125 103 -3.166015625 99 0.5009765625 c 0
 95 4.16796875 92 9.0009765625 90 15.0009765625 c 0
 84 30.333984375 81 52.5009765625 81 81.5009765625 c 0
 81 110.500976562 87 140.16796875 99 170.500976562 c 0
 111 200.833984375 128.833007812 230.000976562 152.5 258.000976562 c 0
 176.166992188 286.000976562 202.333984375 308.66796875 231.000976562 326.000976562 c 0
 296.333984375 366.66796875 338.333984375 395.000976562 357.000976562 411.000976562 c 0
 383.66796875 433.66796875 401.000976562 458.334960938 409.000976562 485.001953125 c 0
 413.000976562 499.668945312 415.000976562 517.668945312 415.000976562 539.001953125 c 0
 415.000976562 577.001953125 404.000976562 604.668945312 382.000976562 622.001953125 c 0
 362.000976562 638.668945312 334.000976562 647.001953125 298.000976562 647.001953125 c 0
 272.66796875 647.001953125 248.66796875 638.668945312 226.000976562 622.001953125 c 0
 203.333984375 605.334960938 185.000976562 586.66796875 171.000976562 566.000976562 c 0
 165.000976562 558.000976562 160.000976562 552.16796875 156.000976562 548.500976562 c 0
 152.000976562 544.833984375 148.000976562 542.666992188 144.000976562 542 c 2
 138.500976562 542 l 2
 136.16796875 542 133.334960938 542.333007812 130.001953125 543 c 0
 126.668945312 543.666992188 121.3359375 545.666992188 114.002929688 549 c 0
 105.3359375 553.666992188 100.002929688 560 98.0029296875 568 c 2
 98.0029296875 575 l 2
 97.9365234375 575.799804688 97.9033203125 576.623046875 97.9033203125 577.469726562 c 0
 97.9033203125 585.08984375 100.603515625 594.599609375 106.002929688 606 c 0
 112.002929688 617.333007812 121.3359375 629.166015625 134.002929688 641.499023438 c 0
 146.669921875 653.83203125 161.336914062 665.33203125 178.00390625 675.999023438 c 0
 194.670898438 686.666015625 213.00390625 695.333007812 233.00390625 702 c 0
 253.00390625 708.666992188 273.336914062 712 294.00390625 712 c 0
 357.336914062 712 406.669921875 696.333007812 442.002929688 665 c 0
 477.3359375 633.666992188 495.002929688 586 495.002929688 522 c 0
 495.002929688 469.333007812 481.669921875 427 455.002929688 395 c 0
 434.3359375 371.666992188 399.3359375 345.333984375 350.002929688 316.000976562 c 0
 334.669921875 306.000976562 314.002929688 293.333984375 288.002929688 278.000976562 c 0
 260.669921875 262.66796875 238.002929688 243.334960938 220.002929688 220.001953125 c 0
 201.3359375 196.668945312 187.502929688 172.8359375 178.502929688 148.502929688 c 0
 169.502929688 124.169921875 164.002929688 98.0029296875 162.002929688 70.0029296875 c 2
 162.002929688 60.0029296875 l 1
 207.3359375 57.3359375 248.002929688 56.0029296875 284.002929688 56.0029296875 c 0xb8
 310.002929688 56.0029296875 331.3359375 56.669921875 348.002929688 58.0029296875 c 0
 364.669921875 59.3359375 386.669921875 61.0029296875 414.002929688 63.0029296875 c 0
 442.669921875 65.0029296875 461.002929688 66.3359375 469.002929688 67.0029296875 c 2
 479.002929688 67.0029296875 l 2
 482.115234375 67.2255859375 484.8203125 67.3369140625 487.1171875 67.3369140625 c 0
 491.708007812 67.3369140625 494.669921875 66.892578125 496.002929688 66.00390625 c 0
 498.002929688 65.3369140625 500.3359375 64.00390625 503.002929688 62.00390625 c 0
 505.002929688 60.6708984375 506.3359375 59.337890625 507.002929688 58.0048828125 c 0
 509.002929688 54.0048828125 510.002929688 48.337890625 510.002929688 41.0048828125 c 0
 510.002929688 26.337890625 506.3359375 14.337890625 499.002929688 5.0048828125 c 0
 495.669921875 0.337890625 491.336914062 -1.9951171875 486.00390625 -1.9951171875 c 0x78
 438.00390625 -1.9951171875 369.666992188 -4 281 -8 c 0xb8
EndSplineSet
Validated: 524289
EndChar

StartChar: three
Encoding: 51 51 20
Width: 590
GlyphClass: 2
Flags: HMW
HStem: -14.998 64.998 328.002 81.002 647.004 65.001
VStem: 400.997 81 423.996 80.002
LayerCount: 2
Fore
SplineSet
481 532 m 0xf0
 481.666992188 530.666992188 481.997070312 529.333984375 481.997070312 528.000976562 c 0xf0
 481.997070312 511.333984375 479.5 495.833984375 474.5 481.500976562 c 0
 469.5 467.16796875 463 455.16796875 455 445.500976562 c 0
 447 435.833984375 437.166992188 427.000976562 425.5 419.000976562 c 0
 413.833007812 411.000976562 401.666015625 404.66796875 388.999023438 400.000976562 c 0
 377.666015625 395.333984375 365.666015625 391.666992188 352.999023438 389 c 2
 310.999023438 380 l 1
 352.999023438 370 l 2
 376.999023438 364.666992188 398.166015625 357.833984375 416.499023438 349.500976562 c 0
 434.83203125 341.16796875 450.665039062 330.500976562 463.998046875 317.500976562 c 0
 477.331054688 304.500976562 487.331054688 288.333984375 493.998046875 269.000976562 c 0
 500.665039062 249.66796875 503.998046875 226.334960938 503.998046875 199.001953125 c 0
 503.998046875 133.668945312 483.665039062 81.6689453125 442.998046875 43.001953125 c 0
 402.998046875 4.3349609375 349.998046875 -14.998046875 283.998046875 -14.998046875 c 0
 263.998046875 -14.998046875 243.998046875 -11.6650390625 223.998046875 -4.998046875 c 0
 202.665039062 2.3349609375 183.498046875 11.16796875 166.498046875 21.5009765625 c 0
 149.498046875 31.833984375 134.831054688 43.1669921875 122.498046875 55.5 c 0
 110.165039062 67.8330078125 100.998046875 80 94.998046875 92 c 0
 89.6650390625 102 86.998046875 111.333007812 86.998046875 120 c 0
 86.998046875 122.666992188 87.3310546875 125.333984375 87.998046875 128.000976562 c 0
 89.998046875 137.333984375 94.998046875 144.000976562 102.998046875 148.000976562 c 0
 110.331054688 152.000976562 117.331054688 154.000976562 123.998046875 154.000976562 c 0
 126.665039062 154.000976562 129.33203125 153.66796875 131.999023438 153.000976562 c 0
 141.33203125 150.333984375 150.665039062 143.000976562 159.998046875 131.000976562 c 0
 175.331054688 110.333984375 194.6640625 91.6669921875 217.997070312 75 c 0
 239.330078125 58.3330078125 262.663085938 50 287.99609375 50 c 0
 325.99609375 50 357.329101562 62.3330078125 381.99609375 87 c 0
 409.99609375 111.666992188 423.99609375 143.333984375 423.99609375 182.000976562 c 0xe8
 423.99609375 204.66796875 420.329101562 224.834960938 412.99609375 242.501953125 c 0
 405.663085938 260.168945312 394.330078125 275.668945312 378.997070312 289.001953125 c 0
 350.997070312 315.001953125 303.997070312 328.001953125 237.997070312 328.001953125 c 0
 227.997070312 328.001953125 219.330078125 332.334960938 211.997070312 341.001953125 c 0
 204.6640625 349.668945312 200.997070312 359.8359375 200.997070312 371.502929688 c 0
 200.997070312 383.169921875 203.6640625 392.336914062 208.997070312 399.00390625 c 0
 213.6640625 405.670898438 220.997070312 409.00390625 230.997070312 409.00390625 c 0
 282.997070312 409.00390625 323.997070312 420.670898438 353.997070312 444.00390625 c 0
 385.330078125 467.336914062 400.997070312 501.00390625 400.997070312 545.00390625 c 2
 400.997070312 549.00390625 l 1
 400.997070312 553.00390625 l 2
 401.016601562 553.899414062 401.026367188 554.7890625 401.026367188 555.671875 c 0
 401.026367188 585.68359375 390.016601562 608.4609375 367.997070312 624.00390625 c 0
 346.6640625 639.336914062 316.6640625 647.00390625 277.997070312 647.00390625 c 0
 265.330078125 647.00390625 251.997070312 644.670898438 237.997070312 640.00390625 c 0
 233.330078125 638.00390625 228.330078125 634.670898438 222.997070312 630.00390625 c 0
 217.6640625 625.336914062 213.331054688 621.669921875 209.998046875 619.002929688 c 0
 206.665039062 616.3359375 202.498046875 611.8359375 197.498046875 605.502929688 c 0
 192.498046875 599.169921875 188.998046875 594.836914062 186.998046875 592.50390625 c 0
 184.998046875 590.170898438 181.665039062 585.337890625 176.998046875 578.004882812 c 0
 167.665039062 565.337890625 158.665039062 558.004882812 149.998046875 556.004882812 c 0
 147.331054688 555.337890625 144.6640625 555.004882812 141.997070312 555.004882812 c 0
 135.330078125 555.004882812 127.997070312 557.004882812 119.997070312 561.004882812 c 0
 111.997070312 565.004882812 106.997070312 571.671875 104.997070312 581.004882812 c 0
 104.330078125 583.004882812 103.997070312 585.337890625 103.997070312 588.004882812 c 0
 103.997070312 596.671875 106.6640625 606.338867188 111.997070312 617.005859375 c 0
 124.6640625 642.338867188 143.997070312 664.005859375 169.997070312 682.005859375 c 0
 183.330078125 691.338867188 199.330078125 698.671875 217.997070312 704.004882812 c 0
 235.330078125 709.337890625 253.997070312 712.004882812 273.997070312 712.004882812 c 0
 412.6640625 712.004882812 481.997070312 653.337890625 481.997070312 536.004882812 c 0
 481.330078125 534.671875 481 533.333007812 481 532 c 0xf0
EndSplineSet
Validated: 524289
EndChar

StartChar: four
Encoding: 52 52 21
Width: 590
GlyphClass: 2
Flags: HMW
HStem: -13.998 21G 234 61.002 696.001 20G
VStem: 365.002 65.499 372 67.001 372 75.001
LayerCount: 2
Fore
SplineSet
387 -1 m 0xf0
 377.666992188 7 372.666992188 14.6669921875 372 22 c 2
 372 60 l 1xe4
 372 233 l 1xe8
 350.666992188 233.666992188 333 234 319 234 c 0
 231 233.333007812 166.333007812 228.666015625 125 219.999023438 c 0
 121 219.33203125 117 218.999023438 113 218.999023438 c 0
 109 218.999023438 105 219.666015625 101 220.999023438 c 0
 95 223.666015625 90 227.333007812 86 232 c 0
 76.6669921875 244 72 258.333007812 72 275 c 0
 72 283 73.3330078125 291 76 299 c 0
 82.6669921875 317.666992188 100.333984375 347.833984375 129.000976562 389.500976562 c 0
 157.66796875 431.16796875 193.66796875 483.000976562 237.000976562 545.000976562 c 0
 279.66796875 607.000976562 310.000976562 652.333984375 328.000976562 681.000976562 c 0
 335.333984375 692.333984375 343.333984375 700.833984375 352.000976562 706.500976562 c 0
 360.66796875 712.16796875 368.66796875 715.000976562 376.000976562 715.000976562 c 0
 378.000976562 715.66796875 380.000976562 716.000976562 382.000976562 716.000976562 c 0
 390.000976562 716.000976562 398.000976562 713.66796875 406.000976562 709.000976562 c 0
 414.000976562 704.333984375 419.000976562 696.333984375 421.000976562 685.000976562 c 0
 425.000976562 662.333984375 428.16796875 626.833984375 430.500976562 578.500976562 c 0xf0
 432.833984375 530.16796875 434.333984375 489.334960938 435.000976562 456.001953125 c 2
 438.000976562 294.001953125 l 1
 455.333984375 292.668945312 470.833984375 292.001953125 484.500976562 292.001953125 c 0
 498.16796875 292.001953125 507.16796875 289.501953125 511.500976562 284.501953125 c 0
 515.833984375 279.501953125 518.333984375 272.668945312 519.000976562 264.001953125 c 0
 519.000976562 253.334960938 517.000976562 245.334960938 513.000976562 240.001953125 c 0
 507.66796875 233.334960938 498.500976562 230.001953125 485.500976562 230.001953125 c 0
 472.500976562 230.001953125 457.000976562 230.668945312 439.000976562 232.001953125 c 1xe8
 439.66796875 126.668945312 441.66796875 67.001953125 445.000976562 53.001953125 c 0
 446.333984375 45.6689453125 447.000976562 39.001953125 447.000976562 33.001953125 c 0xe4
 447.66796875 22.3349609375 445.66796875 12.66796875 441.000976562 4.0009765625 c 0
 438.333984375 -1.33203125 434.833984375 -5.6650390625 430.500976562 -8.998046875 c 0
 426.16796875 -12.3310546875 421.000976562 -13.998046875 415.000976562 -13.998046875 c 0
 405.66796875 -13.3310546875 396.333007812 -9 387 -1 c 0xf0
365.001953125 603.001953125 m 2xf0
 364.001953125 629.001953125 l 1
 349.001953125 608.001953125 l 2
 258.334960938 478.001953125 196.001953125 377.001953125 162.001953125 305.001953125 c 2
 155.001953125 290.001953125 l 1
 171.001953125 291.001953125 l 2
 206.334960938 293.668945312 249.001953125 295.001953125 299.001953125 295.001953125 c 0
 319.001953125 295.001953125 343.334960938 294.668945312 372.001953125 294.001953125 c 1
 372.001953125 304.001953125 l 2
 372.001953125 429.334960938 369.668945312 529.001953125 365.001953125 603.001953125 c 2xf0
EndSplineSet
Validated: 524289
EndChar

StartChar: five
Encoding: 53 53 22
Width: 590
GlyphClass: 2
Flags: HMW
HStem: -7.99902 64.999 430 69.9971 628.997 69.002 639.996 60.0029
VStem: 87 73.999 95 67.999 433.999 80
LayerCount: 2
Fore
SplineSet
496 166 m 0xd6
 484 127.333007812 467.166992188 95.3330078125 445.5 70 c 0
 423.833007812 44.6669921875 399 25.333984375 371 12.0009765625 c 0
 343.666992188 -1.33203125 313.666992188 -7.9990234375 281 -7.9990234375 c 0
 255.666992188 -7.9990234375 232 -4.9990234375 210 1.0009765625 c 0
 186.666992188 7.0009765625 167 14.833984375 151 24.5009765625 c 0
 135 34.16796875 121.666992188 44.66796875 111 56.0009765625 c 0
 100.333007812 67.333984375 91.666015625 79.0009765625 84.9990234375 91.0009765625 c 0
 79.666015625 103.66796875 76.9990234375 114.000976562 76.9990234375 122.000976562 c 0
 76.9990234375 133.333984375 82.666015625 141.666992188 93.9990234375 147 c 0
 105.33203125 152.333007812 113.33203125 155 117.999023438 155 c 0
 119.999023438 154.333007812 121.666015625 154 122.999023438 154 c 0
 126.999023438 154 130.999023438 152 134.999023438 148 c 0
 138.999023438 144 143.999023438 138 149.999023438 130 c 0
 182.666015625 81.3330078125 223.666015625 57 272.999023438 57 c 0
 320.999023438 57 359.33203125 78 387.999023438 120 c 0
 418.666015625 161.333007812 433.999023438 216.333007812 433.999023438 285 c 0
 433.999023438 328.333007812 423.999023438 363 403.999023438 389 c 0
 384.666015625 416.333007812 356.333007812 430 319 430 c 0
 303 430 286.333007812 428 269 424 c 0
 259.666992188 421.333007812 247.333984375 415.666015625 232.000976562 406.999023438 c 0
 228.000976562 404.999023438 222.833984375 401.166015625 216.500976562 395.499023438 c 0
 210.16796875 389.83203125 206.000976562 385.999023438 204.000976562 383.999023438 c 0
 194.000976562 374.666015625 185.66796875 366.666015625 179.000976562 359.999023438 c 0
 168.333984375 350.666015625 155.333984375 345.333007812 140.000976562 344 c 2
 136.000976562 344 l 2
 129.333984375 344 123.000976562 345.333007812 117.000976562 348 c 0
 108.333984375 351.333007812 101.666992188 359.666015625 97 372.999023438 c 0
 91.6669921875 388.33203125 88.6669921875 407.33203125 88 429.999023438 c 0
 87.3330078125 440.666015625 87 450.999023438 87 460.999023438 c 0xda
 87 485.666015625 88.6669921875 520.666015625 92 565.999023438 c 0
 94 590.666015625 95 607.999023438 95 617.999023438 c 2
 95 620.999023438 l 1
 93 622.999023438 l 2
 87 632.999023438 84 644.999023438 84 658.999023438 c 0
 84 674.33203125 88.3330078125 686.33203125 97 694.999023438 c 0
 102.333007812 700.33203125 108.333007812 702.999023438 115 702.999023438 c 0
 139.666992188 702.33203125 195 701.33203125 281 699.999023438 c 0xd6
 365.666992188 698.666015625 432 697.999023438 480 697.999023438 c 0
 484.666992188 697.999023438 489 695.666015625 493 690.999023438 c 0
 497.666992188 684.999023438 500.666992188 677.83203125 502 669.499023438 c 0
 503.333007812 661.166015625 503.666015625 653.666015625 502.999023438 646.999023438 c 0
 502.33203125 640.33203125 500.499023438 636.165039062 497.499023438 634.498046875 c 0
 494.499023438 632.831054688 492.166015625 631.6640625 490.499023438 630.997070312 c 0
 488.83203125 630.330078125 485.999023438 629.830078125 481.999023438 629.497070312 c 0
 477.999023438 629.1640625 475.166015625 628.997070312 473.499023438 628.997070312 c 0xe6
 471.83203125 628.997070312 468.165039062 629.1640625 462.498046875 629.497070312 c 0
 456.831054688 629.830078125 451.498046875 630.163085938 446.498046875 630.49609375 c 0
 441.498046875 630.829101562 426.998046875 631.99609375 402.998046875 633.99609375 c 0
 380.998046875 635.99609375 361.331054688 637.49609375 343.998046875 638.49609375 c 0
 326.665039062 639.49609375 302.83203125 639.99609375 272.499023438 639.99609375 c 0
 242.166015625 639.99609375 206.666015625 638.663085938 165.999023438 635.99609375 c 1
 165.33203125 623.329101562 164.33203125 600.99609375 162.999023438 568.99609375 c 0xd6
 161.666015625 536.99609375 160.999023438 516.663085938 160.999023438 507.99609375 c 0xda
 160.999023438 499.329101562 161.166015625 490.829101562 161.499023438 482.49609375 c 0
 161.83203125 474.163085938 162.33203125 451.330078125 162.999023438 413.997070312 c 1
 178.999023438 431.997070312 l 2
 196.33203125 451.330078125 218.83203125 467.497070312 246.499023438 480.497070312 c 0
 274.166015625 493.497070312 305.999023438 499.997070312 341.999023438 499.997070312 c 0
 367.999023438 499.997070312 391.666015625 494.6640625 412.999023438 483.997070312 c 0
 435.666015625 473.330078125 454.166015625 458.997070312 468.499023438 440.997070312 c 0
 482.83203125 422.997070312 493.999023438 401.497070312 501.999023438 376.497070312 c 0
 509.999023438 351.497070312 513.999023438 324.6640625 513.999023438 295.997070312 c 0
 513.999023438 247.997070312 508 204.666992188 496 166 c 0xd6
EndSplineSet
Validated: 524289
EndChar

StartChar: six
Encoding: 54 54 23
Width: 590
GlyphClass: 2
Flags: HMW
HStem: -13 64.998 401.999 69.999
VStem: 75.001 69.999 438 78.002
LayerCount: 2
Fore
SplineSet
498 144 m 0
 486 112 469.833007812 84.5 449.5 61.5 c 0
 429.166992188 38.5 405.333984375 20.3330078125 378.000976562 7 c 0
 352.000976562 -6.3330078125 324.66796875 -13 296.000976562 -13 c 0
 260.000976562 -13 228.66796875 -5.3330078125 202.000976562 10 c 0
 172.66796875 25.3330078125 148.66796875 47.166015625 130.000976562 75.4990234375 c 0
 111.333984375 103.83203125 97.5009765625 137.499023438 88.5009765625 176.499023438 c 0
 79.5009765625 215.499023438 75.0009765625 258.666015625 75.0009765625 305.999023438 c 0
 75.0009765625 365.999023438 80.66796875 419.999023438 92.0009765625 467.999023438 c 0
 102.66796875 512.666015625 117.16796875 550.333007812 135.500976562 581 c 0
 153.833984375 611.666992188 176.333984375 637.333984375 203.000976562 658.000976562 c 0
 227.66796875 679.333984375 254.334960938 695.333984375 283.001953125 706.000976562 c 0
 311.668945312 716.66796875 343.668945312 723.66796875 379.001953125 727.000976562 c 2
 385.001953125 727.000976562 l 2
 395.001953125 727.000976562 404.001953125 725.000976562 412.001953125 721.000976562 c 0
 420.001953125 717.000976562 424.668945312 710.333984375 426.001953125 701.000976562 c 2
 426.001953125 700.000976562 l 2
 426.001953125 695.333984375 423.001953125 689.666992188 417.001953125 683 c 0
 409.668945312 674.333007812 401.668945312 668.666015625 393.001953125 665.999023438 c 0
 386.334960938 663.999023438 376.001953125 661.499023438 362.001953125 658.499023438 c 0
 348.001953125 655.499023438 336.001953125 652.33203125 326.001953125 648.999023438 c 0
 316.001953125 645.666015625 304.334960938 640.999023438 291.001953125 634.999023438 c 0
 264.334960938 622.33203125 237.334960938 598.999023438 210.001953125 564.999023438 c 0
 195.334960938 546.33203125 181.66796875 521.665039062 169.000976562 490.998046875 c 0
 156.333984375 460.331054688 148.333984375 432.998046875 145.000976562 408.998046875 c 2
 141.000976562 375.998046875 l 1
 162.000976562 400.998046875 l 2
 182.000976562 424.331054688 206.66796875 441.998046875 236.000976562 453.998046875 c 0
 264.66796875 465.998046875 297.000976562 471.998046875 333.000976562 471.998046875 c 0
 359.66796875 471.331054688 383.66796875 466.998046875 405.000976562 458.998046875 c 0
 427.66796875 450.998046875 447.334960938 438.165039062 464.001953125 420.498046875 c 0
 480.668945312 402.831054688 493.501953125 379.498046875 502.501953125 350.498046875 c 0
 511.501953125 321.498046875 516.001953125 286.665039062 516.001953125 245.998046875 c 0
 516.001953125 209.998046875 510 176 498 144 c 0
147.001953125 228.998046875 m 0
 149.668945312 196.331054688 159.668945312 164.998046875 177.001953125 134.998046875 c 0
 185.668945312 118.998046875 195.668945312 104.998046875 207.001953125 92.998046875 c 0
 217.668945312 80.3310546875 230.668945312 70.3310546875 246.001953125 62.998046875 c 0
 261.334960938 55.6650390625 277.66796875 51.998046875 295.000976562 51.998046875 c 2
 297.000976562 51.998046875 l 2
 321.66796875 51.998046875 344.66796875 61.3310546875 366.000976562 79.998046875 c 0
 387.333984375 97.998046875 404.666992188 120.998046875 418 148.998046875 c 0
 431.333007812 176.998046875 438 205.331054688 438 233.998046875 c 0
 438 266.665039062 435 294.165039062 429 316.498046875 c 0
 423 338.831054688 413.666992188 356.331054688 401 368.998046875 c 0
 389 381.665039062 375.666992188 390.33203125 361 394.999023438 c 0
 346.333007812 399.666015625 329 401.999023438 309 401.999023438 c 0
 277 401.999023438 247 392.999023438 219 374.999023438 c 0
 190.333007812 356.999023438 166.333007812 333.999023438 147 305.999023438 c 1
 145 303.999023438 l 1
 145 300.999023438 l 2
 145 269.666015625 145.668945312 245.665039062 147.001953125 228.998046875 c 0
EndSplineSet
Validated: 524289
EndChar

StartChar: seven
Encoding: 55 55 24
Width: 590
GlyphClass: 2
Flags: HMW
HStem: -14 21G<142.669 148.003> 632.8 71.2011
LayerCount: 2
Fore
SplineSet
492.5 693.5 m 0
 498.166992188 691.166992188 503.333984375 687.333984375 508.000976562 682.000976562 c 0
 512.66796875 676.66796875 515.000976562 669.66796875 515.000976562 661.000976562 c 0
 515.000976562 652.333984375 512.333984375 641.666992188 507.000976562 629 c 0
 497.66796875 609 480.834960938 579 456.501953125 539 c 0
 432.168945312 499 407.3359375 457.666992188 382.002929688 415 c 0
 358.002929688 373 328.669921875 316.833007812 294.002929688 246.5 c 0
 259.3359375 176.166992188 226.668945312 104 196.001953125 30 c 0
 188.668945312 14 179.3359375 2.3330078125 168.002929688 -5 c 0
 160.002929688 -11 152.002929688 -14 144.002929688 -14 c 0
 141.3359375 -14 139.002929688 -13.6669921875 137.002929688 -13 c 0
 126.3359375 -10.3330078125 118.668945312 -3.8330078125 114.001953125 6.5 c 0
 111.959960938 11.0205078125 110.939453125 15.701171875 110.939453125 20.541015625 c 0
 110.939453125 26.763671875 112.626953125 33.25 116.001953125 40 c 0
 150.668945312 108 186.3359375 176 223.002929688 244 c 0
 258.3359375 312 287.502929688 366.166992188 310.502929688 406.5 c 0
 333.502929688 446.833007812 355.002929688 486.333007812 375.002929688 525 c 0
 395.669921875 563 410.002929688 594 418.002929688 618 c 2
 422.002929688 631 l 1
 384.803710938 632.200195312 347.96484375 632.799804688 311.485351562 632.799804688 c 0
 287.165039062 632.799804688 263.00390625 632.533203125 239.002929688 632 c 0
 175.002929688 630 132.669921875 626.333007812 112.002929688 621 c 0
 110.002929688 620.333007812 107.669921875 620 105.002929688 620 c 0
 102.3359375 620 99.6689453125 620.666992188 97.001953125 622 c 0
 92.3349609375 623.333007812 88.66796875 626 86.0009765625 630 c 0
 80.0009765625 638.666992188 76.66796875 648.666992188 76.0009765625 660 c 0
 76.0009765625 669.333007812 78.16796875 676.833007812 82.5009765625 682.5 c 0
 86.833984375 688.166992188 96.0009765625 692.333984375 110.000976562 695.000976562 c 0
 145.333984375 701.000976562 201.333984375 704.000976562 278.000976562 704.000976562 c 0
 302.000976562 704.000976562 349.000976562 702.333984375 419.000976562 699.000976562 c 0
 454.333984375 697.66796875 473.333984375 697.000976562 476.000976562 697.000976562 c 0
 481.333984375 697.000976562 486.833007812 695.833007812 492.5 693.5 c 0
EndSplineSet
Validated: 524289
EndChar

StartChar: eight
Encoding: 56 56 25
Width: 590
GlyphClass: 2
Flags: HMW
HStem: -17.999 66.001 656.002 52.001
VStem: 69.002 66.9971 96.003 73.9971 408.002 70 448 74.002
LayerCount: 2
Fore
SplineSet
514 142.5 m 0xc4
 508.666992188 122.166992188 499.5 102.333984375 486.5 83.0009765625 c 0
 473.5 63.66796875 457.833007812 46.66796875 439.5 32.0009765625 c 0
 421.166992188 17.333984375 398.333984375 5.333984375 371.000976562 -3.9990234375 c 0
 345.000976562 -13.33203125 316.333984375 -17.9990234375 285.000976562 -17.9990234375 c 0
 253.66796875 -17.9990234375 226.000976562 -13.666015625 202.000976562 -4.9990234375 c 0
 176.66796875 3.66796875 156.000976562 15.0009765625 140.000976562 29.0009765625 c 0
 124.000976562 43.0009765625 110.333984375 59.5009765625 99.0009765625 78.5009765625 c 0
 87.66796875 97.5009765625 79.8349609375 116.66796875 75.501953125 136.000976562 c 0
 71.1689453125 155.333984375 69.001953125 175.500976562 69.001953125 196.500976562 c 0xe4
 69.001953125 217.500976562 74.501953125 240.333984375 85.501953125 265.000976562 c 0
 96.501953125 289.66796875 112.334960938 312.66796875 133.001953125 334.000976562 c 0
 153.668945312 355.333984375 176.001953125 370.000976562 200.001953125 378.000976562 c 2
 222.001953125 386.000976562 l 1
 201.001953125 396.000976562 l 2
 167.668945312 412.000976562 141.8359375 432.66796875 123.502929688 458.000976562 c 0
 105.169921875 483.333984375 96.0029296875 509.000976562 96.0029296875 535.000976562 c 0
 96.0029296875 542.333984375 96.5029296875 550.333984375 97.5029296875 559.000976562 c 0
 98.5029296875 567.66796875 101.002929688 577.834960938 105.002929688 589.501953125 c 0
 109.002929688 601.168945312 113.8359375 612.3359375 119.502929688 623.002929688 c 0
 125.169921875 633.669921875 133.169921875 644.169921875 143.502929688 654.502929688 c 0
 153.8359375 664.8359375 165.668945312 674.002929688 179.001953125 682.002929688 c 0
 191.668945312 689.3359375 207.168945312 695.502929688 225.501953125 700.502929688 c 0
 243.834960938 705.502929688 264.334960938 708.002929688 287.001953125 708.002929688 c 0
 309.668945312 708.002929688 330.168945312 705.669921875 348.501953125 701.002929688 c 0
 366.834960938 696.3359375 382.334960938 690.002929688 395.001953125 682.002929688 c 0
 408.334960938 674.002929688 420.16796875 664.8359375 430.500976562 654.502929688 c 0
 440.833984375 644.169921875 448.833984375 633.669921875 454.500976562 623.002929688 c 0
 460.16796875 612.3359375 464.834960938 601.002929688 468.501953125 589.002929688 c 0
 472.168945312 577.002929688 474.668945312 566.502929688 476.001953125 557.502929688 c 0
 477.334960938 548.502929688 478.001953125 540.002929688 478.001953125 532.002929688 c 0xd8
 478.001953125 524.002929688 477.001953125 516.502929688 475.001953125 509.502929688 c 0
 473.001953125 502.502929688 470.668945312 496.169921875 468.001953125 490.502929688 c 0
 465.334960938 484.8359375 461.501953125 479.002929688 456.501953125 473.002929688 c 0
 451.501953125 467.002929688 446.668945312 461.669921875 442.001953125 457.002929688 c 0
 434.001953125 448.3359375 420.334960938 437.3359375 401.001953125 424.002929688 c 0
 393.001953125 418.002929688 380.001953125 408.3359375 362.001953125 395.002929688 c 1
 377.001953125 388.002929688 l 2
 399.668945312 378.002929688 420.001953125 366.502929688 438.001953125 353.502929688 c 0
 456.001953125 340.502929688 470.168945312 327.669921875 480.501953125 315.002929688 c 0
 490.834960938 302.3359375 499.334960938 289.168945312 506.001953125 275.501953125 c 0
 512.668945312 261.834960938 517.001953125 249.501953125 519.001953125 238.501953125 c 0
 521.001953125 227.501953125 522.001953125 216.001953125 522.001953125 204.001953125 c 0
 522.001953125 183.334960938 519.333007812 162.833007812 514 142.5 c 0xc4
203.001953125 472.001953125 m 0
 222.334960938 454.001953125 254.001953125 436.334960938 298.001953125 419.001953125 c 1
 301.001953125 417.001953125 l 1
 305.001953125 419.001953125 l 2
 331.001953125 430.334960938 354.334960938 446.334960938 375.001953125 467.001953125 c 0
 397.001953125 488.334960938 408.001953125 509.001953125 408.001953125 529.001953125 c 0
 408.001953125 549.001953125 402.668945312 568.668945312 392.001953125 588.001953125 c 0
 381.334960938 607.334960938 366.66796875 623.501953125 348.000976562 636.501953125 c 0
 329.333984375 649.501953125 309.333984375 656.001953125 288.000976562 656.001953125 c 2
 286.000976562 656.001953125 l 2
 255.333984375 655.334960938 228.666992188 643.001953125 206 619.001953125 c 0
 182 595.001953125 170 568.001953125 170 538.001953125 c 0xd8
 170 513.334960938 181.001953125 491.334960938 203.001953125 472.001953125 c 0
160 113.501953125 m 0
 176 91.8349609375 195.333007812 75.3349609375 218 64.001953125 c 0
 240 53.3349609375 263.666992188 48.001953125 289 48.001953125 c 0
 307 48.001953125 325 51.001953125 343 57.001953125 c 0
 361 63.001953125 377.666992188 71.6689453125 393 83.001953125 c 0
 409 95.001953125 422.166992188 110.168945312 432.5 128.501953125 c 0
 442.833007812 146.834960938 448 166.66796875 448 188.000976562 c 0
 448 200.000976562 447.166992188 211.16796875 445.5 221.500976562 c 0
 443.833007812 231.833984375 439.666015625 243.666992188 432.999023438 257 c 0
 426.33203125 270.333007812 417.33203125 282.666015625 405.999023438 293.999023438 c 0
 395.33203125 305.33203125 381.165039062 316.83203125 363.498046875 328.499023438 c 0
 345.831054688 340.166015625 323.998046875 351.333007812 297.998046875 362 c 1
 294.998046875 361 l 2
 249.665039062 347.666992188 212.33203125 324.666992188 182.999023438 292 c 0
 151.666015625 259.333007812 135.999023438 224 135.999023438 186 c 0xe4
 135.999023438 159.333007812 144 135.168945312 160 113.501953125 c 0
EndSplineSet
Validated: 524289
EndChar

StartChar: nine
Encoding: 57 57 26
Width: 590
GlyphClass: 2
Flags: HMW
HStem: -13 21G<178.001 183.001 183.001 191.001> 244.999 69 664.999 64.002
VStem: 75 78<464 497> 446.999 69.001
LayerCount: 2
Fore
SplineSet
497 238 m 0
 485 196 468.666992188 160.333007812 448 131 c 0
 427.333007812 101.666992188 403 76.6669921875 375 56 c 0
 348.333007812 35.3330078125 319.833007812 19.5 289.5 8.5 c 0
 259.166992188 -2.5 226.333984375 -9.6669921875 191.000976562 -13 c 2
 183.000976562 -13 l 2
 173.000976562 -13 163.833984375 -10.8330078125 155.500976562 -6.5 c 0
 147.16796875 -2.1669921875 142.334960938 4.3330078125 141.001953125 13 c 2
 141.001953125 14 l 2
 141.001953125 19.3330078125 144.001953125 25.3330078125 150.001953125 32 c 0
 157.334960938 40 165.66796875 45.3330078125 175.000976562 48 c 0
 182.333984375 50.6669921875 193.666992188 53.6669921875 209 57 c 0
 224.333007812 60.3330078125 238 63.666015625 250 66.9990234375 c 0
 262 70.33203125 275.666992188 75.1650390625 291 81.498046875 c 0
 306.333007812 87.8310546875 321.166015625 96.498046875 335.499023438 107.498046875 c 0
 349.83203125 118.498046875 363.33203125 131.665039062 375.999023438 146.998046875 c 0
 391.999023438 167.665039062 406.666015625 190.998046875 419.999023438 216.998046875 c 0
 433.33203125 242.998046875 442.33203125 266.998046875 446.999023438 288.998046875 c 2
 453.999023438 324.998046875 l 1
 429.999023438 296.998046875 l 2
 412.666015625 277.665039062 391.333007812 264.33203125 366 256.999023438 c 0
 341.333007812 248.999023438 309.666015625 244.999023438 270.999023438 244.999023438 c 0
 245.666015625 244.999023438 221.333007812 251.666015625 198 264.999023438 c 0
 173.333007812 277.666015625 152 294.833007812 134 316.5 c 0
 116 338.166992188 101.666992188 363.166992188 91 391.5 c 0
 80.3330078125 419.833007812 75 449 75 479 c 0
 75 515 81 548.666992188 93 580 c 0
 105 611.333007812 121 637.833007812 141 659.5 c 0
 161 681.166992188 184.666992188 698.333984375 212 711.000976562 c 0
 238 723.000976562 265.666992188 729.000976562 295 729.000976562 c 0
 366.333007812 729.000976562 421 699.66796875 459 641.000976562 c 0
 497 582.333984375 516 498.666992188 516 390 c 0
 516 333.333007812 509.666992188 282.666992188 497 238 c 0
191 359.999023438 m 0
 214.333007812 329.33203125 248.666015625 313.999023438 293.999023438 313.999023438 c 0
 321.999023438 313.999023438 349.33203125 320.999023438 375.999023438 334.999023438 c 0
 404.666015625 348.999023438 427.666015625 368.33203125 444.999023438 392.999023438 c 2
 446.999023438 395.999023438 l 1
 446.999023438 411.999023438 l 2
 446.999023438 430.666015625 445.999023438 455.666015625 443.999023438 486.999023438 c 2
 443.999023438 487.999023438 l 2
 440.666015625 520.666015625 430.666015625 551.999023438 413.999023438 581.999023438 c 0
 405.33203125 597.999023438 395.33203125 611.999023438 383.999023438 623.999023438 c 0
 373.33203125 635.999023438 360.33203125 645.83203125 344.999023438 653.499023438 c 0
 329.666015625 661.166015625 313.333007812 664.999023438 296 664.999023438 c 2
 294 664.999023438 l 2
 270 664.33203125 247.333007812 655.665039062 226 638.998046875 c 0
 204.666992188 622.331054688 187.166992188 600.6640625 173.5 573.997070312 c 0
 159.833007812 547.330078125 153 519.663085938 153 490.99609375 c 0
 153 434.329101562 165.666992188 390.666015625 191 359.999023438 c 0
EndSplineSet
Validated: 524289
EndChar

StartChar: colon
Encoding: 58 58 27
Width: 590
GlyphClass: 2
Flags: HMW
HStem: 49.001 136.124 317 135.143
VStem: 240.997 110.001
LayerCount: 2
Fore
SplineSet
299 317 m 2
 296 317 l 2
 280 317.666992188 267.333007812 320.666992188 258 326 c 0
 248 332 242.333007812 341.333007812 241 354 c 0
 240.333007812 365.333007812 240 377 240 389 c 0
 239.666015625 394.666015625 239.499023438 400.249023438 239.499023438 405.749023438 c 0
 239.499023438 411.249023438 239.666015625 416.666015625 240 422 c 0
 240.666992188 428.666992188 242.666992188 434 246 438 c 0
 249.333007812 442 253.666015625 445 258.999023438 447 c 0
 269.284179688 450.428710938 280.059570312 452.143554688 291.32421875 452.143554688 c 0
 293.202148438 452.143554688 295.09375 452.095703125 296.999023438 452 c 0
 302.33203125 452 307.665039062 451.333007812 312.998046875 450 c 0
 326.998046875 447.333007812 336.665039062 442 341.998046875 434 c 0
 345.331054688 429.333007812 347.331054688 423.333007812 347.998046875 416 c 0
 348.665039062 412 348.998046875 408 348.998046875 404 c 0
 348.998046875 386.666992188 346.331054688 368.333984375 340.998046875 349.000976562 c 0
 338.331054688 338.333984375 332.6640625 330.333984375 323.997070312 325.000976562 c 0
 315.330078125 319.66796875 307 317 299 317 c 2
295.997070312 49.0009765625 m 0
 283.330078125 49.0009765625 270.997070312 53.0009765625 258.997070312 61.0009765625 c 0
 248.997070312 67.0009765625 243.330078125 75.333984375 241.997070312 86.0009765625 c 0
 241.330078125 104.000976562 240.997070312 114.000976562 240.997070312 116.000976562 c 0
 240.997070312 118.000976562 241.330078125 123.66796875 241.997070312 133.000976562 c 0
 242.6640625 142.333984375 243.331054688 149.666992188 243.998046875 155 c 0
 243.998046875 161 245.665039062 166 248.998046875 170 c 0
 251.665039062 174 255.665039062 177 260.998046875 179 c 0
 272.6640625 183.083007812 283.564453125 185.125 293.69921875 185.125 c 0
 295.147460938 185.125 296.580078125 185.083007812 297.997070312 185 c 0
 304.6640625 185 311.331054688 184 317.998046875 182 c 0
 325.331054688 180 331.998046875 176 337.998046875 170 c 0
 343.998046875 164 347.665039062 157 348.998046875 149 c 0
 350.331054688 140.333007812 350.998046875 132 350.998046875 124 c 0
 350.998046875 110 348.998046875 95.6669921875 344.998046875 81 c 0
 342.331054688 70.3330078125 335.6640625 62.3330078125 324.997070312 57 c 0
 314.997070312 51.6669921875 305.330078125 49.0009765625 295.997070312 49.0009765625 c 0
EndSplineSet
Validated: 524289
EndChar

StartChar: semicolon
Encoding: 59 59 28
Width: 590
GlyphClass: 2
Flags: HMW
HStem: 275.002 136.001
VStem: 269.336 109.666
LayerCount: 2
Fore
SplineSet
359.000976562 79.001953125 m 0
 359.000976562 62.3349609375 337.333984375 -25.33203125 294.000976562 -183.999023438 c 0
 290.66796875 -195.999023438 285.334960938 -204.33203125 278.001953125 -208.999023438 c 0
 270.668945312 -213.666015625 263.001953125 -215.999023438 255.001953125 -215.999023438 c 2
 253.001953125 -215.999023438 l 2
 241.668945312 -215.33203125 231.3359375 -211.665039062 222.002929688 -204.998046875 c 0
 215.3359375 -200.331054688 212.002929688 -193.6640625 212.002929688 -184.997070312 c 0
 212.002929688 -173.6640625 219.002929688 -133.331054688 233.002929688 -63.998046875 c 0
 245.669921875 -2.6650390625 256.002929688 44.3349609375 264.002929688 77.001953125 c 0
 266.002929688 85.6689453125 268.502929688 92.3359375 271.502929688 97.0029296875 c 0
 274.502929688 101.669921875 277.3359375 104.669921875 280.002929688 106.002929688 c 0
 286.669921875 108.669921875 293.002929688 110.002929688 299.002929688 110.002929688 c 0
 301.002929688 110.002929688 303.3359375 109.669921875 306.002929688 109.002929688 c 2
 307.002929688 109.002929688 l 2
 318.3359375 109.002929688 330.002929688 106.3359375 342.002929688 101.002929688 c 0
 348.002929688 98.3359375 352.669921875 94.6689453125 356.002929688 90.001953125 c 0
 358.002929688 87.3349609375 359.000976562 83.6689453125 359.000976562 79.001953125 c 0
327.002929688 275.001953125 m 2
 319.669921875 275.668945312 311.833984375 277.333984375 303.500976562 280.000976562 c 0
 295.16796875 282.66796875 287.834960938 286.834960938 281.501953125 292.501953125 c 0
 275.168945312 298.168945312 271.668945312 304.668945312 271.001953125 312.001953125 c 0
 270.334960938 323.334960938 269.834960938 334.834960938 269.501953125 346.501953125 c 0
 269.390625 350.38671875 269.334960938 354.216796875 269.334960938 357.991210938 c 0
 269.334960938 365.55078125 269.557617188 372.887695312 270.002929688 380.002929688 c 0
 270.669921875 386.002929688 272.669921875 391.169921875 276.002929688 395.502929688 c 0
 279.3359375 399.8359375 284.002929688 403.002929688 290.002929688 405.002929688 c 0
 296.002929688 407.002929688 301.8359375 408.502929688 307.502929688 409.502929688 c 0
 313.169921875 410.502929688 317.502929688 411.002929688 320.502929688 411.002929688 c 2
 327.002929688 411.002929688 l 2
 338.3359375 410.3359375 349.000976562 407.668945312 359.000976562 403.001953125 c 0
 364.333984375 401.001953125 368.668945312 397.501953125 372.001953125 392.501953125 c 0
 375.334960938 387.501953125 377.334960938 381.668945312 378.001953125 375.001953125 c 0
 378.668945312 371.001953125 379.001953125 367.001953125 379.001953125 363.001953125 c 0
 379.001953125 345.001953125 376.334960938 326.334960938 371.001953125 307.001953125 c 0
 368.334960938 296.334960938 362.66796875 288.334960938 354.000976562 283.001953125 c 0
 345.333984375 277.668945312 337.000976562 275.001953125 329.000976562 275.001953125 c 2
 327.500976562 275.001953125 l 1
 327.002929688 275.001953125 l 2
EndSplineSet
Validated: 524289
EndChar

StartChar: less
Encoding: 60 60 29
Width: 590
GlyphClass: 2
Flags: HMW
HStem: 683 20G<482.667 490.001>
LayerCount: 2
Fore
SplineSet
524 648 m 0
 517.333007812 637.333007812 503.333007812 624.333007812 482 609 c 0
 444.666992188 583 388 540.333007812 312 481 c 0
 235.333007812 421 183.333007812 380.666992188 156 360 c 1
 167 353 l 2
 192.333007812 333 221 308.666992188 253 280 c 0
 285 251.333007812 313 225.666015625 337 202.999023438 c 0
 361 179.666015625 387 155.999023438 415 131.999023438 c 0
 443.666992188 107.999023438 468.333984375 89.33203125 489.000976562 75.9990234375 c 0
 510.333984375 61.9990234375 524.000976562 50.33203125 530.000976562 40.9990234375 c 0
 532.66796875 36.9990234375 534.000976562 32.666015625 534.000976562 27.9990234375 c 0
 534.000976562 25.9990234375 533.333984375 22.666015625 532.000976562 17.9990234375 c 0
 530.000976562 12.666015625 526.333984375 8.3330078125 521.000976562 5 c 0
 515.66796875 1.6669921875 508.000976562 -0.666015625 498.000976562 -1.9990234375 c 0
 495.333984375 -2.666015625 493.000976562 -2.9990234375 491.000976562 -2.9990234375 c 0
 482.333984375 -2.9990234375 472.666992188 -0.9990234375 462 3.0009765625 c 0
 445.333007812 8.333984375 425.333007812 19.6669921875 402 37 c 0
 378 54.3330078125 352 75.666015625 324 100.999023438 c 0
 296 126.33203125 268 151.999023438 240 177.999023438 c 0
 212 203.999023438 182.333007812 230.666015625 151 257.999023438 c 0
 119.666992188 285.33203125 93 306.999023438 71 322.999023438 c 0
 64.3330078125 328.33203125 60 335.665039062 58 344.998046875 c 0
 57.3330078125 349.665039062 57 354.33203125 57 358.999023438 c 0
 57 363.666015625 57.6669921875 368.333007812 59 373 c 0
 61.6669921875 381.666992188 66 388 72 392 c 0
 110 420 154.666992188 455.333007812 206 498 c 0
 257.333007812 540.666992188 304 579 346 613 c 0
 388.666992188 647 426.333984375 673.666992188 459.000976562 693 c 0
 469.000976562 699.666992188 478.333984375 703 487.000976562 703 c 0
 493.000976562 703 498.000976562 701.666992188 502.000976562 699 c 0
 513.333984375 693 521.333984375 684.666992188 526.000976562 674 c 0
 528.000976562 669.333007812 529.000976562 665 529.000976562 661 c 0
 528.333984375 657 526.666992188 652.666992188 524 648 c 0
EndSplineSet
Validated: 524289
EndChar

StartChar: equal
Encoding: 61 61 30
Width: 590
GlyphClass: 2
Flags: HMW
HStem: 256.909 63.091 452.907 66.0929
LayerCount: 2
Fore
SplineSet
149 519 m 2
 152 519 l 2
 190 517.666992188 229 517 269 517 c 0
 309.666992188 517 347.333984375 517.333007812 382.000976562 518 c 0
 416.66796875 518.666992188 437.66796875 519 445.000976562 519 c 0
 457.66796875 518.333007812 466.000976562 515.666015625 470.000976562 510.999023438 c 0
 474.66796875 506.33203125 477.334960938 499.665039062 478.001953125 490.998046875 c 0
 477.334960938 473.665039062 472.334960938 462.998046875 463.001953125 458.998046875 c 0
 460.334960938 457.665039062 457.334960938 456.998046875 454.001953125 456.998046875 c 2
 446.001953125 456.998046875 l 2
 430.668945312 457.665039062 416.668945312 457.998046875 404.001953125 457.998046875 c 2
 369.001953125 457.998046875 l 1
 259.001953125 454.998046875 l 2
 213.001953125 453.665039062 179.001953125 452.998046875 157.001953125 452.998046875 c 0
 155.66796875 452.9375 154.364257812 452.907226562 153.090820312 452.907226562 c 0
 140.364257812 452.907226562 130.66796875 455.9375 124.001953125 461.998046875 c 0
 116.668945312 467.998046875 113.001953125 475.331054688 113.001953125 483.998046875 c 2
 113.001953125 486.998046875 l 2
 113.668945312 495.665039062 116.668945312 502.998046875 122.001953125 508.998046875 c 0
 128.001953125 515.665039062 137 519 149 519 c 2
155.001953125 319.998046875 m 2
 176.334960938 319.331054688 201.66796875 318.998046875 231.000976562 318.998046875 c 0
 261.000976562 319.665039062 297.000976562 320.33203125 339.000976562 320.999023438 c 2
 445.000976562 322.999023438 l 2
 457.66796875 322.999023438 466.000976562 320.666015625 470.000976562 315.999023438 c 0
 474.66796875 310.666015625 477.334960938 303.666015625 478.001953125 294.999023438 c 0
 478.001953125 284.33203125 476.001953125 275.999023438 472.001953125 269.999023438 c 0
 469.334960938 266.666015625 466.334960938 264.333007812 463.001953125 263 c 0
 460.334960938 261.666992188 457.334960938 261 454.001953125 261 c 2
 446.001953125 261 l 2
 429.334960938 261.666992188 410.66796875 262 390.000976562 262 c 0
 369.333984375 262 324.666992188 261 256 259 c 0
 208.666992188 257.666992188 174.333984375 257 153.000976562 257 c 0
 151.727539062 256.939453125 150.487304688 256.909179688 149.280273438 256.909179688 c 0
 137.21484375 256.909179688 128.455078125 259.939453125 123.000976562 266 c 0
 116.333984375 272.666992188 113.000976562 280.666992188 113.000976562 290 c 2
 113.000976562 292 l 2
 113.66796875 300 117.000976562 306.666992188 123.000976562 312 c 0
 129.000976562 317.333007812 139.000976562 320 153.000976562 320 c 2
 155.001953125 319.998046875 l 2
EndSplineSet
Validated: 524289
EndChar

StartChar: greater
Encoding: 62 62 31
Width: 590
GlyphClass: 2
Flags: HMW
HStem: 690 20G<98.998 104.332>
LayerCount: 2
Fore
SplineSet
532 334 m 0
 529.333007812 325.333007812 525 319 519 315 c 0
 481 287 436.333007812 251.666992188 385 209 c 0
 333.666992188 166.333007812 287 128 245 94 c 0
 202.333007812 60.6669921875 164.666015625 34 131.999023438 14 c 0
 121.999023438 7.3330078125 112.33203125 4 102.999023438 4 c 0
 97.666015625 4 92.9990234375 5.3330078125 88.9990234375 8 c 0
 77.666015625 14 69.666015625 22.3330078125 64.9990234375 33 c 0
 62.9990234375 37.6669921875 61.9990234375 42 61.9990234375 46 c 0
 61.9990234375 50 63.33203125 54.3330078125 65.9990234375 59 c 0
 72.666015625 69.6669921875 86.9990234375 82.6669921875 108.999023438 98 c 0
 146.33203125 124 202.999023438 166.666992188 278.999023438 226 c 0
 354.999023438 286 403.666015625 323.666992188 424.999023438 339 c 2
 434.999023438 347 l 1
 424.999023438 354 l 2
 398.999023438 374 369.999023438 398.333007812 337.999023438 427 c 0
 305.999023438 455.666992188 277.999023438 481.333984375 253.999023438 504.000976562 c 0
 229.999023438 527.333984375 203.999023438 551.000976562 175.999023438 575.000976562 c 0
 147.33203125 599.000976562 122.665039062 617.66796875 101.998046875 631.000976562 c 0
 80.6650390625 645.000976562 66.998046875 656.66796875 60.998046875 666.000976562 c 0
 58.3310546875 670.66796875 56.998046875 675.334960938 56.998046875 680.001953125 c 0
 56.998046875 681.334960938 57.6650390625 684.334960938 58.998046875 689.001953125 c 0
 60.998046875 694.334960938 64.6650390625 698.66796875 69.998046875 702.000976562 c 0
 75.3310546875 705.333984375 82.998046875 707.666992188 92.998046875 709 c 0
 95.6650390625 709.666992188 97.998046875 710 99.998046875 710 c 0
 108.665039062 710 118.33203125 708 128.999023438 704 c 0
 144.999023438 698.666992188 164.999023438 687.333984375 188.999023438 670.000976562 c 0
 212.999023438 652.66796875 238.999023438 631.334960938 266.999023438 606.001953125 c 0
 294.999023438 580.668945312 322.999023438 555.001953125 350.999023438 529.001953125 c 0
 378.999023438 503.001953125 408.666015625 476.334960938 439.999023438 449.001953125 c 0
 470.666015625 421.668945312 497.333007812 400.001953125 520 384.001953125 c 0
 526.666992188 378.668945312 531 371.3359375 533 362.002929688 c 0
 533.666992188 357.3359375 534 352.668945312 534 348.001953125 c 0
 534 343.334960938 533.333007812 338.666992188 532 334 c 0
EndSplineSet
Validated: 524289
EndChar

StartChar: question
Encoding: 63 63 32
Width: 590
GlyphClass: 2
Flags: HMW
HStem: -4.00195 134.053 646.999 64.999
VStem: 201.999 143 412.999 80.001
LayerCount: 2
Fore
SplineSet
493 522 m 0
 493 505.333007812 490.333007812 490 485 476 c 0
 479.666992188 462.666992188 472.666992188 451 464 441 c 0
 455.333007812 431 445.333007812 421.333007812 434 412 c 0
 422 403.333007812 410 394.333007812 398 385 c 0
 386 375.666992188 374.333007812 365.666992188 363 355 c 0
 352.333007812 343.666992188 342.666015625 330.333984375 333.999023438 315.000976562 c 0
 325.33203125 299.66796875 319.665039062 282.66796875 316.998046875 264.000976562 c 0
 314.331054688 248.66796875 308.998046875 237.000976562 300.998046875 229.000976562 c 0
 296.331054688 225.000976562 289.998046875 223.000976562 281.998046875 223.000976562 c 0
 277.998046875 222.333984375 273.665039062 222.666992188 268.998046875 224 c 0
 253.665039062 228 243.665039062 235 238.998046875 245 c 0
 236.331054688 250.333007812 234.998046875 256.666015625 234.998046875 263.999023438 c 0
 234.998046875 271.999023438 235.998046875 280.666015625 237.998046875 289.999023438 c 0
 242.665039062 306.666015625 249.33203125 322.666015625 257.999023438 337.999023438 c 0
 266.666015625 353.33203125 275.999023438 366.33203125 285.999023438 376.999023438 c 0
 296.666015625 388.33203125 307.666015625 398.999023438 318.999023438 408.999023438 c 0
 330.33203125 418.999023438 341.33203125 428.666015625 351.999023438 437.999023438 c 0
 362.666015625 447.33203125 372.666015625 456.999023438 381.999023438 466.999023438 c 0
 390.666015625 476.999023438 397.999023438 487.999023438 403.999023438 499.999023438 c 0
 409.999023438 511.999023438 412.999023438 524.999023438 412.999023438 538.999023438 c 0
 412.999023438 576.999023438 401.666015625 604.666015625 378.999023438 621.999023438 c 0
 357.666015625 638.666015625 326.999023438 646.999023438 286.999023438 646.999023438 c 0
 276.33203125 646.999023438 265.665039062 644.666015625 254.998046875 639.999023438 c 0
 244.331054688 635.999023438 235.331054688 630.999023438 227.998046875 624.999023438 c 0
 220.665039062 618.999023438 212.998046875 611.33203125 204.998046875 601.999023438 c 0
 196.331054688 591.999023438 189.998046875 583.999023438 185.998046875 577.999023438 c 0
 181.998046875 571.999023438 176.998046875 564.666015625 170.998046875 555.999023438 c 0
 164.998046875 547.33203125 159.998046875 540.999023438 155.998046875 536.999023438 c 0
 151.998046875 533.666015625 147.998046875 531.666015625 143.998046875 530.999023438 c 2
 137.998046875 530.999023438 l 2
 135.998046875 530.999023438 133.331054688 531.33203125 129.998046875 531.999023438 c 0
 126.665039062 532.666015625 121.33203125 534.666015625 113.999023438 537.999023438 c 0
 105.999023438 542.666015625 100.999023438 548.999023438 98.9990234375 556.999023438 c 0
 98.318359375 559.040039062 97.8994140625 562.078125 97.8994140625 566.469726562 c 0
 97.8994140625 574.08984375 100.599609375 583.599609375 105.999023438 594.999023438 c 0
 120.666015625 622.33203125 141.666015625 647.665039062 168.999023438 670.998046875 c 0
 183.666015625 683.665039062 200.999023438 693.665039062 220.999023438 700.998046875 c 0
 240.999023438 708.331054688 261.666015625 711.998046875 282.999023438 711.998046875 c 0
 352.33203125 711.998046875 404.665039062 696.331054688 439.998046875 664.998046875 c 0
 475.331054688 633.665039062 493 586 493 522 c 0
273.998046875 -4.001953125 m 2
 264.999023438 -4.001953125 l 2
 264.0859375 -4.037109375 263.181640625 -4.0546875 262.286132812 -4.0546875 c 0
 246.165039062 -4.0546875 232.736328125 1.6298828125 222 12.998046875 c 0
 208.666992188 27.6650390625 202 44.6650390625 202 63.998046875 c 0
 202 81.3310546875 209.333007812 96.3310546875 224 108.998046875 c 0
 240 122.998046875 258.666992188 129.998046875 280 129.998046875 c 0
 280.947265625 130.033203125 281.88671875 130.05078125 282.817382812 130.05078125 c 0
 299.5703125 130.05078125 313.630859375 124.366210938 324.999023438 112.998046875 c 0
 338.33203125 100.331054688 344.999023438 84.6640625 344.999023438 65.9970703125 c 0
 344.999023438 47.330078125 338.666015625 31.6630859375 325.999023438 18.99609375 c 0
 312.666015625 6.3291015625 295.331054688 -1.3349609375 273.998046875 -4.001953125 c 2
EndSplineSet
Validated: 524289
EndChar

StartChar: at
Encoding: 64 64 33
Width: 590
GlyphClass: 2
Flags: HMW
HStem: -120 66.0049 111.004 59 127.005 61.002 391.008 56.998 623.005 69.9971
VStem: 46.999 67.0049 170.001 58.0029 352.004 61.001 490.005 53.9971
LayerCount: 2
Fore
SplineSet
494 9 m 0xdf80
 490.666992188 -0.3330078125 487 -8.3330078125 483 -15 c 0
 479.666992188 -22.3330078125 475 -30.666015625 469 -39.9990234375 c 0
 463 -49.9990234375 456.666992188 -58.33203125 450 -64.9990234375 c 0
 443.333007812 -71.666015625 434.666015625 -78.666015625 423.999023438 -85.9990234375 c 0
 413.999023438 -93.33203125 402.666015625 -99.33203125 389.999023438 -103.999023438 c 0
 377.33203125 -108.666015625 362.665039062 -112.333007812 345.998046875 -115 c 0
 329.331054688 -118.333007812 311.998046875 -120 293.998046875 -120 c 2
 287.998046875 -120 l 2
 254.665039062 -120 223.33203125 -111.666992188 193.999023438 -95 c 0
 163.999023438 -78.3330078125 138.33203125 -55 116.999023438 -25 c 0
 95.666015625 5 78.666015625 41.6669921875 65.9990234375 85 c 0
 53.33203125 129 46.9990234375 176.666992188 46.9990234375 228 c 0
 47.666015625 286 52.3330078125 340 61 390 c 0
 70.3330078125 440.666992188 83 484.333984375 99 521.000976562 c 0
 115 557.66796875 134 589.000976562 156 615.000976562 c 0
 177.333007812 641.66796875 201 661.334960938 227 674.001953125 c 0
 253 686.668945312 280.333007812 693.001953125 309 693.001953125 c 0
 331 693.001953125 350.666992188 691.334960938 368 688.001953125 c 0
 386 684.668945312 403 679.001953125 419 671.001953125 c 0
 435 663.001953125 449 652.334960938 461 639.001953125 c 0
 473.666992188 625.668945312 485.333984375 609.001953125 496.000976562 589.001953125 c 0
 506.66796875 569.001953125 515.334960938 545.334960938 522.001953125 518.001953125 c 0
 536.668945312 458.668945312 544.001953125 383.3359375 544.001953125 292.002929688 c 0
 543.334960938 244.669921875 536.334960938 203.336914062 523.001953125 168.00390625 c 0
 516.334960938 150.00390625 507.001953125 136.00390625 495.001953125 126.00390625 c 0
 483.668945312 116.00390625 470.001953125 111.00390625 454.001953125 111.00390625 c 0xdf80
 430.668945312 111.670898438 413.001953125 119.337890625 401.001953125 134.004882812 c 0
 391.001953125 146.004882812 384.668945312 163.671875 382.001953125 187.004882812 c 2
 378.001953125 232.004882812 l 1
 363.001953125 189.00390625 l 2
 356.334960938 170.336914062 347.66796875 156.004882812 337.000976562 146.004882812 c 0
 324.333984375 133.337890625 307.333984375 127.004882812 286.000976562 127.004882812 c 0
 249.333984375 127.671875 221.000976562 139.338867188 201.000976562 162.005859375 c 0
 180.333984375 184.672851562 170.000976562 220.005859375 170.000976562 268.005859375 c 0
 170.000976562 292.005859375 172.66796875 314.338867188 178.000976562 335.005859375 c 0
 183.333984375 355.672851562 190.666992188 373.005859375 200 387.005859375 c 0
 209.333007812 400.338867188 220 412.005859375 232 422.005859375 c 0
 244.666992188 432.005859375 257.333984375 439.005859375 270.000976562 443.005859375 c 0
 282.66796875 446.338867188 295.334960938 448.005859375 308.001953125 448.005859375 c 0
 326.001953125 448.005859375 343.334960938 444.672851562 360.001953125 438.005859375 c 0
 374.001953125 432.672851562 385.001953125 425.672851562 393.001953125 417.005859375 c 0
 397.668945312 411.672851562 400.001953125 407.33984375 400.001953125 404.006835938 c 0
 400.001953125 402.673828125 399.668945312 401.340820312 399.001953125 400.0078125 c 0
 395.001953125 392.0078125 390.001953125 387.0078125 384.001953125 385.0078125 c 0
 377.334960938 383.0078125 372.334960938 382.0078125 369.001953125 382.0078125 c 0
 363.668945312 382.674804688 356.3359375 384.0078125 347.002929688 386.0078125 c 2
 332.002929688 389.0078125 l 2
 326.002929688 390.340820312 320.3359375 391.0078125 315.002929688 391.0078125 c 2
 303.002929688 391.0078125 l 2
 293.669921875 390.340820312 284.336914062 387.0078125 275.00390625 381.0078125 c 0
 265.670898438 375.0078125 257.670898438 367.674804688 251.00390625 359.0078125 c 0
 243.670898438 351.0078125 238.00390625 340.005859375 234.00390625 326.005859375 c 0
 230.00390625 312.005859375 228.00390625 296.674804688 228.00390625 280.0078125 c 0
 228.00390625 271.340820312 228.670898438 262.673828125 230.00390625 254.006835938 c 0
 230.670898438 246.006835938 232.670898438 236.670898438 236.00390625 226.00390625 c 0
 239.336914062 215.336914062 245.00390625 206.33984375 253.00390625 199.006835938 c 0
 261.00390625 191.673828125 271.00390625 188.006835938 283.00390625 188.006835938 c 0xbf80
 307.670898438 188.006835938 325.337890625 198.006835938 336.004882812 218.006835938 c 0
 345.337890625 235.33984375 350.670898438 263.672851562 352.00390625 303.005859375 c 0
 352.670898438 309.672851562 359.337890625 315.672851562 372.004882812 321.005859375 c 0
 382.004882812 324.338867188 390.671875 326.005859375 398.004882812 326.005859375 c 0
 402.671875 326.005859375 407.002929688 325.338867188 411.002929688 324.005859375 c 0
 415.002929688 322.005859375 417.004882812 319.672851562 417.004882812 317.005859375 c 2
 417.004882812 315.005859375 l 2
 414.337890625 290.338867188 413.004882812 269.671875 413.004882812 253.004882812 c 0
 413.004882812 244.337890625 413.337890625 236.670898438 414.004882812 230.00390625 c 0
 416.671875 208.670898438 420.671875 193.670898438 426.004882812 185.00390625 c 0
 432.671875 175.00390625 442.001953125 170.00390625 454.001953125 170.00390625 c 0
 464.001953125 170.00390625 471.671875 176.336914062 477.004882812 189.00390625 c 0
 481.004882812 199.00390625 484.004882812 211.336914062 486.004882812 226.00390625 c 0
 488.671875 250.670898438 490.004882812 273.670898438 490.004882812 295.00390625 c 0
 490.004882812 329.670898438 488.671875 361.333007812 486.004882812 390 c 0
 482.671875 419.333007812 478.670898438 444.337890625 474.00390625 465.004882812 c 0
 469.336914062 486.337890625 463.336914062 505.337890625 456.00390625 522.004882812 c 0
 448.670898438 539.337890625 441.338867188 553.337890625 434.005859375 564.004882812 c 0
 426.672851562 574.671875 418.005859375 584.004882812 408.005859375 592.004882812 c 0
 398.005859375 599.337890625 389.334960938 605.004882812 382.001953125 609.004882812 c 0
 374.668945312 613.671875 366.005859375 617.004882812 356.005859375 619.004882812 c 0
 346.005859375 621.004882812 338.672851562 622.004882812 334.005859375 622.004882812 c 0
 329.338867188 622.671875 323.671875 623.004882812 317.004882812 623.004882812 c 0
 288.337890625 622.337890625 261.670898438 613.337890625 237.00390625 596.004882812 c 0
 212.336914062 578.671875 191.00390625 554.671875 173.00390625 524.004882812 c 0
 155.00390625 492.671875 140.670898438 454.671875 130.00390625 410.004882812 c 0
 119.336914062 365.337890625 114.00390625 316.670898438 114.00390625 264.00390625 c 0
 114.670898438 218.00390625 118.337890625 176.670898438 125.004882812 140.00390625 c 0
 132.337890625 102.670898438 141.670898438 72.337890625 153.00390625 49.0048828125 c 0
 164.336914062 25.671875 177.999023438 6.0048828125 193.999023438 -9.9951171875 c 0
 209.33203125 -25.9951171875 225.336914062 -37.328125 242.00390625 -43.9951171875 c 0
 258.670898438 -50.662109375 275.998046875 -53.9951171875 293.998046875 -53.9951171875 c 0
 311.331054688 -53.9951171875 327.669921875 -52.328125 343.002929688 -48.9951171875 c 0
 358.3359375 -45.662109375 371.002929688 -41.3291015625 381.002929688 -35.99609375 c 0
 391.669921875 -30.6630859375 401.669921875 -23.6669921875 411.002929688 -15 c 0
 419.669921875 -7 426.669921875 0.6708984375 432.002929688 8.00390625 c 0
 436.669921875 15.3369140625 442.336914062 24.3369140625 449.00390625 35.00390625 c 0
 451.670898438 39.6708984375 454.00390625 43.337890625 456.00390625 46.0048828125 c 0
 458.00390625 48.0048828125 460.00390625 50.671875 462.00390625 54.0048828125 c 0
 464.670898438 57.337890625 466.670898438 59.6708984375 468.00390625 61.00390625 c 2
 474.00390625 64.00390625 l 2
 476.670898438 66.00390625 480.337890625 66.00390625 485.004882812 64.00390625 c 0
 492.337890625 61.3369140625 497.337890625 57.00390625 500.004882812 51.00390625 c 0
 501.337890625 48.3369140625 502.004882812 45.669921875 502.004882812 43.0029296875 c 0
 502.004882812 34.3359375 499.333007812 23 494 9 c 0xdf80
EndSplineSet
Validated: 524289
EndChar

StartChar: A
Encoding: 65 65 34
Width: 590
GlyphClass: 2
Flags: HMW
HStem: 271 50.998
VStem: 47.999 72.001
LayerCount: 2
Fore
SplineSet
331.000976562 606.997070312 m 2
 303.66796875 561.6640625 264.66796875 466.331054688 214.000976562 320.998046875 c 2
 209.000976562 305.998046875 l 1
 223.000976562 307.998046875 l 2
 285.66796875 315.998046875 341.334960938 320.665039062 390.001953125 321.998046875 c 2
 401.001953125 321.998046875 l 1
 343.001953125 626.998046875 l 1
 331.000976562 606.997070312 l 2
463 53.9990234375 m 0
 455 74.666015625 438 147 412 271 c 0
 410 277.666992188 407.666992188 277.666992188 405 271 c 1
 325.666992188 267 252.666992188 259.33203125 186 247.999023438 c 1
 164 189.33203125 142 124.333007812 120 53 c 0
 114.666992188 35 107 23.330078125 97 17.9970703125 c 0
 91.6669921875 15.330078125 86.6669921875 13.9970703125 82 13.9970703125 c 0
 77.3330078125 13.9970703125 72.666015625 14.9970703125 67.9990234375 16.9970703125 c 0
 54.666015625 22.330078125 47.9990234375 34.3330078125 47.9990234375 53 c 0
 47.9990234375 61 49.33203125 70.3330078125 51.9990234375 81 c 0
 56.666015625 104.333007812 76.666015625 158.666015625 111.999023438 243.999023438 c 1
 109.33203125 251.999023438 106.999023438 253.33203125 104.999023438 247.999023438 c 1
 96.33203125 253.999023438 91.9990234375 260.999023438 91.9990234375 268.999023438 c 2
 91.9990234375 269.999023438 l 2
 91.33203125 275.999023438 94.33203125 281.999023438 100.999023438 287.999023438 c 0
 109.666015625 295.33203125 120.333007812 300.999023438 133 304.999023438 c 1
 134.333007812 311.666015625 135.666015625 311.998046875 136.999023438 305.998046875 c 1
 215.666015625 499.331054688 275.333007812 627.665039062 316 690.998046875 c 0
 324.666992188 703.665039062 331.833984375 712.498046875 337.500976562 717.498046875 c 0
 343.16796875 722.498046875 349.334960938 724.998046875 356.001953125 724.998046875 c 2
 357.001953125 724.998046875 l 1
 363.001953125 724.998046875 l 2
 370.334960938 724.998046875 377.334960938 722.998046875 384.001953125 718.998046875 c 0
 390.668945312 714.998046875 395.001953125 706.998046875 397.001953125 694.998046875 c 0
 410.334960938 612.331054688 433.334960938 494.998046875 466.001953125 342.998046875 c 0
 498.668945312 190.331054688 521.668945312 102.331054688 535.001953125 78.998046875 c 0
 540.334960938 69.6650390625 543.001953125 61.33203125 543.001953125 53.9990234375 c 0
 542.334960938 53.33203125 542.001953125 52.33203125 542.001953125 50.9990234375 c 0
 541.334960938 42.33203125 538.834960938 35.1650390625 534.501953125 29.498046875 c 0
 530.168945312 23.8310546875 525.001953125 19.6640625 519.001953125 16.9970703125 c 0
 514.334960938 14.9970703125 509.66796875 13.9970703125 505.000976562 13.9970703125 c 0
 499.66796875 13.9970703125 494.334960938 15.330078125 489.001953125 17.9970703125 c 0
 478.334960938 23.330078125 469.666992188 35.33203125 463 53.9990234375 c 0
EndSplineSet
Validated: 524289
EndChar

StartChar: B
Encoding: 66 66 35
Width: 590
GlyphClass: 2
Flags: HMW
HStem: -20.3672 79.3672 307 51.999 640.002 49.998
VStem: 71.998 77.7998 75.998 82.999 406.998 72.001 441 79.998
LayerCount: 2
Fore
SplineSet
392.995117188 260.001953125 m 0xea
 378.995117188 269.334960938 359.828125 278.16796875 335.495117188 286.500976562 c 0
 311.162109375 294.833984375 283.329101562 301.666992188 251.99609375 307 c 1
 250.99609375 307 l 2
 205.663085938 307 172.330078125 306.666992188 150.997070312 306 c 1
 154.330078125 192 156.997070312 109 158.997070312 57 c 1
 172.330078125 58.3330078125 186.997070312 59 202.997070312 59 c 0
 218.997070312 59.6669921875 230.997070312 60 238.997070312 60 c 0
 267.6640625 61.3330078125 294.831054688 66.666015625 320.498046875 75.9990234375 c 0
 346.165039062 85.33203125 367.33203125 96.9990234375 383.999023438 110.999023438 c 0
 400.666015625 124.33203125 414.333007812 138.83203125 425 154.499023438 c 0
 435.666992188 170.166015625 441 184.999023438 441 198.999023438 c 0
 441 219.666015625 424.995117188 240.001953125 392.995117188 260.001953125 c 0xea
161.998046875 626.999023438 m 2
 154.998046875 624.999023438 l 1
 154.998046875 607.666015625 154.331054688 584.999023438 152.998046875 556.999023438 c 0
 150.864257812 503.668945312 149.797851562 451.40625 149.797851562 400.209960938 c 0
 149.797851562 387.40625 149.864257812 374.668945312 149.998046875 361.999023438 c 1
 185.998046875 359.999023438 216.998046875 358.999023438 242.998046875 358.999023438 c 0
 262.331054688 358.999023438 279.831054688 360.83203125 295.498046875 364.499023438 c 0
 311.165039062 368.166015625 324.665039062 372.833007812 335.998046875 378.5 c 0
 347.331054688 384.166992188 357.331054688 391.166992188 365.998046875 399.5 c 0
 374.665039062 407.833007812 381.331054688 416.333007812 385.998046875 425 c 0
 390.665039062 433.666992188 394.666015625 443 397.999023438 453 c 0
 401.33203125 463 403.665039062 472.333007812 404.998046875 481 c 0
 406.331054688 489.666992188 406.998046875 498.333984375 406.998046875 507.000976562 c 0xf4
 406.331054688 525.66796875 402.6640625 543.000976562 395.997070312 559.000976562 c 0
 389.330078125 575.000976562 380.663085938 587.833984375 369.99609375 597.500976562 c 0
 359.329101562 607.16796875 347.662109375 615.334960938 334.995117188 622.001953125 c 0
 312.328125 634.001953125 288.328125 640.001953125 262.995117188 640.001953125 c 0
 228.995117188 640.001953125 195.331054688 635.666015625 161.998046875 626.999023438 c 2
502.5 130 m 0
 490.166992188 106.666992188 472.1640625 84.833984375 448.497070312 64.5009765625 c 0
 424.830078125 44.16796875 395.665039062 27.0009765625 360.998046875 13.0009765625 c 0
 326.998046875 -0.9990234375 289.331054688 -9.9990234375 247.998046875 -13.9990234375 c 1
 228.314453125 -20.3671875 l 2
 223.54296875 -20.3671875 218.771484375 -19.244140625 214 -16.9990234375 c 2
 195.47265625 -23.3671875 l 2
 190.981445312 -23.3671875 186.490234375 -22.244140625 181.999023438 -19.9990234375 c 0
 161.999023438 -21.9990234375 146.33203125 -22.9990234375 134.999023438 -22.9990234375 c 0
 127.666015625 -22.9990234375 120.666015625 -22.33203125 113.999023438 -20.9990234375 c 2
 109.999023438 -20.9990234375 l 2
 99.33203125 -21.666015625 90.6650390625 -18.3330078125 83.998046875 -11 c 0
 78.6650390625 -5 75.998046875 3.3330078125 75.998046875 14 c 2
 75.998046875 19 l 2xea
 77.3310546875 39.6669921875 77.998046875 74.333984375 77.998046875 123.000976562 c 0
 77.998046875 213.66796875 75.998046875 314.000976562 71.998046875 424.000976562 c 0
 70.6650390625 468.66796875 69.998046875 498.500976562 69.998046875 513.500976562 c 0
 69.998046875 528.500976562 70.6650390625 549.000976562 71.998046875 575.000976562 c 0
 73.3310546875 601.000976562 73.998046875 619.000976562 73.998046875 629.000976562 c 0
 74.6650390625 644.333984375 78.83203125 655.666992188 86.4990234375 663 c 0
 94.166015625 670.333007812 103.33203125 674 113.999023438 674 c 2
 118 674 l 1
 119 674 l 2
 130.333007812 677.333007812 141.665039062 680 152.998046875 682 c 0
 174.998046875 686 194.999023438 688.333007812 212.999023438 689 c 0
 222.999023438 689.666992188 230.666015625 690 235.999023438 690 c 2
 254.999023438 690 l 1
 264.999023438 690 l 2
 304.999023438 690 340.33203125 682 370.999023438 666 c 0
 402.999023438 650 428.999023438 626.833007812 448.999023438 596.5 c 0
 468.999023438 566.166992188 478.999023438 530 478.999023438 488 c 0xf4
 478.999023438 452.666992188 470.666015625 422.333984375 453.999023438 397.000976562 c 0
 437.33203125 371.66796875 414.665039062 353.000976562 385.998046875 341.000976562 c 1
 377.998046875 331.000976562 370.331054688 327.66796875 362.998046875 331.000976562 c 1
 370.998046875 321.000976562 378.665039062 318.000976562 385.998046875 322.000976562 c 1
 406.665039062 314.66796875 427.498046875 304.16796875 448.498046875 290.500976562 c 0
 469.498046875 276.833984375 486.831054688 261.666992188 500.498046875 245 c 0
 514.165039062 228.333007812 520.998046875 213.666015625 520.998046875 200.999023438 c 2
 520.998046875 198.999023438 l 2xe2
 520.998046875 176.33203125 514.833007812 153.333007812 502.5 130 c 0
EndSplineSet
Validated: 524289
EndChar

StartChar: C
Encoding: 67 67 36
Width: 590
GlyphClass: 2
Flags: HMW
HStem: -30.999 72.001 650.002 62.999
VStem: 56.999 80.999 450 83.001
LayerCount: 2
Fore
SplineSet
520 553.5 m 0
 511.333007812 541.166992188 503 534.333984375 495 533.000976562 c 2
 489 533.000976562 l 2
 481 533.000976562 472.666992188 535.66796875 464 541.000976562 c 0
 454.666992188 547.66796875 450 556.334960938 450 567.001953125 c 0
 450 572.334960938 450.666992188 588.334960938 452 615.001953125 c 1
 436.666992188 625.668945312 427.666992188 632.001953125 425 634.001953125 c 0
 422.333007812 636.001953125 418.333007812 638.334960938 413 641.001953125 c 0
 403 647.001953125 392.666992188 650.001953125 382 650.001953125 c 0
 361.333007812 650.001953125 339.5 642.668945312 316.5 628.001953125 c 0
 293.5 613.334960938 271.666992188 593.001953125 251 567.001953125 c 0
 230.333007812 541.001953125 211.666015625 511.334960938 194.999023438 478.001953125 c 0
 178.33203125 444.001953125 164.665039062 406.001953125 153.998046875 364.001953125 c 0
 143.331054688 322.001953125 137.998046875 279.668945312 137.998046875 237.001953125 c 0
 137.998046875 205.001953125 143.998046875 174.168945312 155.998046875 144.501953125 c 0
 167.998046875 114.834960938 184.665039062 90.001953125 205.998046875 70.001953125 c 0
 226.665039062 50.6689453125 249.665039062 41.001953125 274.998046875 41.001953125 c 0
 295.665039062 41.001953125 315.665039062 43.3349609375 334.998046875 48.001953125 c 0
 354.331054688 52.6689453125 371.831054688 58.8359375 387.498046875 66.5029296875 c 0
 403.165039062 74.169921875 416.998046875 81.669921875 428.998046875 89.0029296875 c 0
 440.331054688 96.3359375 451.331054688 104.3359375 461.998046875 113.002929688 c 0
 469.998046875 118.3359375 476.831054688 122.3359375 482.498046875 125.002929688 c 0
 488.165039062 127.669921875 493.998046875 129.002929688 499.998046875 129.002929688 c 0
 505.331054688 129.002929688 510.331054688 127.3359375 514.998046875 124.002929688 c 0
 523.665039062 117.3359375 527.998046875 109.668945312 527.998046875 101.001953125 c 0
 527.998046875 90.3349609375 521.665039062 77.66796875 508.998046875 63.0009765625 c 0
 454.998046875 0.333984375 375.998046875 -30.9990234375 271.998046875 -30.9990234375 c 2
 263.998046875 -30.9990234375 l 2
 239.998046875 -30.9990234375 217.331054688 -26.666015625 195.998046875 -17.9990234375 c 0
 173.998046875 -8.666015625 154.665039062 3.6669921875 137.998046875 19 c 0
 121.331054688 34.3330078125 106.831054688 52 94.498046875 72 c 0
 82.1650390625 92 72.83203125 113.333007812 66.4990234375 136 c 0
 60.166015625 158.666992188 56.9990234375 181.333984375 56.9990234375 204.000976562 c 0
 56.9990234375 252.66796875 61.9990234375 300.16796875 71.9990234375 346.500976562 c 0
 81.9990234375 392.833984375 95.33203125 434.333984375 111.999023438 471.000976562 c 0
 128.666015625 507.66796875 148.333007812 541.334960938 171 572.001953125 c 0
 191.666992188 603.334960938 213.5 629.16796875 236.5 649.500976562 c 0
 259.5 669.833984375 282.833007812 685.500976562 306.5 696.500976562 c 0
 330.166992188 707.500976562 353 713.000976562 375 713.000976562 c 0
 397 713.000976562 417.666992188 710.333984375 437 705.000976562 c 1
 439.666992188 710.333984375 442.666992188 709.333984375 446 702.000976562 c 1
 447.333007812 712.000976562 448.333007812 715.333984375 449 712.000976562 c 1
 451 720.000976562 455 726.66796875 461 732.000976562 c 0
 467 736.66796875 473.666992188 739.334960938 481 740.001953125 c 0
 484.333007812 740.668945312 486.333007812 741.001953125 487 741.001953125 c 0
 493.666992188 741.001953125 500.666992188 738.668945312 508 734.001953125 c 0
 516.666992188 728.668945312 522.333984375 720.3359375 525.000976562 709.002929688 c 0
 530.333984375 683.669921875 533.000976562 656.668945312 533.000976562 628.001953125 c 2
 533.000976562 591.002929688 l 2
 533.000976562 578.3359375 528.666992188 565.833007812 520 553.5 c 0
EndSplineSet
Validated: 524289
EndChar

StartChar: D
Encoding: 68 68 37
Width: 590
GlyphClass: 2
Flags: HMW
HStem: -31 75.999 675 20G<92.332 108.665>
VStem: 54.999 77.7113 459.001 76.9953
LayerCount: 2
Fore
SplineSet
309.99609375 551 m 0
 275.99609375 574.333007812 226.99609375 598.666015625 162.99609375 623.999023438 c 1
 161.99609375 624.999023438 l 1
 160.99609375 624.999023438 l 1
 159.99609375 625.999023438 l 1
 158.99609375 625.999023438 l 1
 157.99609375 625.999023438 l 1
 157.99609375 626.999023438 l 1
 156.99609375 626.999023438 l 1
 155.99609375 626.999023438 l 1
 154.99609375 626.999023438 l 1
 154.99609375 627.999023438 l 1
 153.99609375 627.999023438 l 1
 152.99609375 627.999023438 l 1
 151.99609375 627.999023438 l 1
 151.99609375 628.999023438 l 1
 150.99609375 628.999023438 l 1
 149.99609375 628.999023438 l 1
 148.994140625 629.999023438 l 1
 147.99609375 629.999023438 l 1
 134.99609375 643.999023438 l 1
 133.99609375 620.999023438 l 2
 133.138671875 583.283203125 132.709960938 546.118164062 132.709960938 509.50390625 c 0
 132.709960938 460.689453125 133.471679688 412.854492188 134.99609375 365.999023438 c 0
 136.329101562 324.666015625 137.662109375 275.166015625 138.995117188 217.499023438 c 0
 140.328125 159.83203125 141.661132812 114.33203125 142.994140625 80.9990234375 c 1
 148.994140625 78.9990234375 l 2
 176.327148438 66.33203125 203.994140625 57.4990234375 231.994140625 52.4990234375 c 0
 259.994140625 47.4990234375 291.994140625 44.9990234375 327.994140625 44.9990234375 c 0
 347.327148438 44.9990234375 365.327148438 51.83203125 381.994140625 65.4990234375 c 0
 398.661132812 79.166015625 412.328125 96.3330078125 422.995117188 117 c 0
 434.328125 137.666992188 443.161132812 160.166992188 449.494140625 184.5 c 0
 458.956054688 220.85546875 459.000976562 247.245117188 459.000976562 258.552734375 c 0
 459.000976562 385.967773438 409.333984375 483.450195312 309.99609375 551 c 0
527 152.5 m 0
 521 128.833007812 511.666992188 106 499 84 c 0
 486.333007812 62 471.666015625 42.5 454.999023438 25.5 c 0
 438.33203125 8.5 418.999023438 -5.3330078125 396.999023438 -16 c 0
 375.666015625 -26 352.999023438 -31 328.999023438 -31 c 2
 319.999023438 -31 l 2
 292.666015625 -31 265.166015625 -29.6669921875 237.499023438 -27 c 0
 209.83203125 -24.3330078125 187.33203125 -21 169.999023438 -17 c 0
 151.999023438 -12.3330078125 135.83203125 -8.3330078125 121.499023438 -5 c 0
 107.166015625 -1.6669921875 98.3330078125 0 95 0 c 0
 84.3330078125 0 75.666015625 3.3330078125 68.9990234375 10 c 0
 62.9990234375 16 59.9990234375 24.3330078125 59.9990234375 35 c 2
 59.9990234375 41 l 2
 61.9990234375 65 62.9990234375 102.333007812 62.9990234375 153 c 0
 62.33203125 243.666992188 59.9990234375 351.666992188 55.9990234375 477 c 0
 55.33203125 514.333007812 54.9990234375 538.833007812 54.9990234375 550.5 c 0
 54.9990234375 562.166992188 55.4990234375 580.333984375 56.4990234375 605.000976562 c 0
 57.4990234375 629.66796875 57.9990234375 644.66796875 57.9990234375 650.000976562 c 0
 58.666015625 665.333984375 62.666015625 676.666992188 69.9990234375 684 c 0
 77.33203125 691.333007812 86.6650390625 695 97.998046875 695 c 0
 119.331054688 695 146.6640625 691.666992188 179.997070312 685 c 0
 199.330078125 681 218.997070312 675.5 238.997070312 668.5 c 0
 258.997070312 661.5 280.6640625 651.833007812 303.997070312 639.5 c 0
 327.330078125 627.166992188 349.330078125 612.666992188 369.997070312 596 c 0
 390.6640625 579.333007812 410.997070312 559 430.997070312 535 c 0
 452.330078125 511 470.663085938 484.5 485.99609375 455.5 c 0
 501.329101562 426.5 513.49609375 391.833007812 522.49609375 351.5 c 0
 531.49609375 311.166992188 535.99609375 267.666992188 535.99609375 221 c 0
 535.99609375 199 533 176.166992188 527 152.5 c 0
EndSplineSet
Validated: 524289
EndChar

StartChar: E
Encoding: 69 69 38
Width: 590
GlyphClass: 2
Flags: HMW
HStem: -20 68.0039<176.666 237.338> -6 71.0039<463.333 495.338 471 495.338> 312.004 65.998 332.004 61.999 615.002 63.999
VStem: 68.999 76.0039
LayerCount: 2
Fore
SplineSet
484 -6 m 2x4c
 471 -6 l 2x4c
 455.666992188 -6 430.666992188 -7 396 -9 c 0
 295.333007812 -16.3330078125 225.666015625 -20 186.999023438 -20 c 0
 166.33203125 -20 148.999023438 -19.3330078125 134.999023438 -18 c 0
 121.666015625 -17.3330078125 108.166015625 -10.666015625 94.4990234375 2.0009765625 c 0
 80.83203125 14.66796875 72.9990234375 30.00390625 70.9990234375 48.00390625 c 0
 68.9990234375 64.00390625 67.9990234375 91.333984375 67.9990234375 130.000976562 c 0
 67.9990234375 168.66796875 68.33203125 210.66796875 68.9990234375 256.000976562 c 2
 68.9990234375 343.500976562 l 2
 68.9990234375 370.500976562 68.33203125 408.000976562 66.9990234375 456.000976562 c 0
 66.33203125 496.000976562 65.9990234375 522.333984375 65.9990234375 535.000976562 c 0
 65.9990234375 547.66796875 66.4990234375 566.500976562 67.4990234375 591.500976562 c 0
 68.4990234375 616.500976562 68.9990234375 632.333984375 68.9990234375 639.000976562 c 0
 69.666015625 654.333984375 73.8330078125 665.833984375 81.5 673.500976562 c 0
 89.1669921875 681.16796875 98.333984375 685.000976562 109.000976562 685.000976562 c 1
 109.66796875 678.333984375 110.66796875 678.333984375 112.000976562 685.000976562 c 1
 124.66796875 684.333984375 134.334960938 679.666992188 141.001953125 671 c 0
 142.334960938 663.666992188 143.669921875 662.333984375 145.002929688 667.000976562 c 1
 147.002929688 661.000976562 149.000976562 661.333984375 151.000976562 668.000976562 c 1
 201.66796875 675.333984375 265.334960938 679.000976562 342.001953125 679.000976562 c 0
 363.334960938 679.000976562 382.334960938 678.66796875 399.001953125 678.000976562 c 0
 437.668945312 676.000976562 468.3359375 673.666992188 491.002929688 671 c 0
 505.002929688 669.666992188 514.169921875 666.834960938 518.502929688 662.501953125 c 0
 522.8359375 658.168945312 525.002929688 652.001953125 525.002929688 644.001953125 c 0
 525.002929688 626.668945312 520.3359375 616.001953125 511.002929688 612.001953125 c 0
 507.002929688 610.001953125 503.502929688 609.168945312 500.502929688 609.501953125 c 0
 497.502929688 609.834960938 495.002929688 610.001953125 493.002929688 610.001953125 c 0
 446.3359375 613.334960938 401.002929688 615.001953125 357.002929688 615.001953125 c 0
 341.669921875 615.001953125 326.336914062 614.668945312 311.00390625 614.001953125 c 0
 253.00390625 612.668945312 202.00390625 608.668945312 158.00390625 602.001953125 c 1
 155.336914062 595.334960938 152.669921875 595.001953125 150.002929688 601.001953125 c 1
 146.669921875 525.668945312 145.002929688 454.668945312 145.002929688 388.001953125 c 2
 145.002929688 378.001953125 l 1xac
 198.3359375 378.668945312 263.668945312 381.3359375 341.001953125 386.002929688 c 0
 421.001953125 391.3359375 466.001953125 394.002929688 476.001953125 394.002929688 c 0
 488.668945312 394.002929688 497.3359375 391.502929688 502.002929688 386.502929688 c 0
 506.669921875 381.502929688 509.002929688 374.669921875 509.002929688 366.002929688 c 0
 509.002929688 354.669921875 507.002929688 346.336914062 503.002929688 341.00390625 c 0
 497.669921875 335.00390625 488.836914062 332.00390625 476.50390625 332.00390625 c 0x1c
 464.170898438 332.00390625 415.00390625 328.670898438 329.00390625 322.00390625 c 0
 245.00390625 315.336914062 187.00390625 312.00390625 155.00390625 312.00390625 c 1
 152.336914062 304.670898438 149.336914062 304.337890625 146.00390625 311.004882812 c 1
 146.00390625 284.337890625 146.336914062 247.670898438 147.00390625 201.00390625 c 0
 147.00390625 172.336914062 147.336914062 149.00390625 148.00390625 131.00390625 c 0
 149.336914062 93.00390625 152.00390625 68.6708984375 156.00390625 58.00390625 c 0
 156.670898438 50.00390625 157.336914062 48.6708984375 158.00390625 54.00390625 c 1
 160.00390625 47.3369140625 161.671875 47.00390625 163.004882812 53.00390625 c 1
 173.671875 49.6708984375 194.671875 48.00390625 226.004882812 48.00390625 c 0xac
 248.671875 48.00390625 277.00390625 48.6708984375 311.00390625 50.00390625 c 0
 392.336914062 54.00390625 445.666992188 58.3369140625 471 63.00390625 c 0
 479.666992188 64.3369140625 486.837890625 65.00390625 492.504882812 65.00390625 c 0x4c
 498.171875 65.00390625 503.004882812 64.00390625 507.004882812 62.00390625 c 0
 511.004882812 60.00390625 514.004882812 58.00390625 516.004882812 56.00390625 c 0
 518.004882812 54.00390625 519.671875 51.3369140625 521.004882812 48.00390625 c 0x8c
 522.337890625 44.6708984375 523.337890625 41.837890625 524.004882812 39.5048828125 c 0
 524.671875 37.171875 525.002929688 34.3388671875 525.002929688 31.005859375 c 0
 525.669921875 20.3388671875 522.338867188 11.005859375 515.005859375 3.005859375 c 0
 509.672851562 -3.6611328125 501.33984375 -6.994140625 490.006835938 -6.994140625 c 0
 488.006835938 -6.3271484375 486 -6 484 -6 c 2x4c
EndSplineSet
Validated: 524289
EndChar

StartChar: F
Encoding: 70 70 39
Width: 590
GlyphClass: 2
Flags: HMW
HStem: 310.003 62 323.003 64.999 619.002 67.998 675.001 20G
VStem: 66.995 77.8028 70.995 84.001
LayerCount: 2
Fore
SplineSet
492 682 m 0x28
 505.333007812 680.666992188 514 677.833007812 518 673.5 c 0
 522 669.166992188 524.333007812 662.666992188 525 654 c 0
 525 644.666992188 522 636.333984375 516 629.000976562 c 0
 511.333007812 622.333984375 502.666015625 619.000976562 489.999023438 619.000976562 c 2
 488.999023438 619.000976562 l 2
 452.33203125 621.000976562 415.33203125 622.000976562 377.999023438 622.000976562 c 0
 309.33203125 622.000976562 233.33203125 618.333984375 149.999023438 611.000976562 c 1
 149.33203125 594.333984375 148.665039062 573.333984375 147.998046875 548.000976562 c 0
 145.864257812 502.670898438 144.797851562 458.194335938 144.797851562 414.571289062 c 0
 144.797851562 403.661132812 144.864257812 392.8046875 144.998046875 382.001953125 c 0
 148.998046875 376.001953125 152.665039062 376.334960938 155.998046875 383.001953125 c 1
 183.331054688 386.334960938 212.6640625 388.001953125 243.997070312 388.001953125 c 2
 265.997070312 388.001953125 l 2x68
 305.997070312 386.668945312 341.997070312 384.668945312 373.997070312 382.001953125 c 0
 406.6640625 378.668945312 433.331054688 375.3359375 453.998046875 372.002929688 c 0
 468.665039062 369.3359375 477.998046875 366.002929688 481.998046875 362.002929688 c 0
 485.998046875 358.002929688 488.331054688 352.002929688 488.998046875 344.002929688 c 0
 488.998046875 334.002929688 486.665039062 325.3359375 481.998046875 318.002929688 c 0
 479.331054688 312.669921875 472.6640625 310.002929688 461.997070312 310.002929688 c 2
 456.997070312 310.002929688 l 2x88
 436.330078125 313.3359375 407.997070312 316.3359375 371.997070312 319.002929688 c 0
 337.997070312 321.669921875 299.6640625 323.002929688 256.997070312 323.002929688 c 0
 216.330078125 322.3359375 181.997070312 320.002929688 153.997070312 316.002929688 c 1
 151.330078125 309.3359375 148.663085938 309.002929688 145.99609375 315.002929688 c 1
 148.663085938 208.3359375 151.663085938 108.3359375 154.99609375 15.0029296875 c 0
 153.663085938 3.669921875 148.49609375 -5.330078125 139.49609375 -11.9970703125 c 0
 130.49609375 -18.6640625 120.329101562 -21.9970703125 108.99609375 -21.9970703125 c 1
 108.329101562 -27.9970703125 107.329101562 -27.6640625 105.99609375 -20.9970703125 c 1
 95.3291015625 -21.6640625 86.662109375 -18.3310546875 79.9951171875 -10.998046875 c 0
 73.9951171875 -4.998046875 70.9951171875 3.3349609375 70.9951171875 14.001953125 c 2
 70.9951171875 19.001953125 l 2x44
 72.9951171875 41.001953125 73.9951171875 77.6689453125 73.9951171875 129.001953125 c 0
 73.328125 223.668945312 70.9951171875 329.001953125 66.9951171875 445.001953125 c 0
 65.662109375 489.668945312 64.9951171875 519.668945312 64.9951171875 535.001953125 c 0
 64.9951171875 550.334960938 65.662109375 570.834960938 66.9951171875 596.501953125 c 0
 68.328125 622.168945312 68.9951171875 640.001953125 68.9951171875 650.001953125 c 0
 69.662109375 665.334960938 73.662109375 676.66796875 80.9951171875 684.000976562 c 0
 88.328125 691.333984375 97.6611328125 695.000976562 108.994140625 695.000976562 c 1
 110.994140625 688.333984375 112.661132812 688.333984375 113.994140625 695.000976562 c 1x58
 126.661132812 695.000976562 136.328125 690.66796875 142.995117188 682.000976562 c 1
 143.662109375 673.333984375 144.662109375 671.666992188 145.995117188 677 c 1
 225.995117188 683.666992188 300.995117188 687 370.995117188 687 c 0
 417.662109375 687 458 685.333007812 492 682 c 0x28
EndSplineSet
Validated: 524289
EndChar

StartChar: G
Encoding: 71 71 40
Width: 590
GlyphClass: 2
Flags: HMW
HStem: -31.002 72.002 248.5 74.501 285.998 64.5022 661 62.998
VStem: 56.003 79.998
LayerCount: 2
Fore
SplineSet
460 705 m 0xb8
 493.333007812 692.333007812 514.333007812 681.333007812 523 672 c 0
 531 664 535 654.666992188 535 644 c 0
 535.666992188 638 534.666992188 631.333007812 532 624 c 0
 530.666992188 618 526.333984375 613.666992188 519.000976562 611 c 0
 514.333984375 609.666992188 510.500976562 609 507.500976562 609 c 0
 504.500976562 609 500.333984375 609.666992188 495.000976562 611 c 0
 491.000976562 612.333007812 481.833984375 617.333007812 467.500976562 626 c 0
 453.16796875 634.666992188 438.000976562 642.666992188 422.000976562 650 c 0
 406.66796875 657.333007812 392.66796875 661 380.000976562 661 c 0
 359.333984375 661 337.500976562 653.5 314.500976562 638.5 c 0
 291.500976562 623.5 269.833984375 602.5 249.500976562 575.5 c 0
 229.16796875 548.5 210.66796875 518 194.000976562 484 c 0
 176.66796875 449.333007812 162.66796875 410.5 152.000976562 367.5 c 0
 141.333984375 324.5 136.000976562 281 136.000976562 237 c 0
 136.000976562 205 142.000976562 174.166992188 154.000976562 144.5 c 0
 166.000976562 114.833007812 182.66796875 90 204.000976562 70 c 0
 224.66796875 50.6669921875 247.66796875 41 273.000976562 41 c 0
 289.66796875 41 306.334960938 46.6669921875 323.001953125 58 c 0
 339.668945312 69.3330078125 354.501953125 83.666015625 367.501953125 100.999023438 c 0
 380.501953125 118.33203125 392.668945312 137.33203125 404.001953125 157.999023438 c 0
 415.334960938 178.666015625 425.001953125 198.999023438 433.001953125 218.999023438 c 0
 441.001953125 238.999023438 447.334960938 257.33203125 452.001953125 273.999023438 c 0
 453.334960938 276.666015625 454.66796875 280.999023438 456.000976562 286.999023438 c 1
 451.333984375 285.666015625 446.666992188 285.333007812 442 286 c 0
 402 284 363 280.166992188 325 274.5 c 0
 287 268.833007812 260.333007812 261.333007812 245 252 c 0
 241.666992188 250 238.333984375 248.833007812 235.000976562 248.5 c 0
 231.66796875 248.166992188 228.334960938 249.333984375 225.001953125 252.000976562 c 0
 217.668945312 257.333984375 213.3359375 264.333984375 212.002929688 273.000976562 c 2
 212.002929688 281.000976562 l 2
 212.002929688 298.333984375 222.3359375 312.333984375 243.002929688 323.000976562 c 0xd8
 259.002929688 332.333984375 295.3359375 339.666992188 352.002929688 345 c 0
 394.002929688 348.333007812 430.669921875 350 462.002929688 350 c 0
 468.002929688 350.333984375 473.669921875 350.500976562 479.002929688 350.500976562 c 0
 484.3359375 350.500976562 489.3359375 350.333984375 494.002929688 350 c 0
 508.669921875 348.666992188 518.336914062 346 523.00390625 342 c 0
 529.00390625 337.333007812 532.00390625 328.666015625 532.00390625 315.999023438 c 0
 532.00390625 309.33203125 530.836914062 303.665039062 528.50390625 298.998046875 c 0
 526.170898438 294.331054688 522.00390625 290.998046875 516.00390625 288.998046875 c 0
 514.00390625 286.331054688 512.00390625 285.331054688 510.00390625 285.998046875 c 1
 510.00390625 278.998046875 l 2
 510.00390625 276.998046875 509.50390625 271.665039062 508.50390625 262.998046875 c 0
 507.50390625 254.331054688 506.670898438 247.331054688 506.00390625 241.998046875 c 0
 504.670898438 227.998046875 500.670898438 211.831054688 494.00390625 193.498046875 c 0
 487.336914062 175.165039062 478.50390625 155.498046875 467.50390625 134.498046875 c 0
 456.50390625 113.498046875 443.336914062 92.998046875 428.00390625 72.998046875 c 0
 413.336914062 53.6650390625 397.669921875 35.998046875 381.002929688 19.998046875 c 0
 364.3359375 3.998046875 346.002929688 -8.6689453125 326.002929688 -18.001953125 c 0
 306.002929688 -26.6689453125 285.669921875 -31.001953125 265.002929688 -31.001953125 c 2
 263.002929688 -31.001953125 l 1
 262.002929688 -31.001953125 l 2
 238.002929688 -31.001953125 215.3359375 -26.6689453125 194.002929688 -18.001953125 c 0
 172.002929688 -8.6689453125 152.669921875 3.6640625 136.002929688 18.9970703125 c 0
 119.3359375 34.330078125 104.8359375 51.9970703125 92.5029296875 71.9970703125 c 0
 80.169921875 91.9970703125 71.0029296875 113.330078125 65.0029296875 135.997070312 c 0
 59.0029296875 158.6640625 56.0029296875 181.331054688 56.0029296875 203.998046875 c 0
 56.0029296875 253.998046875 60.8359375 302.665039062 70.5029296875 349.998046875 c 0
 80.169921875 397.331054688 93.3369140625 439.831054688 110.00390625 477.498046875 c 0
 126.670898438 515.165039062 146.337890625 549.665039062 169.004882812 580.998046875 c 0
 189.671875 612.331054688 211.504882812 638.331054688 234.504882812 658.998046875 c 0
 257.504882812 679.665039062 281.004882812 695.665039062 305.004882812 706.998046875 c 0
 329.004882812 718.331054688 352.004882812 723.998046875 374.004882812 723.998046875 c 0
 398.004882812 723.998046875 426.666992188 717.666992188 460 705 c 0xb8
EndSplineSet
Validated: 524289
EndChar

StartChar: H
Encoding: 72 72 41
Width: 590
GlyphClass: 2
Flags: HMW
HStem: 311.994 66.002 674.994 20G
VStem: 83.502 79.499 425 83.001 434 80.001
LayerCount: 2
Fore
SplineSet
160.5 292 m 0xe8
 160.166992188 287.333007812 160 284 160 282 c 0
 158 248.666992188 157 209.833984375 157 165.500976562 c 0
 157 121.16796875 158 70.9951171875 160 14.9951171875 c 0
 158.666992188 3.662109375 153.333984375 -5.337890625 144.000976562 -12.0048828125 c 0
 134.66796875 -18.671875 124.334960938 -22.0048828125 113.001953125 -22.0048828125 c 1
 112.334960938 -28.0048828125 111.334960938 -27.671875 110.001953125 -21.0048828125 c 1
 100.001953125 -21.671875 91.6689453125 -18.3388671875 85.001953125 -11.005859375 c 0
 79.001953125 -5.005859375 76.001953125 3 76.001953125 13 c 0
 76.6689453125 15 77.001953125 16.994140625 77.001953125 18.994140625 c 0
 78.3349609375 38.3271484375 79.001953125 81.3330078125 79.001953125 148 c 0
 79.001953125 182.666992188 79.3349609375 214 80.001953125 242 c 2
 80.001953125 243 l 2
 80.001953125 265 80.501953125 297.166992188 81.501953125 339.5 c 0
 82.501953125 381.833007812 83.1689453125 409.166015625 83.501953125 421.499023438 c 0
 83.8349609375 433.83203125 84.001953125 446.165039062 84.001953125 458.498046875 c 0
 84.001953125 470.831054688 83.6689453125 490.998046875 83.001953125 518.998046875 c 0
 82.3349609375 546.998046875 82.001953125 565.498046875 82.001953125 574.498046875 c 0
 82.001953125 583.498046875 83.001953125 608.662109375 85.001953125 649.995117188 c 0
 85.6689453125 665.328125 89.6689453125 676.661132812 97.001953125 683.994140625 c 0
 104.334960938 691.327148438 113.66796875 694.994140625 125.000976562 694.994140625 c 2
 128.000976562 694.994140625 l 2
 138.66796875 694.994140625 147.66796875 691.827148438 155.000976562 685.494140625 c 0
 162.333984375 679.161132812 166.000976562 668.328125 166.000976562 652.995117188 c 0
 166.000976562 646.328125 165.16796875 632.1640625 163.500976562 610.497070312 c 0
 161.833984375 588.830078125 161 568.830078125 161 550.497070312 c 0
 161 532.1640625 161.333984375 505.1640625 162.000976562 469.497070312 c 0
 162.66796875 433.830078125 163.000976562 406.663085938 163.000976562 387.99609375 c 2
 163.000976562 377.99609375 l 2
 165.66796875 371.329101562 168.66796875 371.329101562 172.000976562 377.99609375 c 1
 225.333984375 379.329101562 289.333984375 385.662109375 364.000976562 396.995117188 c 0
 392.66796875 400.995117188 415.66796875 403.662109375 433.000976562 404.995117188 c 1
 433.000976562 413.995117188 l 2
 433.000976562 418.662109375 432.66796875 425.662109375 432.000976562 434.995117188 c 0
 431.333984375 444.328125 431.000976562 451.328125 431.000976562 455.995117188 c 0
 430.333984375 497.328125 430.000976562 524.495117188 430.000976562 537.495117188 c 0
 430.000976562 550.495117188 430.66796875 570.995117188 432.000976562 598.995117188 c 0
 433.333984375 626.995117188 434 643.995117188 434 649.995117188 c 0
 434 665.328125 437.833984375 676.661132812 445.500976562 683.994140625 c 0
 453.16796875 691.327148438 462.334960938 694.994140625 473.001953125 694.994140625 c 2
 476.001953125 694.994140625 l 2
 487.334960938 694.994140625 496.66796875 691.827148438 504.000976562 685.494140625 c 0
 511.333984375 679.161132812 515.000976562 668.328125 515.000976562 652.995117188 c 0
 515.000976562 640.328125 514.500976562 614.495117188 513.500976562 575.495117188 c 0
 512.500976562 536.495117188 512.000976562 501.995117188 512.000976562 471.995117188 c 0
 512.000976562 441.995117188 512.333984375 398.995117188 513.000976562 342.995117188 c 0
 513.66796875 327.662109375 514.000976562 305.995117188 514.000976562 277.995117188 c 0xe8
 514.000976562 249.995117188 513.000976562 206.495117188 511.000976562 147.495117188 c 0
 509.000976562 88.4951171875 508.000976562 46.9951171875 508.000976562 22.9951171875 c 2
 508.000976562 16.9951171875 l 1
 508.000976562 14.9951171875 l 2
 508.000976562 4.328125 502.66796875 -4.671875 492.000976562 -12.0048828125 c 0
 483.333984375 -18.671875 473.333984375 -22.0048828125 462.000976562 -22.0048828125 c 1
 461.333984375 -28.0048828125 460.333984375 -27.671875 459.000976562 -21.0048828125 c 1
 448.333984375 -21.671875 439.66796875 -18.3388671875 433.000976562 -11.005859375 c 0
 427.66796875 -5.005859375 425 3.3271484375 425 13.994140625 c 2
 425 18.994140625 l 1xf0
 431 103.661132812 434 197.661132812 434 300.994140625 c 2
 434 342.995117188 l 1
 430 336.328125 426.333007812 335.994140625 423 341.994140625 c 1
 411.666992188 341.327148438 373.666992188 335.994140625 309 325.994140625 c 0
 245 316.661132812 198.666992188 311.994140625 170 311.994140625 c 2
 161 311.994140625 l 1
 161 301.994140625 l 2
 161 299.994140625 160.833007812 296.666992188 160.5 292 c 0xe8
EndSplineSet
Validated: 524289
EndChar

StartChar: I
Encoding: 73 73 42
Width: 590
GlyphClass: 2
Flags: HMW
HStem: -6.40211 58.3992 612 69.001 624 64.001
VStem: 253.998 76.001 260.998 75.001
LayerCount: 2
Fore
SplineSet
257.999023438 540 m 2xc8
 257.999023438 546.666992188 258.665039062 560.001953125 259.998046875 580.001953125 c 0
 261.331054688 600.001953125 261.999023438 611.668945312 261.999023438 615.001953125 c 2
 261.999023438 624.001953125 l 1
 227.999023438 624.668945312 199.666015625 625.001953125 176.999023438 625.001953125 c 0
 152.33203125 625.001953125 135.33203125 624.834960938 125.999023438 624.501953125 c 0
 116.666015625 624.168945312 111.666015625 624.001953125 110.999023438 624.001953125 c 0
 97.666015625 624.001953125 87.8330078125 626.834960938 81.5 632.501953125 c 0
 75.1669921875 638.168945312 72 645.3359375 72 654.002929688 c 2
 72 657.002929688 l 2
 72 665.002929688 75 672.169921875 81 678.502929688 c 0
 87 684.8359375 97.3330078125 688.002929688 112 688.002929688 c 0xa8
 167.333007812 690.002929688 216.997070312 691.002929688 260.997070312 691.002929688 c 0
 348.997070312 691.002929688 424.666015625 687.669921875 487.999023438 681.002929688 c 0
 499.33203125 679.669921875 508 677.002929688 514 673.002929688 c 0
 520.666992188 668.3359375 524.333984375 660.668945312 525.000976562 650.001953125 c 0
 525.000976562 640.001953125 522.000976562 630.668945312 516.000976562 622.001953125 c 0
 513.333984375 618.001953125 509.666992188 615.001953125 505 613.001953125 c 0
 501.666992188 611.668945312 498.666992188 611.001953125 496 611.001953125 c 0
 493.333007812 611.001953125 490.666015625 611.334960938 487.999023438 612.001953125 c 0
 467.33203125 615.334960938 416.665039062 619.001953125 335.998046875 623.001953125 c 1
 335.998046875 613.001953125 l 2
 335.998046875 607.668945312 335.665039062 590.168945312 334.998046875 560.501953125 c 0
 334.331054688 530.834960938 333.998046875 504.66796875 333.998046875 482.000976562 c 2
 333.998046875 436.000976562 l 2
 333.998046875 415.333984375 334.331054688 394.166992188 334.998046875 372.5 c 0
 335.665039062 350.833007812 335.998046875 326.166015625 335.998046875 298.499023438 c 0xc8
 335.998046875 270.83203125 334.998046875 227.999023438 332.998046875 169.999023438 c 0
 330.998046875 111.999023438 329.998046875 75.9990234375 329.998046875 61.9990234375 c 2
 329.998046875 51.9990234375 l 1
 338.998046875 51.9990234375 l 2
 362.998046875 51.9990234375 414.331054688 51.666015625 492.998046875 50.9990234375 c 0
 506.331054688 50.9990234375 515.1640625 48.4990234375 519.497070312 43.4990234375 c 0
 523.830078125 38.4990234375 526.330078125 31.666015625 526.997070312 22.9990234375 c 0
 526.997070312 17.666015625 526.497070312 12.9990234375 525.497070312 8.9990234375 c 0
 524.497070312 4.9990234375 522.6640625 0.9990234375 519.997070312 -3.0009765625 c 0
 518.6640625 -6.333984375 516.331054688 -8.5009765625 512.998046875 -9.5009765625 c 0
 509.665039062 -10.5009765625 506.498046875 -11.16796875 503.498046875 -11.5009765625 c 0
 500.498046875 -11.833984375 497.665039062 -11.6669921875 494.998046875 -11 c 0
 476.998046875 -8.3330078125 448.331054688 -7 408.998046875 -7 c 0
 404.331054688 -7 392.998046875 -6.8330078125 374.998046875 -6.5 c 0
 371.400390625 -6.43359375 367.549804688 -6.400390625 363.446289062 -6.400390625 c 0
 347.018554688 -6.400390625 326.536132812 -6.93359375 301.999023438 -8 c 2
 235.999023438 -15.2001953125 l 2
 221.33203125 -15.2001953125 206.665039062 -14.1337890625 191.998046875 -12.0009765625 c 0
 150.665039062 -13.333984375 122.165039062 -14.0009765625 106.498046875 -14.0009765625 c 0
 90.8310546875 -14.0009765625 79.8310546875 -11.5009765625 73.498046875 -6.5009765625 c 0
 67.1650390625 -1.5009765625 63.998046875 4.9990234375 63.998046875 12.9990234375 c 2
 63.998046875 14.9990234375 l 2
 63.998046875 22.9990234375 66.998046875 30.166015625 72.998046875 36.4990234375 c 0
 78.998046875 42.83203125 89.3310546875 46.33203125 103.998046875 46.9990234375 c 0
 131.998046875 47.666015625 181.998046875 48.998046875 253.998046875 50.998046875 c 1xd0
 258.665039062 133.665039062 260.998046875 215.999023438 260.998046875 297.999023438 c 0
 261.220703125 311.783203125 261.33203125 325.641601562 261.33203125 339.57421875 c 0
 261.33203125 367.418945312 260.887695312 395.560546875 259.999023438 423.998046875 c 0
 258.666015625 453.331054688 257.999023438 484.998046875 257.999023438 518.998046875 c 2
 257.999023438 540 l 2xc8
EndSplineSet
Validated: 524289
EndChar

StartChar: J
Encoding: 74 74 43
Width: 590
GlyphClass: 2
Flags: HMW
HStem: -34.999 82.001 626 65.001
VStem: 61.999 70 315.999 64.001
LayerCount: 2
Fore
SplineSet
200 626 m 0
 168.666992188 626 146.999023438 625.666015625 134.999023438 624.999023438 c 0
 122.999023438 624.33203125 116.666015625 623.999023438 115.999023438 623.999023438 c 0
 102.666015625 623.999023438 92.666015625 626.83203125 85.9990234375 632.499023438 c 0
 79.33203125 638.166015625 75.9990234375 645.333007812 75.9990234375 654 c 2
 75.9990234375 657 l 2
 75.9990234375 665 79.166015625 672.166992188 85.4990234375 678.5 c 0
 91.83203125 684.833007812 102.33203125 688 116.999023438 688 c 0
 171.666015625 690 220.999023438 691 264.999023438 691 c 0
 352.999023438 691 428.666015625 687.666992188 491.999023438 681 c 0
 503.33203125 680.333007812 511.999023438 677.666015625 517.999023438 672.999023438 c 0
 524.666015625 668.33203125 528.333007812 660.665039062 529 649.998046875 c 0
 529 639.998046875 526 630.665039062 520 621.998046875 c 0
 517.333007812 617.998046875 513.666015625 614.998046875 508.999023438 612.998046875 c 0
 506.33203125 611.665039062 503.499023438 610.998046875 500.499023438 610.998046875 c 0
 497.499023438 610.998046875 494.666015625 611.331054688 491.999023438 611.998046875 c 0
 471.999023438 615.331054688 433.33203125 618.331054688 375.999023438 620.998046875 c 1
 375.999023438 610.998046875 l 2
 375.999023438 591.665039062 376.666015625 562.33203125 377.999023438 522.999023438 c 0
 378.666015625 480.999023438 379.666015625 445.33203125 380.999023438 415.999023438 c 0
 382.33203125 387.999023438 382.999023438 353.83203125 382.999023438 313.499023438 c 0
 382.999023438 273.166015625 381.999023438 237.333007812 379.999023438 206 c 0
 375.33203125 146 368.165039062 98 358.498046875 62 c 0
 348.831054688 26 337.6640625 0.8330078125 324.997070312 -13.5 c 0
 312.330078125 -27.8330078125 297.330078125 -35 279.997070312 -35 c 0
 260.6640625 -35 241.331054688 -31.1669921875 221.998046875 -23.5 c 0
 202.665039062 -15.8330078125 185.665039062 -5.666015625 170.998046875 7.0009765625 c 0
 155.665039062 19.66796875 141.165039062 33.66796875 127.498046875 49.0009765625 c 0
 113.831054688 64.333984375 102.498046875 79.5009765625 93.498046875 94.5009765625 c 0
 84.498046875 109.500976562 77.3310546875 123.000976562 71.998046875 135.000976562 c 0
 66.6650390625 147.000976562 63.6650390625 156.66796875 62.998046875 164.000976562 c 0
 62.3310546875 167.333984375 61.998046875 171.000976562 61.998046875 175.000976562 c 0
 61.998046875 183.000976562 63.3310546875 192.000976562 65.998046875 202.000976562 c 0
 67.3310546875 208.66796875 70.498046875 214.16796875 75.498046875 218.500976562 c 0
 80.498046875 222.833984375 86.998046875 225.666992188 94.998046875 227 c 2
 102.998046875 227 l 2
 110.998046875 227.666992188 117.331054688 225.666992188 121.998046875 221 c 0
 128.665039062 214.333007812 131.998046875 206 131.998046875 196 c 0
 131.998046875 176.666992188 137.998046875 154.333984375 149.998046875 129.000976562 c 0
 156.665039062 115.000976562 165.33203125 102.000976562 175.999023438 90.0009765625 c 0
 185.33203125 78.0009765625 198.165039062 67.833984375 214.498046875 59.5009765625 c 0
 230.831054688 51.16796875 248.998046875 47.0009765625 268.998046875 47.0009765625 c 0
 283.665039062 47.0009765625 294.665039062 60.66796875 301.998046875 88.0009765625 c 0
 309.331054688 117.333984375 313.998046875 164.666992188 315.998046875 230 c 2
 315.998046875 254 l 2
 315.998046875 267.333007812 315.498046875 310 314.498046875 382 c 0
 313.8984375 425.202148438 313.598632812 471.404296875 313.598632812 520.606445312 c 0
 313.598632812 553.404296875 313.732421875 587.536132812 313.999023438 623.000976562 c 1
 267.999023438 625.000976562 230 626 200 626 c 0
EndSplineSet
Validated: 524289
EndChar

StartChar: K
Encoding: 75 75 44
Width: 590
GlyphClass: 2
Flags: HMW
HStem: -21.0341 21G 694.001 21G
VStem: 69 79.002 73.002 83
LayerCount: 2
Fore
SplineSet
67 541.5 m 0xe0
 67 556.5 67.66796875 578.333007812 69.0009765625 607 c 0
 70.333984375 635 71.0009765625 652.666992188 71.0009765625 660 c 0
 71.66796875 678.666992188 75.66796875 692.333984375 83.0009765625 701.000976562 c 0
 90.333984375 709.66796875 99.6669921875 714.000976562 111 714.000976562 c 2
 114 714.000976562 l 2
 124.666992188 714.66796875 133.666992188 711.000976562 141 703.000976562 c 0
 148.333007812 695.66796875 152 682.334960938 152 663.001953125 c 0
 152 647.668945312 151.333007812 613.001953125 150 559.001953125 c 0
 148.666992188 505.001953125 147.666992188 452.334960938 147 401.001953125 c 1
 181 437.001953125 220.333007812 480.001953125 265 530.001953125 c 0
 354.333007812 625.334960938 407 680.001953125 423 694.001953125 c 0
 431 703.334960938 438.666992188 709.334960938 446 712.001953125 c 0
 450.666992188 714.001953125 454.666992188 715.001953125 458 715.001953125 c 0
 464.666992188 715.001953125 471 711.000976562 477 703.000976562 c 0
 482.333007812 694.333984375 485 685.334960938 485 676.001953125 c 0
 485 667.334960938 479 657.334960938 467 646.001953125 c 0
 457 634.001953125 423 597.668945312 365 537.001953125 c 0
 309.666992188 473.668945312 258.333984375 416.001953125 211.000976562 364.001953125 c 1
 217.000976562 357.001953125 l 2
 238.333984375 333.668945312 274.000976562 296.3359375 324.000976562 245.002929688 c 0
 424.66796875 142.3359375 485.000976562 79.3359375 505.000976562 56.0029296875 c 0
 513.66796875 46.0029296875 519.000976562 39.3359375 521.000976562 36.0029296875 c 0
 523.000976562 32.669921875 524.000976562 29.3369140625 524.000976562 26.00390625 c 0
 524.000976562 20.00390625 523.333984375 14.6708984375 522.000976562 10.00390625 c 0
 518.66796875 0.00390625 513.66796875 -7.6630859375 507.000976562 -12.99609375 c 0
 500.333984375 -18.3291015625 494.000976562 -20.9970703125 488.000976562 -20.9970703125 c 0
 487.60546875 -21.021484375 487.208984375 -21.0341796875 486.811523438 -21.0341796875 c 0
 476.4921875 -21.0341796875 465.555664062 -12.6875 454 4.0029296875 c 0
 446.666992188 13.3359375 423 36.3359375 383 73.0029296875 c 0
 345.666992188 110.3359375 305.333984375 151.3359375 262.000976562 196.002929688 c 0
 218.66796875 244.002929688 186.334960938 282.002929688 165.001953125 310.002929688 c 2
 148.001953125 331.002929688 l 1
 148.001953125 284.002929688 l 1xe0
 156.001953125 24.001953125 l 2
 155.334960938 9.3349609375 150.33203125 -1.9970703125 140.999023438 -9.9970703125 c 0
 131.666015625 -17.9970703125 121.3359375 -21.9970703125 110.002929688 -21.9970703125 c 1
 109.3359375 -27.9970703125 108.3359375 -27.6640625 107.002929688 -20.9970703125 c 1
 96.3359375 -21.6640625 87.6689453125 -17.3310546875 81.001953125 -7.998046875 c 0
 75.6689453125 0.001953125 73.001953125 10.6689453125 73.001953125 24.001953125 c 2
 73.001953125 28.001953125 l 2xd0
 75.001953125 50.001953125 76.001953125 86.6689453125 76.001953125 138.001953125 c 0
 75.3349609375 233.334960938 73 339.001953125 69 455.001953125 c 0
 67.6669921875 497.668945312 67 526.5 67 541.5 c 0xe0
EndSplineSet
Validated: 524289
EndChar

StartChar: L
Encoding: 76 76 45
Width: 590
GlyphClass: 2
Flags: HMW
HStem: -15 67.001
VStem: 96.998 72.0039
LayerCount: 2
Fore
SplineSet
513.5 72.5 m 0
 516.5 68.1669921875 519 63.5 521 58.5 c 0
 523 53.5 524 48.6669921875 524 44 c 0
 524 34 521.833007812 26.5 517.5 21.5 c 0
 513.166992188 16.5 503.666992188 12.6669921875 489 10 c 0
 444.333007812 1.3330078125 379.333007812 -5 294 -9 c 0
 208 -13 143.666992188 -15 101 -15 c 0
 91 -15.6669921875 82.6669921875 -12.333984375 76 -5.0009765625 c 0
 70 0.9990234375 67 9.33203125 67 19.9990234375 c 0
 67 21.9990234375 67.1669921875 24.9990234375 67.5 28.9990234375 c 0
 67.8330078125 32.9990234375 71.666015625 69.9990234375 78.9990234375 139.999023438 c 0
 86.33203125 211.33203125 91.6650390625 279.999023438 94.998046875 345.999023438 c 0
 96.3310546875 363.999023438 96.998046875 388.166015625 96.998046875 418.499023438 c 0
 96.998046875 448.83203125 96.8310546875 471.83203125 96.498046875 487.499023438 c 0
 96.1650390625 503.166015625 95.33203125 554.333007812 93.9990234375 641 c 0
 94.666015625 657 98.8330078125 668.666992188 106.5 676 c 0
 114.166992188 683.333007812 123.333984375 687 134.000976562 687 c 2
 137.000976562 687 l 2
 147.66796875 687 156.66796875 683.666992188 164.000976562 677 c 0
 171.333984375 670.333007812 175.000976562 659.666015625 175.000976562 644.999023438 c 0
 175.223632812 638.7734375 175.334960938 631.732421875 175.334960938 623.875976562 c 0
 175.334960938 608.174804688 174.890625 589.215820312 174.001953125 566.999023438 c 0
 172.001953125 517.666015625 170.334960938 475.333007812 169.001953125 440 c 0
 167.001953125 389.333007812 165.333984375 345.333007812 164.000976562 308 c 0
 163.333984375 280.666992188 161.001953125 240.333984375 157.001953125 187.000976562 c 0
 153.001953125 133.66796875 151.001953125 92.0009765625 151.001953125 62.0009765625 c 2
 151.001953125 52.0009765625 l 1
 175.000976562 52.0009765625 l 2
 224.333984375 52.66796875 281.66796875 56.3349609375 347.000976562 63.001953125 c 0
 415.000976562 69.6689453125 461.66796875 76.001953125 487.000976562 82.001953125 c 0
 489.66796875 82.6689453125 492.16796875 83.001953125 494.500976562 83.001953125 c 0
 496.833984375 83.001953125 499.333984375 82.6689453125 502.000976562 82.001953125 c 0
 506.66796875 80.001953125 510.5 76.8330078125 513.5 72.5 c 0
EndSplineSet
Validated: 524289
EndChar

StartChar: M
Encoding: 77 77 46
Width: 590
GlyphClass: 2
Flags: HMW
HStem: -10 21G<74 79.334> 684.001 20G
VStem: 45 68.001 251.001 85.999
LayerCount: 2
Fore
SplineSet
102 5 m 0
 94 -5 84.6669921875 -10 74 -10 c 0
 54.6669921875 -9.3330078125 45 13.333984375 45 58.0009765625 c 0
 45 66.0009765625 45.8330078125 79.833984375 47.5 99.5009765625 c 0
 49.1669921875 119.16796875 51.6669921875 145.000976562 55 177.000976562 c 0
 58.3330078125 209.000976562 61 237.000976562 63 261.000976562 c 0
 69 342.333984375 73 394.000976562 75 416.000976562 c 0
 77.6669921875 444.66796875 81 480.000976562 85 522.000976562 c 0
 93 603.333984375 101.333007812 652.333984375 110 669.000976562 c 0
 116.666992188 681.000976562 126 690.000976562 138 696.000976562 c 0
 149.333007812 701.333984375 160 704.000976562 170 704.000976562 c 2
 174 704.000976562 l 2
 185.333007812 704.000976562 194.666015625 702.000976562 201.999023438 698.000976562 c 0
 210.666015625 692.66796875 216.333007812 684.334960938 219 673.001953125 c 0
 226.333007812 643.668945312 234.5 595.3359375 243.5 528.002929688 c 0
 252.5 460.669921875 261.666992188 383.502929688 271 296.502929688 c 0
 280.333007812 209.502929688 287.000976562 152.002929688 291.000976562 124.002929688 c 0
 293.66796875 106.669921875 296.666992188 84 300 56 c 1
 302 83.3330078125 303.666992188 106.002929688 305 124.002929688 c 0
 311 218.669921875 318 303.669921875 326 379.002929688 c 0
 332 434.3359375 339.833007812 489.668945312 349.5 545.001953125 c 0
 359.166992188 600.334960938 367.666992188 643.001953125 375 673.001953125 c 0
 377 681.001953125 381.5 687.668945312 388.5 693.001953125 c 0
 395.5 698.334960938 402.666992188 701.66796875 410 703.000976562 c 0
 415.333007812 703.66796875 420 704.000976562 424 704.000976562 c 2
 434 704.000976562 l 1
 438 704.000976562 l 1
 451 704.000976562 l 2
 454.333007812 704.000976562 458.833007812 703.333984375 464.5 702.000976562 c 0
 470.166992188 700.66796875 474.333984375 698.834960938 477.000976562 696.501953125 c 0
 479.66796875 694.168945312 482.500976562 690.668945312 485.500976562 686.001953125 c 0
 488.500976562 681.334960938 490.66796875 675.334960938 492.000976562 668.001953125 c 0
 494.66796875 647.334960938 502.500976562 547.501953125 515.500976562 368.501953125 c 0
 528.500976562 189.501953125 537.66796875 88.001953125 543.000976562 64.001953125 c 0
 545.000976562 53.3349609375 546.000976562 43.66796875 546.000976562 35.0009765625 c 0
 546.000976562 15.0009765625 539.000976562 1.66796875 525.000976562 -4.9990234375 c 0
 520.333984375 -6.9990234375 515.500976562 -7.9990234375 510.500976562 -7.9990234375 c 0
 505.500976562 -7.9990234375 500.000976562 -6.33203125 494.000976562 -2.9990234375 c 0
 484.000976562 2.333984375 476.000976562 14.333984375 470.000976562 33.0009765625 c 0
 456.000976562 77.0009765625 443.66796875 271.000976562 433.000976562 615.000976562 c 0
 432.333984375 631.66796875 431.666992188 653.000976562 431 679.000976562 c 1
 427 653.66796875 423 633.000976562 419 617.000976562 c 0
 400.333007812 520.333984375 388.333007812 432.333984375 383 353.000976562 c 0
 377.666992188 277.000976562 370.166992188 205.000976562 360.5 137.000976562 c 0
 350.833007812 69.0009765625 343 27.66796875 337 13.0009765625 c 0
 331.666992188 -0.33203125 316.333984375 -6.9990234375 291.000976562 -6.9990234375 c 2
 287.000976562 -6.9990234375 l 2
 277.66796875 -6.9990234375 269.66796875 -5.166015625 263.000976562 -1.4990234375 c 0
 256.333984375 2.16796875 252.333984375 7.3349609375 251.000976562 14.001953125 c 0
 243.66796875 46.001953125 231.334960938 119.168945312 214.001953125 233.501953125 c 0
 196.668945312 347.834960938 180.668945312 458.001953125 166.001953125 564.001953125 c 0
 162.668945312 579.334960938 159.668945312 599.66796875 157.001953125 625.000976562 c 1
 155.001953125 599.66796875 153.001953125 579.334960938 151.001953125 564.001953125 c 0
 146.334960938 505.334960938 142.66796875 457.66796875 140.000976562 421.000976562 c 0
 138.000976562 387.000976562 136.000976562 358.000976562 134.000976562 334.000976562 c 0
 132.000976562 300.66796875 130.000976562 271.66796875 128.000976562 247.000976562 c 0
 126.000976562 219.000976562 123.66796875 190.000976562 121.000976562 160.000976562 c 0
 119.000976562 131.333984375 117.000976562 107.666992188 115.000976562 89 c 0
 113.66796875 75 113.000976562 64 113.000976562 56 c 0
 113.66796875 48 114.000976562 46 114.000976562 46 c 2
 114.000976562 28.6669921875 110 15 102 5 c 0
EndSplineSet
Validated: 524289
EndChar

StartChar: N
Encoding: 78 78 47
Width: 590
GlyphClass: 2
Flags: HMW
HStem: -11.998 21G 685 20G<116.999 124.999 477 485.333>
VStem: 69 63 76.25 58.7499 449.001 72.999 459.501 62.4988
LayerCount: 2
Fore
SplineSet
482 705 m 0xc8
 488.666992188 705 493.999023438 704.333007812 497.999023438 703 c 0
 501.999023438 701 504.999023438 699 506.999023438 697 c 0
 508.999023438 695 510.666015625 690.666992188 511.999023438 684 c 0
 513.999023438 680 515.33203125 675.666992188 515.999023438 671 c 0
 516.666015625 666.333007812 517.666015625 659 518.999023438 649 c 0
 520.33203125 639.666992188 521.33203125 586.666992188 521.999023438 490 c 2
 521.999023438 448 l 2
 521.999023438 364 520.999023438 285.666992188 518.999023438 213 c 0
 516.999023438 139.666992188 514.666015625 89.6669921875 511.999023438 63 c 0
 509.33203125 35 506.665039062 17.6669921875 503.998046875 11 c 0
 498.665039062 -5.6669921875 483.33203125 -14 457.999023438 -14 c 1
 455.999023438 -20.6669921875 454.33203125 -20.6669921875 452.999023438 -14 c 1
 444.33203125 -14 436.999023438 -11.6669921875 430.999023438 -7 c 0
 424.999023438 -2.3330078125 420.666015625 4 417.999023438 12 c 0
 413.33203125 22.6669921875 397.999023438 52.333984375 371.999023438 101.000976562 c 2
 297.999023438 247.000976562 l 2
 272.666015625 295.66796875 246.333007812 350.334960938 219 411.001953125 c 0
 191 473.001953125 169.333007812 525.668945312 154 569.001953125 c 0
 146 592.334960938 138.333007812 613.334960938 131 632.001953125 c 1
 132.333007812 610.001953125 133.666015625 586.668945312 134.999023438 562.001953125 c 0
 138.33203125 504.668945312 139.999023438 450.001953125 139.999023438 398.001953125 c 0
 139.999023438 384.668945312 139.666015625 359.3359375 138.999023438 322.002929688 c 0
 138.33203125 284.002929688 136.999023438 237.669921875 134.999023438 183.002929688 c 0xd8
 132.999023438 128.3359375 131.999023438 90.6689453125 131.999023438 70.001953125 c 2
 131.999023438 62.001953125 l 2
 132.666015625 57.3349609375 132.999023438 53.3349609375 132.999023438 50.001953125 c 2
 132.999023438 44.001953125 l 2
 132.999023438 24.6689453125 129.666015625 10.6689453125 122.999023438 2.001953125 c 0
 116.33203125 -7.3310546875 107.999023438 -11.998046875 97.9990234375 -11.998046875 c 2
 95.9990234375 -11.998046875 l 2
 91.33203125 -11.998046875 87.33203125 -10.6650390625 83.9990234375 -7.998046875 c 0
 80.666015625 -5.3310546875 77.9990234375 -0.6640625 75.9990234375 6.0029296875 c 0
 71.33203125 16.669921875 68.9990234375 33.0029296875 68.9990234375 55.0029296875 c 0xe0
 68.9990234375 67.669921875 69.9990234375 119.002929688 71.9990234375 209.002929688 c 0
 73.9990234375 299.669921875 75.33203125 378.669921875 75.9990234375 446.002929688 c 0
 76.166015625 462.837890625 76.2490234375 479.505859375 76.2490234375 496.006835938 c 0
 76.2490234375 545.504882812 75.4990234375 593.50390625 73.9990234375 640.002929688 c 2
 73.9990234375 647.002929688 l 2
 74.666015625 657.002929688 76.3330078125 666.002929688 79 674.002929688 c 0
 81.6669921875 682.669921875 85.6669921875 689.336914062 91 694.00390625 c 0
 100.333007812 701.336914062 110.999023438 705 122.999023438 705 c 0
 126.999023438 705 130.666992188 704.670898438 134 704.00390625 c 2
 134.999023438 704.00390625 l 2
 145.666015625 704.00390625 154.666992188 701.666992188 162 697 c 0
 170.666992188 691.666992188 176.666992188 682.00390625 180 668.00390625 c 0
 193.333007812 624.00390625 229.333007812 541.336914062 288 420.00390625 c 0
 346 299.336914062 396.333007812 202.00390625 439 128.00390625 c 0
 444.333007812 115.336914062 449.666015625 106.00390625 454.999023438 100.00390625 c 1
 455.666015625 110.00390625 456.333007812 122.336914062 457 137.00390625 c 0
 458.333007812 179.670898438 459 234.670898438 459 302.00390625 c 0
 459.333984375 318.670898438 459.500976562 336.170898438 459.500976562 354.50390625 c 0xd4
 459.500976562 372.836914062 459.333984375 392.00390625 459.000976562 412.00390625 c 0
 457.000976562 532.670898438 453.66796875 612.337890625 449.000976562 651.004882812 c 1
 449.000976562 657.004882812 l 2
 449.000976562 669.671875 451.66796875 680.338867188 457.000976562 689.005859375 c 0
 463.66796875 699.672851562 472 705 482 705 c 0xc8
EndSplineSet
Validated: 524289
EndChar

StartChar: O
Encoding: 79 79 48
Width: 590
GlyphClass: 2
Flags: HMW
HStem: -23.998 73.999 646.508 71.4923
VStem: 69.999 77.002 444 76.999
LayerCount: 2
Fore
SplineSet
399.999023438 120.001953125 m 0
 412.666015625 137.334960938 422.333007812 157.001953125 429 179.001953125 c 0
 431.666992188 187.668945312 434.5 208.001953125 437.5 240.001953125 c 0
 440.5 272.001953125 442.666992188 309.668945312 444 353.001953125 c 0
 444.666992188 365.668945312 445 378.3359375 445 391.002929688 c 0
 445 422.3359375 443.666992188 453.002929688 441 483.002929688 c 0
 437 529.002929688 422 567.669921875 396 599.002929688 c 0
 372 630.3359375 342.333007812 646.168945312 307 646.501953125 c 0
 306.594726562 646.505859375 306.189453125 646.5078125 305.78515625 646.5078125 c 0
 270.986328125 646.5078125 241.724609375 632.338867188 218 604.000976562 c 0
 194.666992188 576.000976562 177.333984375 537.66796875 166.000976562 489.000976562 c 0
 153.333984375 437.000976562 147.000976562 377.66796875 147.000976562 311.000976562 c 0
 147.66796875 269.66796875 150.000976562 233.334960938 154.000976562 202.001953125 c 0
 156.000976562 183.334960938 160.000976562 164.66796875 166.000976562 146.000976562 c 0
 172.000976562 127.333984375 179.333984375 111.000976562 188.000976562 97.0009765625 c 0
 196.000976562 83.0009765625 206.66796875 71.66796875 220.000976562 63.0009765625 c 0
 233.333984375 54.333984375 248.33203125 50.0009765625 264.999023438 50.0009765625 c 0
 300.33203125 50.0009765625 332.000976562 59.66796875 360.000976562 79.0009765625 c 0
 374.66796875 89.0009765625 387.999023438 102.668945312 399.999023438 120.001953125 c 0
69.9990234375 261 m 2
 69.9990234375 291.666992188 70.3330078125 316.166992188 71 334.5 c 0
 71.6669921875 352.833007812 73 377.333007812 75 408 c 0
 79 467.333007812 90 522 108 572 c 0
 124.666992188 614.666992188 153 649.666992188 193 677 c 0
 229.666992188 704.333007812 271.333984375 718 318.000976562 718 c 0
 341.333984375 718 363.666992188 713 385 703 c 0
 407 693 427.333007812 678.5 446 659.5 c 0
 464.666992188 640.5 480.166992188 616.166992188 492.5 586.5 c 0
 504.833007812 556.833007812 512.666015625 523.333007812 515.999023438 486 c 0
 519.33203125 444.666992188 520.999023438 402.333984375 520.999023438 359.000976562 c 0
 520.999023438 325.66796875 519.83203125 290.834960938 517.499023438 254.501953125 c 0
 515.166015625 218.168945312 510.999023438 188.668945312 504.999023438 166.001953125 c 0
 496.33203125 134.668945312 485.83203125 107.668945312 473.499023438 85.001953125 c 0
 461.166015625 62.3349609375 447.833007812 44.001953125 433.5 30.001953125 c 0
 419.166992188 16.001953125 402.666992188 5.001953125 384 -2.998046875 c 0
 366.666992188 -10.998046875 348.666992188 -16.6650390625 330 -19.998046875 c 0
 311.333007812 -22.6650390625 289.666015625 -23.998046875 264.999023438 -23.998046875 c 0
 229.666015625 -23.998046875 196.999023438 -11.998046875 166.999023438 12.001953125 c 0
 135.666015625 36.001953125 111.666015625 68.001953125 94.9990234375 108.001953125 c 0
 78.33203125 148.001953125 69.9990234375 191.334960938 69.9990234375 238.001953125 c 2
 69.9990234375 243.001953125 l 1
 69.9990234375 261 l 2
EndSplineSet
Validated: 524289
EndChar

StartChar: P
Encoding: 80 80 49
Width: 590
GlyphClass: 2
Flags: HMW
HStem: -19 21G<126.001 132.001 132.001 135.001> 230 71.998 639.996 52.0029
VStem: 89.001 75 96.201 81.7989 439 73<470.999 514.997>
LayerCount: 2
Fore
SplineSet
167.000976562 630.998046875 m 1xf4
 164.000976562 547.998046875 l 2
 161.8671875 480.26953125 160.80078125 417.874023438 160.80078125 360.810546875 c 0
 160.80078125 346.5390625 160.8671875 332.6015625 161.000976562 318.998046875 c 1
 168.000976562 316.998046875 l 2
 195.333984375 306.998046875 226.000976562 301.998046875 260.000976562 301.998046875 c 0
 278.000976562 301.998046875 294.500976562 303.498046875 309.500976562 306.498046875 c 0
 324.500976562 309.498046875 337.66796875 313.498046875 349.000976562 318.498046875 c 0
 360.333984375 323.498046875 370.333984375 329.998046875 379.000976562 337.998046875 c 0
 388.333984375 345.998046875 396.333984375 354.165039062 403.000976562 362.498046875 c 0
 409.66796875 370.831054688 415.334960938 380.331054688 420.001953125 390.998046875 c 0
 424.668945312 401.665039062 428.168945312 411.498046875 430.501953125 420.498046875 c 0
 432.834960938 429.498046875 434.66796875 439.665039062 436.000976562 450.998046875 c 0
 437.333984375 462.331054688 438.166992188 471.6640625 438.5 478.997070312 c 0
 438.833007812 486.330078125 439 494.997070312 439 504.997070312 c 0
 439 524.997070312 435.333007812 543.1640625 428 559.497070312 c 0
 420.666992188 575.830078125 411.333007812 588.997070312 400 598.997070312 c 0
 389.333007812 608.330078125 377.500976562 616.163085938 364.500976562 622.49609375 c 0
 351.500976562 628.829101562 339.16796875 633.329101562 327.500976562 635.99609375 c 0
 315.833984375 638.663085938 304.333007812 639.99609375 293 639.99609375 c 0
 272.333007812 639.99609375 230.333984375 636.998046875 167.000976562 630.998046875 c 1xf4
88 626 m 1
 86.6669921875 621.333007812 85 622.998046875 83 630.998046875 c 0
 80.3330078125 635.665039062 79 640 79 644 c 0
 79.6669921875 644.666992188 80 645.666992188 80 647 c 0
 80.6669921875 653.666992188 83.1669921875 659.5 87.5 664.5 c 0
 91.8330078125 669.5 96.3330078125 672.666992188 101 674 c 0
 124.333007812 679.333007812 159 683.666015625 205 686.999023438 c 0
 247 690.33203125 276.333007812 691.999023438 293 691.999023438 c 0
 333 691.999023438 368.666992188 684.33203125 400 668.999023438 c 0
 434 653.666015625 461 630.666015625 481 599.999023438 c 0
 501 569.33203125 511.333007812 532.33203125 512 488.999023438 c 0
 512 452.999023438 506.166992188 419.166015625 494.5 387.499023438 c 0
 482.833007812 355.83203125 466.833007812 328.33203125 446.5 304.999023438 c 0
 426.166992188 281.666015625 402 263.333007812 374 250 c 0
 347.333007812 236.666992188 318.333007812 230 287 230 c 0
 240.333007812 230 203 233.333007812 175 240 c 1
 170.333007812 234.666992188 166 235.666992188 162 243 c 1
 164.666992188 189.666992188 168.666992188 130.666992188 174 66 c 0
 176.666992188 35.3330078125 178 17.666015625 178 12.9990234375 c 2
 178 11.9990234375 l 2
 178 2.666015625 174 -4.6669921875 166 -10 c 0
 156.666992188 -16 146.333984375 -19 135.000976562 -19 c 2
 132.000976562 -19 l 2
 120.000976562 -19 110.333984375 -15.6669921875 103.000976562 -9 c 0
 97.66796875 -3.6669921875 95.0009765625 3.666015625 95.0009765625 12.9990234375 c 0
 95.0009765625 14.9990234375 95.16796875 20.166015625 95.5009765625 28.4990234375 c 0
 95.833984375 36.83203125 96.0009765625 55.6650390625 96.0009765625 84.998046875 c 0
 96.134765625 91.7998046875 96.201171875 100.109375 96.201171875 109.926757812 c 0xec
 96.201171875 149.180664062 95.134765625 212.538085938 93.0009765625 299.998046875 c 0
 91.0009765625 371.998046875 90.0009765625 420.998046875 90.0009765625 446.998046875 c 0
 89.333984375 462.998046875 89.0009765625 484.498046875 89.0009765625 511.498046875 c 0
 89.0009765625 538.498046875 89.66796875 575.665039062 91.0009765625 622.998046875 c 1
 89.66796875 617.665039062 88.6669921875 618.666992188 88 626 c 1
EndSplineSet
Validated: 524289
EndChar

StartChar: Q
Encoding: 81 81 50
Width: 590
GlyphClass: 2
Flags: HMW
HStem: -24.0667 74.0667 646.001 71.999
VStem: 65.999 75.998 262.994 51.0039 443.997 74.002
LayerCount: 2
Fore
SplineSet
213 -11 m 0
 191 -1.6669921875 170.999023438 11.166015625 152.999023438 27.4990234375 c 0
 134.999023438 43.83203125 119.666015625 63.33203125 106.999023438 85.9990234375 c 0
 82.33203125 129.999023438 68.6650390625 182.666015625 65.998046875 243.999023438 c 2
 65.998046875 295.999023438 l 2
 65.9814453125 298.634765625 65.9736328125 301.259765625 65.9736328125 303.874023438 c 0
 65.9736328125 408.397460938 78.9814453125 496.10546875 104.998046875 566.999023438 c 0
 120.331054688 609.666015625 148.331054688 645.333007812 188.998046875 674 c 0
 226.998046875 703.333007812 268.998046875 718 314.998046875 718 c 0
 362.998046875 717.333007812 404.998046875 699.333007812 440.998046875 664 c 0
 458.998046875 646.666992188 474.331054688 622.833984375 486.998046875 592.500976562 c 0
 499.665039062 562.16796875 507.998046875 527.66796875 511.998046875 489.000976562 c 0
 515.998046875 450.333984375 517.998046875 406.000976562 517.998046875 356.000976562 c 0
 517.998046875 269.333984375 513.665039062 204.000976562 504.998046875 160.000976562 c 0
 490.998046875 89.333984375 459.665039062 39.0009765625 410.998046875 9.0009765625 c 0
 407.665039062 2.333984375 404.665039062 0.6669921875 401.998046875 4 c 1
 419.331054688 -21.3330078125 435.6640625 -44.3330078125 450.997070312 -65 c 0
 465.6640625 -85 476.497070312 -99.5 483.497070312 -108.5 c 0
 490.497070312 -117.5 502.997070312 -133.666992188 520.997070312 -157 c 0
 523.6640625 -160.333007812 524.997070312 -164.333007812 524.997070312 -169 c 2
 524.997070312 -173 l 2
 523.6640625 -180.333007812 521.1640625 -187.166015625 517.497070312 -193.499023438 c 0
 513.830078125 -199.83203125 509.997070312 -204.33203125 505.997070312 -206.999023438 c 0
 500.6640625 -210.33203125 494.997070312 -211.999023438 488.997070312 -211.999023438 c 0
 486.330078125 -211.999023438 483.330078125 -211.666015625 479.997070312 -210.999023438 c 0
 469.997070312 -207.666015625 460.997070312 -201.333007812 452.997070312 -192 c 0
 442.997070312 -180.666992188 426.997070312 -158.666992188 404.997070312 -126 c 0
 384.997070312 -93.3330078125 363.997070312 -58 341.997070312 -20 c 1
 339.997070312 -26.6669921875 337.997070312 -27 335.997070312 -21 c 1
 320.6640625 -23 303.6640625 -24 284.997070312 -24 c 0
 283.263671875 -24.044921875 281.5390625 -24.0673828125 279.823242188 -24.0673828125 c 0
 255.806640625 -24.0673828125 233.533203125 -19.7109375 213 -11 c 0
301.997070312 208.999023438 m 0
 306.6640625 205.666015625 310.6640625 199.333007812 313.997070312 190 c 0
 324.6640625 156.666992188 340.6640625 120.333984375 361.997070312 81.0009765625 c 2
 366.997070312 71.0009765625 l 1
 374.997070312 77.0009765625 l 2
 404.330078125 98.333984375 423.663085938 131.333984375 432.99609375 176.000976562 c 0
 434.99609375 185.333984375 437.329101562 205.666992188 439.99609375 237 c 0
 441.99609375 267.666992188 443.329101562 306 443.99609375 352 c 2
 443.99609375 368 l 2
 444.079101562 373.084960938 444.12109375 378.138671875 444.12109375 383.161132812 c 0
 444.12109375 418.305664062 442.079101562 451.918945312 437.99609375 484.000976562 c 0
 431.99609375 532.66796875 416.663085938 572.000976562 391.99609375 602.000976562 c 0
 369.329101562 631.333984375 339.99609375 646.000976562 303.99609375 646.000976562 c 0
 267.99609375 646.000976562 237.99609375 632.333984375 213.99609375 605.000976562 c 0
 189.99609375 577.66796875 172.329101562 539.66796875 160.99609375 491.000976562 c 0
 148.329101562 439.000976562 141.99609375 383.66796875 141.99609375 325.000976562 c 2
 141.99609375 321.000976562 l 2
 142.663085938 302.333984375 143.663085938 282.666992188 144.99609375 262 c 0
 147.663085938 221.333007812 155.163085938 185.5 167.49609375 154.5 c 0
 179.829101562 123.5 196.162109375 98.3330078125 216.495117188 79 c 0
 236.828125 59.6669921875 259.661132812 50 284.994140625 50 c 2
 293.994140625 50 l 1
 308.994140625 50 l 1
 301.994140625 65 l 2
 287.327148438 94.3330078125 277.16015625 116.833007812 271.493164062 132.5 c 0
 265.826171875 148.166992188 262.993164062 161.666992188 262.993164062 173 c 0
 262.993164062 187 267.66015625 198 276.993164062 206 c 0
 282.326171875 210.666992188 287.326171875 213 291.993164062 213 c 0
 295.326171875 213 298.6640625 211.666015625 301.997070312 208.999023438 c 0
EndSplineSet
Validated: 524289
EndChar

StartChar: R
Encoding: 82 82 51
Width: 590
GlyphClass: 2
Flags: HMW
HStem: -18.998 21G 280.633 68.3692 675.001 20G
VStem: 70.999 76.001 75 83.998 79.666 59.3317 80.499 70.5 436.997 72.0029
LayerCount: 2
Fore
SplineSet
415 504.000976562 m 0xe3
 400.333007812 522.66796875 382.999023438 538.834960938 362.999023438 552.501953125 c 0
 342.999023438 566.168945312 320.666015625 578.668945312 295.999023438 590.001953125 c 0
 249.33203125 610.668945312 203.33203125 625.001953125 157.999023438 633.001953125 c 2
 146.999023438 635.001953125 l 1xf1
 148.33203125 578.334960938 149.665039062 532.334960938 150.998046875 497.001953125 c 0
 150.998046875 485.001953125 149.997070312 465.334960938 147.997070312 438.001953125 c 0
 147.330078125 429.334960938 144.6640625 400.334960938 139.997070312 351.001953125 c 1
 147.997070312 350.001953125 l 2
 156.758789062 348.477539062 167.479492188 347.715820312 180.159179688 347.715820312 c 0
 189.669921875 347.715820312 200.282226562 348.14453125 211.997070312 349.001953125 c 0
 289.997070312 352.334960938 343.330078125 359.334960938 371.997070312 370.001953125 c 0
 383.330078125 374.001953125 393.997070312 379.334960938 403.997070312 386.001953125 c 0
 425.997070312 400.001953125 436.997070312 419.668945312 436.997070312 445.001953125 c 0
 436.997070312 465.668945312 429.666992188 485.333984375 415 504.000976562 c 0xe3
449.999023438 3 m 0
 439.33203125 17 423.994140625 34.66796875 403.994140625 56.0009765625 c 0
 385.994140625 76.66796875 364.1640625 99.5009765625 338.497070312 124.500976562 c 0
 312.830078125 149.500976562 283.663085938 174.333984375 250.99609375 199.000976562 c 0
 218.329101562 223.66796875 185.329101562 243.334960938 151.99609375 258.001953125 c 1
 147.329101562 253.334960938 142.662109375 255.334960938 137.995117188 264.001953125 c 1
 138.662109375 252.668945312 138.995117188 249.001953125 138.995117188 249.001953125 c 2xe5
 140.328125 210.334960938 143.995117188 163.001953125 149.995117188 107.001953125 c 0
 155.995117188 51.001953125 158.995117188 19.3349609375 158.995117188 12.001953125 c 0
 158.328125 2.6689453125 153.995117188 -4.6640625 145.995117188 -9.9970703125 c 0
 136.662109375 -15.9970703125 126.329101562 -18.9970703125 114.99609375 -18.9970703125 c 2
 111.99609375 -18.9970703125 l 2
 100.663085938 -18.9970703125 91.330078125 -15.6640625 83.9970703125 -8.9970703125 c 0
 77.9970703125 -3.6640625 74.9970703125 3.6689453125 74.9970703125 13.001953125 c 0xe9
 75.6640625 14.3349609375 75.9970703125 16.3349609375 75.9970703125 19.001953125 c 0
 77.9970703125 53.6689453125 79.1640625 83.501953125 79.4970703125 108.501953125 c 0
 79.6083984375 116.827148438 79.6640625 129.051757812 79.6640625 145.176757812 c 0xe5
 79.6640625 177.473632812 79.44140625 225.415039062 78.99609375 289.000976562 c 2
 78.99609375 305.500976562 l 2
 78.99609375 314.500976562 79.49609375 333.000976562 80.49609375 361.000976562 c 0xe3
 81.49609375 389.000976562 81.99609375 412.833984375 81.99609375 432.500976562 c 0
 81.99609375 452.16796875 81.6630859375 472.000976562 80.99609375 492.000976562 c 0
 80.3291015625 512.000976562 78.49609375 541.500976562 75.49609375 580.500976562 c 0
 72.49609375 619.500976562 70.99609375 642.66796875 70.99609375 650.000976562 c 2
 70.99609375 656.000976562 l 1
 70.99609375 659.000976562 l 2xf1
 70.99609375 667.000976562 74.6630859375 674.66796875 81.99609375 682.000976562 c 0
 88.6630859375 690.66796875 98.330078125 695.000976562 110.997070312 695.000976562 c 0
 121.6640625 695.000976562 129.997070312 692.66796875 135.997070312 688.000976562 c 1
 137.330078125 681.333984375 138.328125 681.000976562 138.995117188 687.000976562 c 1xe5
 192.995117188 684.333984375 240.497070312 677.166992188 281.497070312 665.5 c 0
 322.497070312 653.833007812 356.330078125 639.666015625 382.997070312 622.999023438 c 0
 410.997070312 606.33203125 434.830078125 587.33203125 454.497070312 565.999023438 c 0
 474.1640625 544.666015625 488.1640625 523.499023438 496.497070312 502.499023438 c 0
 504.830078125 481.499023438 508.997070312 460.33203125 508.997070312 438.999023438 c 0
 508.997070312 408.33203125 501.330078125 382.999023438 485.997070312 362.999023438 c 0
 478.6640625 353.666015625 468.997070312 345.166015625 456.997070312 337.499023438 c 0
 444.997070312 329.83203125 431.997070312 323.33203125 417.997070312 317.999023438 c 0
 404.6640625 312.666015625 389.327148438 307.833007812 371.994140625 303.5 c 0
 354.661132812 299.166992188 337.165039062 295.833984375 319.498046875 293.500976562 c 0
 301.831054688 291.16796875 281.998046875 289.000976562 259.998046875 287.000976562 c 0
 254.208984375 282.755859375 248.307617188 280.6328125 242.294921875 280.6328125 c 0
 237.921875 280.6328125 233.490234375 281.755859375 228.999023438 284.000976562 c 1
 236.799804688 273.201171875 244.870117188 267.801757812 253.209960938 267.801757812 c 0
 254.13671875 267.801757812 255.06640625 267.868164062 256 268.000976562 c 0
 316.666992188 234.000976562 370.666015625 194.333984375 417.999023438 149.000976562 c 0
 468.666015625 103.000976562 502 64.333984375 518 33.0009765625 c 0
 519.333007812 28.333984375 520 23.833984375 520 19.5009765625 c 0
 520 15.16796875 519.333007812 11.0009765625 518 7.0009765625 c 0
 514.666992188 -0.33203125 509.666992188 -6.33203125 503 -10.9990234375 c 0
 497 -15.666015625 491 -17.9990234375 485 -17.9990234375 c 0
 472.333007812 -17.9990234375 460.666015625 -11 449.999023438 3 c 0
EndSplineSet
Validated: 524289
EndChar

StartChar: S
Encoding: 83 83 52
Width: 590
GlyphClass: 2
Flags: HMW
HStem: -29.0049 67.0049 664.997 59.1678
VStem: 94.002 81 446.999 80.0039
LayerCount: 2
Fore
SplineSet
65 102 m 0
 67 110.666992188 72.3330078125 117 81 121 c 0
 88.3330078125 124.333007812 93.5 126.333007812 96.5 127 c 0
 99.5 127.666992188 102 128 104 128 c 2
 110 128 l 2
 114 128 118.166992188 126 122.5 122 c 0
 126.833007812 118 131.666015625 112 136.999023438 104 c 0
 150.33203125 84 167.999023438 68 189.999023438 56 c 0
 210.666015625 44 233.999023438 38 259.999023438 38 c 0
 275.33203125 38 291.499023438 40.3330078125 308.499023438 45 c 0
 325.499023438 49.6669921875 341.999023438 56.6669921875 357.999023438 66 c 0
 373.999023438 75.3330078125 388.33203125 86.666015625 400.999023438 99.9990234375 c 0
 414.33203125 113.33203125 425.33203125 128.999023438 433.999023438 146.999023438 c 0
 442.666015625 164.999023438 446.999023438 183.999023438 446.999023438 203.999023438 c 0
 446.999023438 214.666015625 446.33203125 224.499023438 444.999023438 233.499023438 c 0
 443.666015625 242.499023438 440.833007812 252.166015625 436.5 262.499023438 c 0
 432.166992188 272.83203125 426.666992188 282.33203125 420 290.999023438 c 0
 413.333007812 299.666015625 404.333007812 308.333007812 393 317 c 0
 381.666992188 325.666992188 368.833984375 333 354.500976562 339 c 0
 340.16796875 345 322.500976562 350.666992188 301.500976562 356 c 0
 280.500976562 361.333007812 257.333984375 365.666015625 232.000976562 368.999023438 c 0
 211.333984375 371.666015625 192.333984375 377.666015625 175.000976562 386.999023438 c 0
 156.333984375 396.33203125 141.333984375 407.83203125 130.000976562 421.499023438 c 0
 118.66796875 435.166015625 109.834960938 449.666015625 103.501953125 464.999023438 c 0
 97.1689453125 480.33203125 94.001953125 495.33203125 94.001953125 509.999023438 c 0
 94.001953125 531.999023438 97.6689453125 553.33203125 105.001953125 573.999023438 c 0
 112.334960938 594.666015625 123.66796875 614.166015625 139.000976562 632.499023438 c 0
 154.333984375 650.83203125 172.666992188 666.665039062 194 679.998046875 c 0
 214 693.331054688 238.166992188 703.998046875 266.5 711.998046875 c 0
 294.833007812 719.998046875 325.333007812 723.998046875 358 723.998046875 c 0
 360.66796875 724.109375 363.521484375 724.165039062 366.560546875 724.165039062 c 0
 381.745117188 724.165039062 401.55859375 722.776367188 426 719.999023438 c 0
 456.666992188 716.666015625 477.333984375 712.999023438 488.000976562 708.999023438 c 0
 498.66796875 704.999023438 506.000976562 698.999023438 510.000976562 690.999023438 c 0
 514.000976562 684.33203125 516.000976562 677.665039062 516.000976562 670.998046875 c 0
 516.000976562 662.331054688 514.000976562 655.998046875 510.000976562 651.998046875 c 0
 507.333984375 648.665039062 504.000976562 646.83203125 500.000976562 646.499023438 c 0
 496.000976562 646.166015625 492.333984375 645.999023438 489.000976562 645.999023438 c 0
 479.66796875 645.999023438 470.66796875 647.666015625 462.000976562 650.999023438 c 0
 450.000976562 654.33203125 440.333984375 656.665039062 433.000976562 657.998046875 c 0
 425.66796875 659.331054688 414.334960938 660.6640625 399.001953125 661.997070312 c 0
 384.334960938 663.997070312 368.001953125 664.997070312 350.001953125 664.997070312 c 0
 321.334960938 664.997070312 294.001953125 660.330078125 268.001953125 650.997070312 c 0
 241.334960938 640.997070312 219.334960938 625.997070312 202.001953125 605.997070312 c 0
 184.001953125 585.997070312 175.001953125 562.997070312 175.001953125 536.997070312 c 0
 175.668945312 506.997070312 187.668945312 481.997070312 211.001953125 461.997070312 c 0
 233.001953125 441.997070312 263.668945312 430.997070312 303.001953125 428.997070312 c 0
 337.001953125 426.997070312 366.668945312 421.330078125 392.001953125 411.997070312 c 0
 418.668945312 402.6640625 440.3359375 391.331054688 457.002929688 377.998046875 c 0
 473.669921875 364.665039062 487.502929688 348.998046875 498.502929688 330.998046875 c 0
 509.502929688 312.998046875 517.002929688 295.331054688 521.002929688 277.998046875 c 0
 525.002929688 260.665039062 527.002929688 241.998046875 527.002929688 221.998046875 c 0
 527.002929688 191.331054688 522.002929688 162.6640625 512.002929688 135.997070312 c 0
 502.002929688 109.330078125 488.169921875 86.1630859375 470.502929688 66.49609375 c 0
 452.8359375 46.8291015625 432.002929688 29.662109375 408.002929688 14.9951171875 c 0
 386.669921875 0.328125 363.002929688 -10.671875 337.002929688 -18.0048828125 c 0
 311.002929688 -25.337890625 284.3359375 -29.0048828125 257.002929688 -29.0048828125 c 0
 215.002929688 -29.0048828125 177.002929688 -20.0048828125 143.002929688 -2.0048828125 c 0
 109.002929688 15.9951171875 85.669921875 37.662109375 73.0029296875 62.9951171875 c 0
 67.0029296875 75.662109375 64.0029296875 86.3291015625 64.0029296875 94.99609375 c 0
 64.0029296875 97.6630859375 64.3330078125 100 65 102 c 0
EndSplineSet
Validated: 524289
EndChar

StartChar: T
Encoding: 84 84 53
Width: 590
GlyphClass: 2
Flags: HMW
HStem: 612 69<491.001 493.001 489.001 497.334> 640.499 54.499
VStem: 259 75 269 76.001
LayerCount: 2
Fore
SplineSet
102 694 m 0x60
 139.333007812 688 269.000976562 683.666992188 491.000976562 681 c 0
 503.66796875 681 512.66796875 678 518.000976562 672 c 0
 523.333984375 666 526.333984375 658.666992188 527.000976562 650 c 0
 527.000976562 639.333007812 523.66796875 630 517.000976562 622 c 0
 511.66796875 615.333007812 503.66796875 612 493.000976562 612 c 2
 489.000976562 612 l 2
 470.333984375 610.366210938 451.87109375 609.549804688 433.612304688 609.549804688 c 0
 399.704101562 609.549804688 366.5 612.366210938 334 618 c 1xa0
 334.666992188 475.333007812 338.333984375 277.333007812 345.000976562 24 c 0
 344.333984375 12.6669921875 339.666992188 3.6669921875 331 -3 c 0
 322.333007812 -9.6669921875 313 -13 303 -13 c 1
 301.666992188 -19.6669921875 300.666992188 -19.6669921875 300 -13 c 1
 290 -13 282 -9.3330078125 276 -2 c 0
 271.333007812 3.3330078125 269 11 269 21 c 0x90
 269 23 269.166992188 26.6669921875 269.5 32 c 0
 269.833007812 37.3330078125 270 51.666015625 270 74.9990234375 c 0
 270 122.999023438 268.166992188 208.33203125 264.5 330.999023438 c 0
 260.833007812 453.666015625 259 540.999023438 259 592.999023438 c 2
 259 619.999023438 l 1
 170.333007812 624.666015625 119.333007812 627.999023438 106 629.999023438 c 0
 92.6669921875 631.999023438 82.333984375 635.499023438 75.0009765625 640.499023438 c 0
 67.66796875 645.499023438 64.0009765625 651.999023438 64.0009765625 659.999023438 c 1
 63.333984375 653.999023438 63.0009765625 654.666015625 63.0009765625 661.999023438 c 0
 63.0009765625 671.33203125 66.333984375 679.665039062 73.0009765625 686.998046875 c 0
 77.66796875 692.331054688 84.3349609375 694.998046875 93.001953125 694.998046875 c 0
 95.6689453125 694.998046875 98.6669921875 694.666992188 102 694 c 0x60
EndSplineSet
Validated: 524289
EndChar

StartChar: U
Encoding: 85 85 54
Width: 590
GlyphClass: 2
Flags: HMW
HStem: -28.999 71 669.52 20G
VStem: 59.076 73.9219 457.999 74.001
LayerCount: 2
Fore
SplineSet
528 250 m 0
 527.333007812 220.666992188 523.5 193.334960938 516.5 168.001953125 c 0
 509.5 142.668945312 501 120.668945312 491 102.001953125 c 0
 481 83.3349609375 469.166992188 66.501953125 455.5 51.501953125 c 0
 441.833007812 36.501953125 427.333007812 24.001953125 412 14.001953125 c 0
 398 4.001953125 383.333007812 -4.1650390625 368 -10.498046875 c 0
 352.666992188 -16.8310546875 337.666992188 -21.498046875 323 -24.498046875 c 0
 308.333007812 -27.498046875 293.166015625 -28.998046875 277.499023438 -28.998046875 c 0
 261.83203125 -28.998046875 245.33203125 -26.498046875 227.999023438 -21.498046875 c 0
 210.666015625 -16.498046875 192.666015625 -7.6650390625 173.999023438 5.001953125 c 0
 153.999023438 17.6689453125 136.33203125 33.501953125 120.999023438 52.501953125 c 0
 105.666015625 71.501953125 92.666015625 96.001953125 81.9990234375 126.001953125 c 0
 71.33203125 156.001953125 65.33203125 190.334960938 63.9990234375 229.001953125 c 0
 60.716796875 353.721679688 59.076171875 453.825195312 59.076171875 529.3125 c 0
 59.076171875 576.490234375 59.716796875 614.053710938 60.9990234375 642.001953125 c 0
 60.9990234375 657.334960938 65.166015625 669.16796875 73.4990234375 677.500976562 c 0
 81.51171875 685.513671875 90.9111328125 689.520507812 101.698242188 689.520507812 c 0
 102.12890625 689.520507812 102.5625 689.513671875 102.998046875 689.500976562 c 0
 114.331054688 689.16796875 122.331054688 685.334960938 126.998046875 678.001953125 c 0
 130.998046875 671.334960938 132.998046875 661.334960938 132.998046875 648.001953125 c 0
 133.665039062 422.001953125 135.665039062 285.334960938 138.998046875 238.001953125 c 0
 140.331054688 215.334960938 142.6640625 196.334960938 145.997070312 181.001953125 c 0
 149.330078125 165.668945312 154.997070312 149.168945312 162.997070312 131.501953125 c 0
 170.997070312 113.834960938 180.330078125 98.66796875 190.997070312 86.0009765625 c 0
 201.6640625 73.333984375 215.1640625 62.833984375 231.497070312 54.5009765625 c 0
 247.830078125 46.16796875 266.330078125 42.0009765625 286.997070312 42.0009765625 c 0
 333.6640625 42.66796875 371.331054688 59.66796875 399.998046875 93.0009765625 c 0
 430.665039062 126.333984375 448.33203125 176.666992188 452.999023438 244 c 0
 454.999023438 272.666992188 456.33203125 305.166992188 456.999023438 341.5 c 0
 457.666015625 377.833007812 457.999023438 405 457.999023438 423 c 0
 457.999023438 441 457.83203125 469.833007812 457.499023438 509.5 c 0
 457.166015625 549.166992188 456.999023438 590.666992188 456.999023438 634 c 0
 456.999023438 661.333007812 460.666015625 678 467.999023438 684 c 0
 471.33203125 686.666992188 474.83203125 688.5 478.499023438 689.5 c 0
 482.166015625 690.5 486.999023438 691 492.999023438 691 c 0
 502.33203125 691 510.33203125 687.166992188 516.999023438 679.5 c 0
 523.666015625 671.833007812 527.333007812 660.333007812 528 645 c 0
 530.666992188 593 532 534 532 468 c 0
 532 402 530.666992188 329.333007812 528 250 c 0
EndSplineSet
Validated: 524289
EndChar

